%TF.GenerationSoftware,KiCad,Pcbnew,9.0.0*%
%TF.CreationDate,2025-02-21T22:06:12+01:00*%
%TF.ProjectId,chouchou_mini_choc,63686f75-6368-46f7-955f-6d696e695f63,v1.0.0*%
%TF.SameCoordinates,Original*%
%TF.FileFunction,Copper,L1,Top*%
%TF.FilePolarity,Positive*%
%FSLAX46Y46*%
G04 Gerber Fmt 4.6, Leading zero omitted, Abs format (unit mm)*
G04 Created by KiCad (PCBNEW 9.0.0) date 2025-02-21 22:06:12*
%MOMM*%
%LPD*%
G01*
G04 APERTURE LIST*
G04 Aperture macros list*
%AMRoundRect*
0 Rectangle with rounded corners*
0 $1 Rounding radius*
0 $2 $3 $4 $5 $6 $7 $8 $9 X,Y pos of 4 corners*
0 Add a 4 corners polygon primitive as box body*
4,1,4,$2,$3,$4,$5,$6,$7,$8,$9,$2,$3,0*
0 Add four circle primitives for the rounded corners*
1,1,$1+$1,$2,$3*
1,1,$1+$1,$4,$5*
1,1,$1+$1,$6,$7*
1,1,$1+$1,$8,$9*
0 Add four rect primitives between the rounded corners*
20,1,$1+$1,$2,$3,$4,$5,0*
20,1,$1+$1,$4,$5,$6,$7,0*
20,1,$1+$1,$6,$7,$8,$9,0*
20,1,$1+$1,$8,$9,$2,$3,0*%
G04 Aperture macros list end*
%TA.AperFunction,ComponentPad*%
%ADD10C,2.032000*%
%TD*%
%TA.AperFunction,ComponentPad*%
%ADD11C,0.700000*%
%TD*%
%TA.AperFunction,ComponentPad*%
%ADD12C,4.400000*%
%TD*%
%TA.AperFunction,ComponentPad*%
%ADD13RoundRect,0.400000X-0.900000X-0.400000X0.900000X-0.400000X0.900000X0.400000X-0.900000X0.400000X0*%
%TD*%
%TA.AperFunction,ComponentPad*%
%ADD14RoundRect,0.400050X-0.899950X-0.400050X0.899950X-0.400050X0.899950X0.400050X-0.899950X0.400050X0*%
%TD*%
%TA.AperFunction,ComponentPad*%
%ADD15RoundRect,0.400000X-0.400000X-0.900000X0.400000X-0.900000X0.400000X0.900000X-0.400000X0.900000X0*%
%TD*%
%TA.AperFunction,ComponentPad*%
%ADD16RoundRect,0.393700X-0.393700X-0.906300X0.393700X-0.906300X0.393700X0.906300X-0.393700X0.906300X0*%
%TD*%
%TA.AperFunction,ViaPad*%
%ADD17C,0.800000*%
%TD*%
%TA.AperFunction,Conductor*%
%ADD18C,0.250000*%
%TD*%
G04 APERTURE END LIST*
D10*
%TO.P,S23,1*%
%TO.N,GP13*%
X52125676Y-133338066D03*
%TO.P,S23,2*%
%TO.N,GND*%
X55974921Y-137158185D03*
%TD*%
%TO.P,S22,1*%
%TO.N,GP26*%
X36418760Y-122488531D03*
%TO.P,S22,2*%
%TO.N,GND*%
X40398981Y-126171986D03*
%TD*%
%TO.P,S21,1*%
%TO.N,GP12*%
X30604360Y-138463231D03*
%TO.P,S21,2*%
%TO.N,GND*%
X34584581Y-142146686D03*
%TD*%
%TO.P,S34,1*%
%TO.N,GP2*%
X173854186Y-121322032D03*
%TO.P,S34,2*%
%TO.N,GND*%
X179276779Y-121396085D03*
%TD*%
%TO.P,S25,1*%
%TO.N,GP14*%
X71097673Y-135419890D03*
%TO.P,S25,2*%
%TO.N,GND*%
X74811254Y-139372018D03*
%TD*%
%TO.P,S35,1*%
%TO.N,GP5*%
X161386872Y-139487256D03*
%TO.P,S35,2*%
%TO.N,GND*%
X166808746Y-139372018D03*
%TD*%
%TO.P,S38,1*%
%TO.N,GP0*%
X140481840Y-139142873D03*
%TO.P,S38,2*%
%TO.N,GND*%
X145896390Y-138838485D03*
%TD*%
%TO.P,S26,1*%
%TO.N,GP28*%
X78012173Y-119889590D03*
%TO.P,S26,2*%
%TO.N,GND*%
X81725754Y-123841718D03*
%TD*%
%TO.P,S39,1*%
%TO.N,GP8*%
X150112226Y-175569154D03*
%TO.P,S39,2*%
%TO.N,GND*%
X150132821Y-180992214D03*
%TD*%
%TO.P,S28,1*%
%TO.N,GP29*%
X92150219Y-134759163D03*
%TO.P,S28,2*%
%TO.N,GND*%
X95723610Y-138838485D03*
%TD*%
%TO.P,S40,1*%
%TO.N,GP9*%
X133543126Y-182602354D03*
%TO.P,S40,2*%
%TO.N,GND*%
X133563721Y-188025414D03*
%TD*%
%TO.P,S36,1*%
%TO.N,GP1*%
X154472372Y-123956956D03*
%TO.P,S36,2*%
%TO.N,GND*%
X159894246Y-123841718D03*
%TD*%
D11*
%TO.P,_6,1*%
%TO.N,N/C*%
X144251190Y-119725312D03*
X144174095Y-118464814D03*
X145197014Y-120562105D03*
X145010888Y-117518990D03*
D12*
X145734200Y-119002000D03*
D11*
X146457512Y-120485010D03*
X146271386Y-117441895D03*
X147294305Y-119539186D03*
X147217210Y-118278688D03*
%TD*%
%TO.P,_2,1*%
%TO.N,N/C*%
X187846307Y-112523233D03*
X187901392Y-111261580D03*
X188699480Y-113454308D03*
X188832467Y-110408407D03*
D12*
X189396800Y-111958900D03*
D11*
X189961133Y-113509393D03*
X190094120Y-110463492D03*
X190892208Y-112656220D03*
X190947293Y-111394567D03*
%TD*%
D10*
%TO.P,S37,1*%
%TO.N,GP4*%
X147934140Y-154422373D03*
%TO.P,S37,2*%
%TO.N,GND*%
X153348690Y-154117985D03*
%TD*%
D11*
%TO.P,_5,1*%
%TO.N,N/C*%
X94402790Y-118278688D03*
X94325695Y-119539186D03*
X95348614Y-117441895D03*
X96609112Y-117518990D03*
D12*
X95885800Y-119002000D03*
D11*
X95162488Y-120485010D03*
X96422986Y-120562105D03*
X97445905Y-118464814D03*
X97368810Y-119725312D03*
%TD*%
%TO.P,_3,1*%
%TO.N,N/C*%
X71026150Y-143816785D03*
X71942193Y-142947493D03*
X70993093Y-145079207D03*
X73204615Y-142980550D03*
D12*
X72533500Y-144487900D03*
D11*
X71862385Y-145995250D03*
X74073907Y-143896593D03*
X73124807Y-146028307D03*
X74040850Y-145159015D03*
%TD*%
D10*
%TO.P,S29,1*%
%TO.N,GP11*%
X87600563Y-184774203D03*
%TO.P,S29,2*%
%TO.N,GND*%
X91487279Y-180992214D03*
%TD*%
D11*
%TO.P,_7,1*%
%TO.N,N/C*%
X89007294Y-194768333D03*
X88122147Y-193867601D03*
X90270101Y-194779353D03*
X88133167Y-192604794D03*
D12*
X89652000Y-193249500D03*
D11*
X91170833Y-193894206D03*
X89033899Y-191719647D03*
X91181853Y-192631399D03*
X90296706Y-191730667D03*
%TD*%
D13*
%TO.P,RP2040Zero1,1*%
%TO.N,GP0*%
X129190000Y-134675600D03*
X129190000Y-134675600D03*
%TO.P,RP2040Zero1,2*%
%TO.N,GP1*%
X129190000Y-137215600D03*
X129190000Y-137215600D03*
%TO.P,RP2040Zero1,3*%
%TO.N,GP2*%
X129190000Y-139755600D03*
X129190000Y-139755600D03*
%TO.P,RP2040Zero1,4*%
%TO.N,GP3*%
X129190000Y-142295600D03*
X129190000Y-142295600D03*
%TO.P,RP2040Zero1,5*%
%TO.N,GP4*%
X129190000Y-144835600D03*
X129190000Y-144835600D03*
D14*
%TO.P,RP2040Zero1,6*%
%TO.N,GP5*%
X129190000Y-147375600D03*
X129190000Y-147375600D03*
%TO.P,RP2040Zero1,7*%
%TO.N,GP6*%
X129190000Y-149915600D03*
X129190000Y-149915600D03*
%TO.P,RP2040Zero1,8*%
%TO.N,GP7*%
X129190000Y-152455600D03*
X129190000Y-152455600D03*
%TO.P,RP2040Zero1,9*%
%TO.N,GP8*%
X129190000Y-154995600D03*
X129190000Y-154995600D03*
D15*
%TO.P,RP2040Zero1,10*%
%TO.N,GP9*%
X126050000Y-155805600D03*
X126050000Y-155805600D03*
D16*
%TO.P,RP2040Zero1,11*%
%TO.N,GP10*%
X123510000Y-155805600D03*
X123510000Y-155805600D03*
%TO.P,RP2040Zero1,12*%
%TO.N,GP11*%
X120970000Y-155805600D03*
X120970000Y-155805600D03*
%TO.P,RP2040Zero1,13*%
%TO.N,GP12*%
X118430000Y-155805600D03*
X118430000Y-155805600D03*
%TO.P,RP2040Zero1,14*%
%TO.N,GP13*%
X115890000Y-155805600D03*
X115890000Y-155805600D03*
D14*
%TO.P,RP2040Zero1,15*%
%TO.N,GP14*%
X112750000Y-154995600D03*
X112750000Y-154995600D03*
%TO.P,RP2040Zero1,16*%
%TO.N,GP15*%
X112750000Y-152455600D03*
X112750000Y-152455600D03*
%TO.P,RP2040Zero1,17*%
%TO.N,GP26*%
X112750000Y-149915600D03*
X112750000Y-149915600D03*
%TO.P,RP2040Zero1,18*%
%TO.N,GP27*%
X112750000Y-147375600D03*
X112750000Y-147375600D03*
%TO.P,RP2040Zero1,19*%
%TO.N,P5V*%
X112750000Y-134675600D03*
X112750000Y-134675600D03*
%TO.P,RP2040Zero1,20*%
%TO.N,GND*%
X112750000Y-137215600D03*
X112750000Y-137215600D03*
%TO.P,RP2040Zero1,21*%
%TO.N,P3V3*%
X112750000Y-139755600D03*
X112750000Y-139755600D03*
%TO.P,RP2040Zero1,22*%
%TO.N,GP28*%
X112750000Y-144835600D03*
X112750000Y-144835600D03*
%TO.P,RP2040Zero1,23*%
%TO.N,GP29*%
X112750000Y-142295600D03*
X112750000Y-142295600D03*
%TD*%
D10*
%TO.P,S31,1*%
%TO.N,GP7*%
X201618713Y-141883433D03*
%TO.P,S31,2*%
%TO.N,GND*%
X207035419Y-142146686D03*
%TD*%
%TO.P,S33,1*%
%TO.N,GP6*%
X180222486Y-137084132D03*
%TO.P,S33,2*%
%TO.N,GND*%
X185645079Y-137158185D03*
%TD*%
%TO.P,S27,1*%
%TO.N,GP15*%
X84697919Y-150038663D03*
%TO.P,S27,2*%
%TO.N,GND*%
X88271310Y-154117985D03*
%TD*%
D11*
%TO.P,_8,1*%
%TO.N,N/C*%
X151323294Y-191730667D03*
X152586101Y-191719647D03*
X150438147Y-192631399D03*
X153486833Y-192604794D03*
D12*
X151968000Y-193249500D03*
D11*
X150449167Y-193894206D03*
X153497853Y-193867601D03*
X151349899Y-194779353D03*
X152612706Y-194768333D03*
%TD*%
D10*
%TO.P,S30,1*%
%TO.N,GP10*%
X104169563Y-191807403D03*
%TO.P,S30,2*%
%TO.N,GND*%
X108056279Y-188025414D03*
%TD*%
%TO.P,S32,1*%
%TO.N,GP3*%
X195804313Y-125908733D03*
%TO.P,S32,2*%
%TO.N,GND*%
X201221019Y-126171986D03*
%TD*%
D11*
%TO.P,_4,1*%
%TO.N,N/C*%
X167579150Y-145159015D03*
X167546093Y-143896593D03*
X168495193Y-146028307D03*
X168415385Y-142980550D03*
D12*
X169086500Y-144487900D03*
D11*
X169757615Y-145995250D03*
X169677807Y-142947493D03*
X170626907Y-145079207D03*
X170593850Y-143816785D03*
%TD*%
D10*
%TO.P,S24,1*%
%TO.N,GP27*%
X58493976Y-117575966D03*
%TO.P,S24,2*%
%TO.N,GND*%
X62343221Y-121396085D03*
%TD*%
D11*
%TO.P,_1,1*%
%TO.N,N/C*%
X50672707Y-111394567D03*
X51525880Y-110463492D03*
X50727792Y-112656220D03*
X52787533Y-110408407D03*
D12*
X52223200Y-111958900D03*
D11*
X51658867Y-113509393D03*
X53718608Y-111261580D03*
X52920520Y-113454308D03*
X53773693Y-112523233D03*
%TD*%
D17*
%TO.N,GP26*%
X105703600Y-125292100D03*
%TO.N,GP27*%
X99706800Y-122470400D03*
%TO.N,GP14*%
X78865600Y-152748800D03*
%TO.N,GP28*%
X80760700Y-141344700D03*
%TO.N,GP11*%
X119250700Y-171748000D03*
%TD*%
D18*
%TO.N,GND*%
X192608700Y-124095900D02*
X189908900Y-121396100D01*
X146659200Y-138075700D02*
X165512400Y-138075700D01*
X30048200Y-137120500D02*
X32844200Y-137120500D01*
X40124100Y-134311300D02*
X41723300Y-132712100D01*
X145896400Y-138838500D02*
X146659200Y-138075700D01*
X34584600Y-142146700D02*
X32389000Y-142146700D01*
X35653400Y-134311300D02*
X40124100Y-134311300D01*
X189908900Y-121396100D02*
X179276800Y-121396100D01*
X95190100Y-139372000D02*
X95723600Y-138838500D01*
X81725800Y-123841700D02*
X64788800Y-123841700D01*
X58188700Y-139372000D02*
X55974900Y-137158200D01*
X32389000Y-142146700D02*
X29261700Y-139019400D01*
X29261700Y-139019400D02*
X29261700Y-137907000D01*
X43443800Y-132712100D02*
X47889900Y-137158200D01*
X201221000Y-126172000D02*
X199144900Y-124095900D01*
X41723300Y-132712100D02*
X43443800Y-132712100D01*
X64788800Y-123841700D02*
X62343200Y-121396100D01*
X199144900Y-124095900D02*
X192608700Y-124095900D01*
X32844200Y-137120500D02*
X35653400Y-134311300D01*
X29261700Y-137907000D02*
X30048200Y-137120500D01*
X47889900Y-137158200D02*
X55974900Y-137158200D01*
X74811300Y-139372000D02*
X95190100Y-139372000D01*
X74811300Y-139372000D02*
X58188700Y-139372000D01*
X165512400Y-138075700D02*
X166808700Y-139372000D01*
%TO.N,GP26*%
X64342500Y-125292100D02*
X105703600Y-125292100D01*
X38001400Y-124071100D02*
X63121500Y-124071100D01*
X63121500Y-124071100D02*
X64342500Y-125292100D01*
X36418800Y-122488500D02*
X38001400Y-124071100D01*
%TO.N,GP13*%
X60941600Y-137682400D02*
X58488300Y-135229100D01*
X115890000Y-155205600D02*
X114917700Y-154233300D01*
X83400300Y-137484800D02*
X83202700Y-137682400D01*
X54016700Y-135229100D02*
X52125700Y-133338100D01*
X114917700Y-154233300D02*
X114917700Y-144657400D01*
X113825900Y-143565600D02*
X102584100Y-143565600D01*
X83202700Y-137682400D02*
X60941600Y-137682400D01*
X96503300Y-137484800D02*
X83400300Y-137484800D01*
X102584100Y-143565600D02*
X96503300Y-137484800D01*
X58488300Y-135229100D02*
X54016700Y-135229100D01*
X114917700Y-144657400D02*
X113825900Y-143565600D01*
%TO.N,GP27*%
X99706800Y-122470400D02*
X67860000Y-122470400D01*
X67860000Y-122470400D02*
X64968500Y-119578900D01*
X60496900Y-119578900D02*
X58494000Y-117576000D01*
X64968500Y-119578900D02*
X60496900Y-119578900D01*
%TO.N,GP14*%
X113350000Y-154995600D02*
X91732200Y-154995600D01*
X89485400Y-152748800D02*
X78865600Y-152748800D01*
X91732200Y-154995600D02*
X89485400Y-152748800D01*
%TO.N,GP28*%
X100514000Y-144835600D02*
X97023100Y-141344700D01*
X113350000Y-144835600D02*
X100514000Y-144835600D01*
X97023100Y-141344700D02*
X80760700Y-141344700D01*
%TO.N,GP15*%
X87639300Y-150038700D02*
X84697900Y-150038700D01*
X113350000Y-152455600D02*
X113109100Y-152696500D01*
X113109100Y-152696500D02*
X90297100Y-152696500D01*
X90297100Y-152696500D02*
X87639300Y-150038700D01*
%TO.N,GP29*%
X95553500Y-134759200D02*
X92150200Y-134759200D01*
X113350000Y-142295600D02*
X103089900Y-142295600D01*
X103089900Y-142295600D02*
X95553500Y-134759200D01*
%TO.N,GP11*%
X105222900Y-171748000D02*
X119250700Y-171748000D01*
X92196700Y-184774200D02*
X105222900Y-171748000D01*
X87600600Y-184774200D02*
X92196700Y-184774200D01*
%TO.N,GP7*%
X188407400Y-137719700D02*
X196137200Y-137719700D01*
X196137200Y-137719700D02*
X200300900Y-141883400D01*
X128590000Y-152455600D02*
X142100500Y-152455600D01*
X200300900Y-141883400D02*
X201618700Y-141883400D01*
X142100500Y-152455600D02*
X148032200Y-146523900D01*
X153397500Y-146523900D02*
X158558100Y-141363300D01*
X158558100Y-141363300D02*
X184763800Y-141363300D01*
X184763800Y-141363300D02*
X188407400Y-137719700D01*
X148032200Y-146523900D02*
X153397500Y-146523900D01*
%TO.N,GP3*%
X163168300Y-131692400D02*
X164261400Y-130599300D01*
X164261400Y-130599300D02*
X168393100Y-130599300D01*
X168393100Y-130599300D02*
X170577900Y-128414500D01*
X170577900Y-128414500D02*
X187567500Y-128414500D01*
X128590000Y-142295600D02*
X135195700Y-142295600D01*
X140819500Y-136671800D02*
X156798400Y-136671800D01*
X187567500Y-128414500D02*
X190073300Y-125908700D01*
X135195700Y-142295600D02*
X140819500Y-136671800D01*
X156798400Y-136671800D02*
X161777800Y-131692400D01*
X190073300Y-125908700D02*
X195804300Y-125908700D01*
X161777800Y-131692400D02*
X163168300Y-131692400D01*
%TO.N,GP6*%
X144187400Y-145702000D02*
X139973800Y-149915600D01*
X139973800Y-149915600D02*
X128590000Y-149915600D01*
X153073100Y-140855200D02*
X151042500Y-142885800D01*
X180222500Y-137084100D02*
X176451400Y-140855200D01*
X151042500Y-143599900D02*
X148940400Y-145702000D01*
X176451400Y-140855200D02*
X153073100Y-140855200D01*
X151042500Y-142885800D02*
X151042500Y-143599900D01*
X148940400Y-145702000D02*
X144187400Y-145702000D01*
%TO.N,GP2*%
X128590000Y-139755600D02*
X137061900Y-139755600D01*
X137061900Y-139755600D02*
X140756400Y-136061100D01*
X165513400Y-121322000D02*
X173854200Y-121322000D01*
X150774300Y-136061100D02*
X165513400Y-121322000D01*
X140756400Y-136061100D02*
X150774300Y-136061100D01*
%TO.N,GP5*%
X149197100Y-139487300D02*
X161386900Y-139487300D01*
X128590000Y-147375600D02*
X141308800Y-147375600D01*
X141308800Y-147375600D02*
X149197100Y-139487300D01*
%TO.N,GP1*%
X146354300Y-131244500D02*
X147662000Y-132552200D01*
X128590000Y-137215600D02*
X134608700Y-137215600D01*
X146354300Y-131244400D02*
X146354300Y-131244500D01*
X140579900Y-131244400D02*
X146354300Y-131244400D01*
X147662000Y-132552200D02*
X148844900Y-132552200D01*
X148844900Y-132552200D02*
X154472400Y-126924700D01*
X134608700Y-137215600D02*
X140579900Y-131244400D01*
X154472400Y-126924700D02*
X154472400Y-123957000D01*
%TD*%
M02*
