%TF.GenerationSoftware,KiCad,Pcbnew,9.0.0*%
%TF.CreationDate,2025-02-21T22:06:12+01:00*%
%TF.ProjectId,chouchou_mini_choc,63686f75-6368-46f7-955f-6d696e695f63,v1.0.0*%
%TF.SameCoordinates,Original*%
%TF.FileFunction,Paste,Bot*%
%TF.FilePolarity,Positive*%
%FSLAX46Y46*%
G04 Gerber Fmt 4.6, Leading zero omitted, Abs format (unit mm)*
G04 Created by KiCad (PCBNEW 9.0.0) date 2025-02-21 22:06:12*
%MOMM*%
%LPD*%
G01*
G04 APERTURE LIST*
G04 Aperture macros list*
%AMRotRect*
0 Rectangle, with rotation*
0 The origin of the aperture is its center*
0 $1 length*
0 $2 width*
0 $3 Rotation angle, in degrees counterclockwise*
0 Add horizontal line*
21,1,$1,$2,0,0,$3*%
G04 Aperture macros list end*
%ADD10RotRect,2.600000X2.600000X22.000000*%
%ADD11RotRect,2.600000X2.600000X336.000000*%
%ADD12RotRect,2.600000X2.600000X67.000000*%
%ADD13RotRect,2.600000X2.600000X334.000000*%
%ADD14RotRect,2.600000X2.600000X20.000000*%
%ADD15RotRect,2.600000X2.600000X24.000000*%
%ADD16RotRect,2.600000X2.600000X26.000000*%
%ADD17RotRect,2.600000X2.600000X293.000000*%
%ADD18RotRect,2.600000X2.600000X340.000000*%
%ADD19RotRect,2.600000X2.600000X338.000000*%
G04 APERTURE END LIST*
D10*
%TO.C,S13*%
X178169464Y-127397893D03*
X189702572Y-125110991D03*
%TD*%
D11*
%TO.C,S6*%
X83553722Y-111684142D03*
X93210351Y-118391750D03*
%TD*%
%TO.C,S5*%
X76639222Y-127214442D03*
X86295851Y-133922050D03*
%TD*%
D12*
%TO.C,S9*%
X79299652Y-179376703D03*
X85837707Y-169604481D03*
%TD*%
D13*
%TO.C,S7*%
X90522458Y-142031610D03*
X99939113Y-149072144D03*
%TD*%
D14*
%TO.C,S11*%
X199904987Y-132131445D03*
X211510881Y-130248436D03*
%TD*%
D12*
%TO.C,S10*%
X95868652Y-186409903D03*
X102406707Y-176637681D03*
%TD*%
D15*
%TO.C,S16*%
X152082556Y-114348267D03*
X163528826Y-111660259D03*
%TD*%
D16*
%TO.C,S18*%
X137758141Y-129623441D03*
X149103629Y-126537601D03*
%TD*%
D13*
%TO.C,S8*%
X97974758Y-126752110D03*
X107391413Y-133792644D03*
%TD*%
D17*
%TO.C,S19*%
X159761159Y-173347395D03*
X162248993Y-184838836D03*
%TD*%
D14*
%TO.C,S12*%
X194090587Y-116156745D03*
X205696481Y-114273736D03*
%TD*%
D18*
%TO.C,S2*%
X41374427Y-113916513D03*
X51475432Y-119934169D03*
%TD*%
D16*
%TO.C,S17*%
X145210441Y-144902941D03*
X156555929Y-141817101D03*
%TD*%
D17*
%TO.C,S20*%
X143192059Y-180380595D03*
X145679893Y-191872036D03*
%TD*%
D19*
%TO.C,S3*%
X57377482Y-124944219D03*
X67262321Y-131310730D03*
%TD*%
D15*
%TO.C,S15*%
X158997056Y-129878567D03*
X170443326Y-127190559D03*
%TD*%
D19*
%TO.C,S4*%
X63745782Y-109182119D03*
X73630621Y-115548630D03*
%TD*%
D10*
%TO.C,S14*%
X171801164Y-111635793D03*
X183334272Y-109348891D03*
%TD*%
D18*
%TO.C,S1*%
X35560027Y-129891213D03*
X45661032Y-135908869D03*
%TD*%
M02*
