%TF.GenerationSoftware,KiCad,Pcbnew,9.0.0*%
%TF.CreationDate,2025-02-21T22:06:12+01:00*%
%TF.ProjectId,chouchou_mini_choc,63686f75-6368-46f7-955f-6d696e695f63,v1.0.0*%
%TF.SameCoordinates,Original*%
%TF.FileFunction,Soldermask,Top*%
%TF.FilePolarity,Negative*%
%FSLAX46Y46*%
G04 Gerber Fmt 4.6, Leading zero omitted, Abs format (unit mm)*
G04 Created by KiCad (PCBNEW 9.0.0) date 2025-02-21 22:06:12*
%MOMM*%
%LPD*%
G01*
G04 APERTURE LIST*
G04 Aperture macros list*
%AMRoundRect*
0 Rectangle with rounded corners*
0 $1 Rounding radius*
0 $2 $3 $4 $5 $6 $7 $8 $9 X,Y pos of 4 corners*
0 Add a 4 corners polygon primitive as box body*
4,1,4,$2,$3,$4,$5,$6,$7,$8,$9,$2,$3,0*
0 Add four circle primitives for the rounded corners*
1,1,$1+$1,$2,$3*
1,1,$1+$1,$4,$5*
1,1,$1+$1,$6,$7*
1,1,$1+$1,$8,$9*
0 Add four rect primitives between the rounded corners*
20,1,$1+$1,$2,$3,$4,$5,0*
20,1,$1+$1,$4,$5,$6,$7,0*
20,1,$1+$1,$6,$7,$8,$9,0*
20,1,$1+$1,$8,$9,$2,$3,0*%
G04 Aperture macros list end*
%ADD10C,1.801800*%
%ADD11C,3.100000*%
%ADD12C,3.529000*%
%ADD13C,2.132000*%
%ADD14C,0.800000*%
%ADD15C,4.500000*%
%ADD16RoundRect,0.425000X-0.925000X-0.425000X0.925000X-0.425000X0.925000X0.425000X-0.925000X0.425000X0*%
%ADD17RoundRect,0.425050X-0.924950X-0.425050X0.924950X-0.425050X0.924950X0.425050X-0.924950X0.425050X0*%
%ADD18RoundRect,0.425000X-0.425000X-0.925000X0.425000X-0.925000X0.425000X0.925000X-0.425000X0.925000X0*%
%ADD19RoundRect,0.418700X-0.418700X-0.931300X0.418700X-0.931300X0.418700X0.931300X-0.418700X0.931300X0*%
G04 APERTURE END LIST*
D10*
%TO.C,S13*%
X178335389Y-133748136D03*
D11*
X181205991Y-126171056D03*
D12*
X183434900Y-131687800D03*
D11*
X186666045Y-126337829D03*
D10*
X188534411Y-129627464D03*
%TD*%
%TO.C,S23*%
X63284611Y-133748136D03*
D12*
X58185100Y-131687800D03*
D10*
X53085589Y-129627464D03*
D13*
X52125676Y-133338066D03*
X55974921Y-137158185D03*
%TD*%
D10*
%TO.C,S22*%
X47585209Y-122508911D03*
D12*
X42416900Y-120627800D03*
D10*
X37248591Y-118746689D03*
D13*
X36418760Y-122488531D03*
X40398981Y-126171986D03*
%TD*%
D10*
%TO.C,S6*%
X79101000Y-116214748D03*
D11*
X86545583Y-113016205D03*
D12*
X84125500Y-118451800D03*
D11*
X90218490Y-117059688D03*
D10*
X89150000Y-120688852D03*
%TD*%
%TO.C,S5*%
X72186500Y-131745048D03*
D11*
X79631083Y-128546505D03*
D12*
X77211000Y-133982100D03*
D11*
X83303990Y-132589988D03*
D10*
X82235500Y-136219152D03*
%TD*%
%TO.C,S21*%
X41770809Y-138483611D03*
D12*
X36602500Y-136602500D03*
D10*
X31434191Y-134721389D03*
D13*
X30604360Y-138463231D03*
X34584581Y-142146686D03*
%TD*%
D10*
%TO.C,S34*%
X182166111Y-113865364D03*
D12*
X177066600Y-115925700D03*
D10*
X171967089Y-117986036D03*
D13*
X173854186Y-121322032D03*
X179276779Y-121396085D03*
%TD*%
D10*
%TO.C,S9*%
X83907279Y-183749677D03*
D11*
X80579296Y-176362050D03*
D12*
X86056300Y-178686900D03*
D11*
X84558062Y-172619134D03*
D10*
X88205321Y-173624123D03*
%TD*%
%TO.C,S7*%
X85914333Y-146404059D03*
D11*
X93466008Y-143467275D03*
D12*
X90857700Y-148815100D03*
D11*
X96995562Y-147636478D03*
D10*
X95801067Y-151226141D03*
%TD*%
%TO.C,S11*%
X199849191Y-138483611D03*
D11*
X202982480Y-131011329D03*
D12*
X205017500Y-136602500D03*
D11*
X208433388Y-131368552D03*
D10*
X210185809Y-134721389D03*
%TD*%
%TO.C,S10*%
X100476279Y-190782877D03*
D11*
X97148296Y-183395250D03*
D12*
X102625300Y-185720100D03*
D11*
X101127062Y-179652334D03*
D10*
X104774321Y-180657323D03*
%TD*%
%TO.C,S16*%
X152470000Y-120688852D03*
D11*
X155074417Y-113016205D03*
D12*
X157494500Y-118451800D03*
D11*
X160536965Y-112992321D03*
D10*
X162519000Y-116214748D03*
%TD*%
%TO.C,S18*%
X138366633Y-135946641D03*
D11*
X140701692Y-128187775D03*
D12*
X143310000Y-133535600D03*
D11*
X146160078Y-127973267D03*
D10*
X148253367Y-131124559D03*
%TD*%
%TO.C,S25*%
X82235500Y-136219152D03*
D12*
X77211000Y-133982100D03*
D10*
X72186500Y-131745048D03*
D13*
X71097673Y-135419890D03*
X74811254Y-139372018D03*
%TD*%
D10*
%TO.C,S35*%
X169433500Y-131745048D03*
D12*
X164409000Y-133982100D03*
D10*
X159384500Y-136219152D03*
D13*
X161386872Y-139487256D03*
X166808746Y-139372018D03*
%TD*%
D10*
%TO.C,S8*%
X93366633Y-131124559D03*
D11*
X100918308Y-128187775D03*
D12*
X98310000Y-133535600D03*
D11*
X104447862Y-132356978D03*
D10*
X103253367Y-135946641D03*
%TD*%
%TO.C,S38*%
X148253367Y-131124559D03*
D12*
X143310000Y-133535600D03*
D10*
X138366633Y-135946641D03*
D13*
X140481840Y-139142873D03*
X145896390Y-138838485D03*
%TD*%
D10*
%TO.C,S26*%
X89150000Y-120688852D03*
D12*
X84125500Y-118451800D03*
D10*
X79101000Y-116214748D03*
D13*
X78012173Y-119889590D03*
X81725754Y-123841718D03*
%TD*%
D10*
%TO.C,S19*%
X153414779Y-173624123D03*
D11*
X161040804Y-176362050D03*
D12*
X155563800Y-178686900D03*
D11*
X160969349Y-181824183D03*
D10*
X157712821Y-183749677D03*
%TD*%
%TO.C,S12*%
X194034791Y-122508911D03*
D11*
X197168080Y-115036629D03*
D12*
X199203100Y-120627800D03*
D11*
X202618988Y-115393852D03*
D10*
X204371409Y-118746689D03*
%TD*%
%TO.C,S39*%
X157712821Y-183749677D03*
D12*
X155563800Y-178686900D03*
D10*
X153414779Y-173624123D03*
D13*
X150112226Y-175569154D03*
X150132821Y-180992214D03*
%TD*%
D10*
%TO.C,S28*%
X103253367Y-135946641D03*
D12*
X98310000Y-133535600D03*
D10*
X93366633Y-131124559D03*
D13*
X92150219Y-134759163D03*
X95723610Y-138838485D03*
%TD*%
D10*
%TO.C,S2*%
X37248591Y-118746689D03*
D11*
X44451920Y-115036629D03*
D12*
X42416900Y-120627800D03*
D11*
X48397939Y-118814053D03*
D10*
X47585209Y-122508911D03*
%TD*%
%TO.C,S40*%
X141143721Y-190782877D03*
D12*
X138994700Y-185720100D03*
D10*
X136845679Y-180657323D03*
D13*
X133543126Y-182602354D03*
X133563721Y-188025414D03*
%TD*%
D10*
%TO.C,S36*%
X162519000Y-116214748D03*
D12*
X157494500Y-118451800D03*
D10*
X152470000Y-120688852D03*
D13*
X154472372Y-123956956D03*
X159894246Y-123841718D03*
%TD*%
D10*
%TO.C,S17*%
X145818933Y-151226141D03*
D11*
X148153992Y-143467275D03*
D12*
X150762300Y-148815100D03*
D11*
X153612378Y-143252767D03*
D10*
X155705667Y-146404059D03*
%TD*%
D14*
%TO.C,_6*%
X144251190Y-119725312D03*
X144174095Y-118464814D03*
X145197014Y-120562105D03*
X145010888Y-117518990D03*
D15*
X145734200Y-119002000D03*
D14*
X146457512Y-120485010D03*
X146271386Y-117441895D03*
X147294305Y-119539186D03*
X147217210Y-118278688D03*
%TD*%
%TO.C,_2*%
X187846307Y-112523233D03*
X187901392Y-111261580D03*
X188699480Y-113454308D03*
X188832467Y-110408407D03*
D15*
X189396800Y-111958900D03*
D14*
X189961133Y-113509393D03*
X190094120Y-110463492D03*
X190892208Y-112656220D03*
X190947293Y-111394567D03*
%TD*%
D10*
%TO.C,S37*%
X155705667Y-146404059D03*
D12*
X150762300Y-148815100D03*
D10*
X145818933Y-151226141D03*
D13*
X147934140Y-154422373D03*
X153348690Y-154117985D03*
%TD*%
D10*
%TO.C,S20*%
X136845679Y-180657323D03*
D11*
X144471704Y-183395250D03*
D12*
X138994700Y-185720100D03*
D11*
X144400249Y-188857383D03*
D10*
X141143721Y-190782877D03*
%TD*%
D14*
%TO.C,_5*%
X94402790Y-118278688D03*
X94325695Y-119539186D03*
X95348614Y-117441895D03*
X96609112Y-117518990D03*
D15*
X95885800Y-119002000D03*
D14*
X95162488Y-120485010D03*
X96422986Y-120562105D03*
X97445905Y-118464814D03*
X97368810Y-119725312D03*
%TD*%
%TO.C,_3*%
X71026150Y-143816785D03*
X71942193Y-142947493D03*
X70993093Y-145079207D03*
X73204615Y-142980550D03*
D15*
X72533500Y-144487900D03*
D14*
X71862385Y-145995250D03*
X74073907Y-143896593D03*
X73124807Y-146028307D03*
X74040850Y-145159015D03*
%TD*%
D10*
%TO.C,S3*%
X53085589Y-129627464D03*
D11*
X60414009Y-126171056D03*
D12*
X58185100Y-131687800D03*
D11*
X64225794Y-130083894D03*
D10*
X63284611Y-133748136D03*
%TD*%
%TO.C,S29*%
X88205321Y-173624123D03*
D12*
X86056300Y-178686900D03*
D10*
X83907279Y-183749677D03*
D13*
X87600563Y-184774203D03*
X91487279Y-180992214D03*
%TD*%
D14*
%TO.C,_7*%
X89007294Y-194768333D03*
X88122147Y-193867601D03*
X90270101Y-194779353D03*
X88133167Y-192604794D03*
D15*
X89652000Y-193249500D03*
D14*
X91170833Y-193894206D03*
X89033899Y-191719647D03*
X91181853Y-192631399D03*
X90296706Y-191730667D03*
%TD*%
D16*
%TO.C,RP2040Zero1*%
X129190000Y-134675600D03*
X129190000Y-134675600D03*
X129190000Y-137215600D03*
X129190000Y-137215600D03*
X129190000Y-139755600D03*
X129190000Y-139755600D03*
X129190000Y-142295600D03*
X129190000Y-142295600D03*
X129190000Y-144835600D03*
X129190000Y-144835600D03*
D17*
X129190000Y-147375600D03*
X129190000Y-147375600D03*
X129190000Y-149915600D03*
X129190000Y-149915600D03*
X129190000Y-152455600D03*
X129190000Y-152455600D03*
X129190000Y-154995600D03*
X129190000Y-154995600D03*
D18*
X126050000Y-155805600D03*
X126050000Y-155805600D03*
D19*
X123510000Y-155805600D03*
X123510000Y-155805600D03*
X120970000Y-155805600D03*
X120970000Y-155805600D03*
X118430000Y-155805600D03*
X118430000Y-155805600D03*
X115890000Y-155805600D03*
X115890000Y-155805600D03*
D17*
X112750000Y-154995600D03*
X112750000Y-154995600D03*
X112750000Y-152455600D03*
X112750000Y-152455600D03*
X112750000Y-149915600D03*
X112750000Y-149915600D03*
X112750000Y-147375600D03*
X112750000Y-147375600D03*
X112750000Y-134675600D03*
X112750000Y-134675600D03*
X112750000Y-137215600D03*
X112750000Y-137215600D03*
X112750000Y-139755600D03*
X112750000Y-139755600D03*
X112750000Y-144835600D03*
X112750000Y-144835600D03*
X112750000Y-142295600D03*
X112750000Y-142295600D03*
%TD*%
D10*
%TO.C,S15*%
X159384500Y-136219152D03*
D11*
X161988917Y-128546505D03*
D12*
X164409000Y-133982100D03*
D11*
X167451465Y-128522621D03*
D10*
X169433500Y-131745048D03*
%TD*%
%TO.C,S31*%
X210185809Y-134721389D03*
D12*
X205017500Y-136602500D03*
D10*
X199849191Y-138483611D03*
D13*
X201618713Y-141883433D03*
X207035419Y-142146686D03*
%TD*%
D10*
%TO.C,S4*%
X59453889Y-113865364D03*
D11*
X66782309Y-110408956D03*
D12*
X64553400Y-115925700D03*
D11*
X70594094Y-114321794D03*
D10*
X69652911Y-117986036D03*
%TD*%
%TO.C,S14*%
X171967089Y-117986036D03*
D11*
X174837691Y-110408956D03*
D12*
X177066600Y-115925700D03*
D11*
X180297745Y-110575729D03*
D10*
X182166111Y-113865364D03*
%TD*%
%TO.C,S33*%
X188534411Y-129627464D03*
D12*
X183434900Y-131687800D03*
D10*
X178335389Y-133748136D03*
D13*
X180222486Y-137084132D03*
X185645079Y-137158185D03*
%TD*%
D10*
%TO.C,S27*%
X95801067Y-151226141D03*
D12*
X90857700Y-148815100D03*
D10*
X85914333Y-146404059D03*
D13*
X84697919Y-150038663D03*
X88271310Y-154117985D03*
%TD*%
D14*
%TO.C,_8*%
X151323294Y-191730667D03*
X152586101Y-191719647D03*
X150438147Y-192631399D03*
X153486833Y-192604794D03*
D15*
X151968000Y-193249500D03*
D14*
X150449167Y-193894206D03*
X153497853Y-193867601D03*
X151349899Y-194779353D03*
X152612706Y-194768333D03*
%TD*%
D10*
%TO.C,S30*%
X104774321Y-180657323D03*
D12*
X102625300Y-185720100D03*
D10*
X100476279Y-190782877D03*
D13*
X104169563Y-191807403D03*
X108056279Y-188025414D03*
%TD*%
D10*
%TO.C,S32*%
X204371409Y-118746689D03*
D12*
X199203100Y-120627800D03*
D10*
X194034791Y-122508911D03*
D13*
X195804313Y-125908733D03*
X201221019Y-126171986D03*
%TD*%
D14*
%TO.C,_4*%
X167579150Y-145159015D03*
X167546093Y-143896593D03*
X168495193Y-146028307D03*
X168415385Y-142980550D03*
D15*
X169086500Y-144487900D03*
D14*
X169757615Y-145995250D03*
X169677807Y-142947493D03*
X170626907Y-145079207D03*
X170593850Y-143816785D03*
%TD*%
D10*
%TO.C,S24*%
X69652911Y-117986036D03*
D12*
X64553400Y-115925700D03*
D10*
X59453889Y-113865364D03*
D13*
X58493976Y-117575966D03*
X62343221Y-121396085D03*
%TD*%
D10*
%TO.C,S1*%
X31434191Y-134721389D03*
D11*
X38637520Y-131011329D03*
D12*
X36602500Y-136602500D03*
D11*
X42583539Y-134788753D03*
D10*
X41770809Y-138483611D03*
%TD*%
D14*
%TO.C,_1*%
X50672707Y-111394567D03*
X51525880Y-110463492D03*
X50727792Y-112656220D03*
X52787533Y-110408407D03*
D15*
X52223200Y-111958900D03*
D14*
X51658867Y-113509393D03*
X53718608Y-111261580D03*
X52920520Y-113454308D03*
X53773693Y-112523233D03*
%TD*%
M02*
