%TF.GenerationSoftware,KiCad,Pcbnew,9.0.0*%
%TF.CreationDate,2025-02-21T22:06:12+01:00*%
%TF.ProjectId,chouchou_mini_choc,63686f75-6368-46f7-955f-6d696e695f63,v1.0.0*%
%TF.SameCoordinates,Original*%
%TF.FileFunction,Copper,L2,Bot*%
%TF.FilePolarity,Positive*%
%FSLAX46Y46*%
G04 Gerber Fmt 4.6, Leading zero omitted, Abs format (unit mm)*
G04 Created by KiCad (PCBNEW 9.0.0) date 2025-02-21 22:06:12*
%MOMM*%
%LPD*%
G01*
G04 APERTURE LIST*
G04 Aperture macros list*
%AMRoundRect*
0 Rectangle with rounded corners*
0 $1 Rounding radius*
0 $2 $3 $4 $5 $6 $7 $8 $9 X,Y pos of 4 corners*
0 Add a 4 corners polygon primitive as box body*
4,1,4,$2,$3,$4,$5,$6,$7,$8,$9,$2,$3,0*
0 Add four circle primitives for the rounded corners*
1,1,$1+$1,$2,$3*
1,1,$1+$1,$4,$5*
1,1,$1+$1,$6,$7*
1,1,$1+$1,$8,$9*
0 Add four rect primitives between the rounded corners*
20,1,$1+$1,$2,$3,$4,$5,0*
20,1,$1+$1,$4,$5,$6,$7,0*
20,1,$1+$1,$6,$7,$8,$9,0*
20,1,$1+$1,$8,$9,$2,$3,0*%
%AMRotRect*
0 Rectangle, with rotation*
0 The origin of the aperture is its center*
0 $1 length*
0 $2 width*
0 $3 Rotation angle, in degrees counterclockwise*
0 Add horizontal line*
21,1,$1,$2,0,0,$3*%
G04 Aperture macros list end*
%TA.AperFunction,SMDPad,CuDef*%
%ADD10RotRect,2.600000X2.600000X22.000000*%
%TD*%
%TA.AperFunction,ComponentPad*%
%ADD11C,2.032000*%
%TD*%
%TA.AperFunction,SMDPad,CuDef*%
%ADD12RotRect,2.600000X2.600000X336.000000*%
%TD*%
%TA.AperFunction,SMDPad,CuDef*%
%ADD13RotRect,2.600000X2.600000X67.000000*%
%TD*%
%TA.AperFunction,SMDPad,CuDef*%
%ADD14RotRect,2.600000X2.600000X334.000000*%
%TD*%
%TA.AperFunction,SMDPad,CuDef*%
%ADD15RotRect,2.600000X2.600000X20.000000*%
%TD*%
%TA.AperFunction,SMDPad,CuDef*%
%ADD16RotRect,2.600000X2.600000X24.000000*%
%TD*%
%TA.AperFunction,SMDPad,CuDef*%
%ADD17RotRect,2.600000X2.600000X26.000000*%
%TD*%
%TA.AperFunction,SMDPad,CuDef*%
%ADD18RotRect,2.600000X2.600000X293.000000*%
%TD*%
%TA.AperFunction,SMDPad,CuDef*%
%ADD19RotRect,2.600000X2.600000X340.000000*%
%TD*%
%TA.AperFunction,ComponentPad*%
%ADD20C,0.700000*%
%TD*%
%TA.AperFunction,ComponentPad*%
%ADD21C,4.400000*%
%TD*%
%TA.AperFunction,SMDPad,CuDef*%
%ADD22RotRect,2.600000X2.600000X338.000000*%
%TD*%
%TA.AperFunction,ComponentPad*%
%ADD23RoundRect,0.400000X-0.900000X-0.400000X0.900000X-0.400000X0.900000X0.400000X-0.900000X0.400000X0*%
%TD*%
%TA.AperFunction,ComponentPad*%
%ADD24RoundRect,0.400050X-0.899950X-0.400050X0.899950X-0.400050X0.899950X0.400050X-0.899950X0.400050X0*%
%TD*%
%TA.AperFunction,ComponentPad*%
%ADD25RoundRect,0.400000X-0.400000X-0.900000X0.400000X-0.900000X0.400000X0.900000X-0.400000X0.900000X0*%
%TD*%
%TA.AperFunction,ComponentPad*%
%ADD26RoundRect,0.393700X-0.393700X-0.906300X0.393700X-0.906300X0.393700X0.906300X-0.393700X0.906300X0*%
%TD*%
%TA.AperFunction,ViaPad*%
%ADD27C,0.800000*%
%TD*%
%TA.AperFunction,Conductor*%
%ADD28C,0.250000*%
%TD*%
G04 APERTURE END LIST*
D10*
%TO.P,S13,1*%
%TO.N,GP6*%
X178169464Y-127397893D03*
%TO.P,S13,2*%
%TO.N,GND*%
X189702572Y-125110991D03*
%TD*%
D11*
%TO.P,S23,1*%
%TO.N,GP13*%
X52125676Y-133338066D03*
%TO.P,S23,2*%
%TO.N,GND*%
X55974921Y-137158185D03*
%TD*%
%TO.P,S22,1*%
%TO.N,GP26*%
X36418760Y-122488531D03*
%TO.P,S22,2*%
%TO.N,GND*%
X40398981Y-126171986D03*
%TD*%
D12*
%TO.P,S6,1*%
%TO.N,GP28*%
X83553722Y-111684142D03*
%TO.P,S6,2*%
%TO.N,GND*%
X93210351Y-118391750D03*
%TD*%
%TO.P,S5,1*%
%TO.N,GP14*%
X76639222Y-127214442D03*
%TO.P,S5,2*%
%TO.N,GND*%
X86295851Y-133922050D03*
%TD*%
D11*
%TO.P,S21,1*%
%TO.N,GP12*%
X30604360Y-138463231D03*
%TO.P,S21,2*%
%TO.N,GND*%
X34584581Y-142146686D03*
%TD*%
%TO.P,S34,1*%
%TO.N,GP2*%
X173854186Y-121322032D03*
%TO.P,S34,2*%
%TO.N,GND*%
X179276779Y-121396085D03*
%TD*%
D13*
%TO.P,S9,1*%
%TO.N,GP11*%
X79299652Y-179376703D03*
%TO.P,S9,2*%
%TO.N,GND*%
X85837707Y-169604481D03*
%TD*%
D14*
%TO.P,S7,1*%
%TO.N,GP15*%
X90522458Y-142031610D03*
%TO.P,S7,2*%
%TO.N,GND*%
X99939113Y-149072144D03*
%TD*%
D15*
%TO.P,S11,1*%
%TO.N,GP7*%
X199904987Y-132131445D03*
%TO.P,S11,2*%
%TO.N,GND*%
X211510881Y-130248436D03*
%TD*%
D13*
%TO.P,S10,1*%
%TO.N,GP10*%
X95868652Y-186409903D03*
%TO.P,S10,2*%
%TO.N,GND*%
X102406707Y-176637681D03*
%TD*%
D16*
%TO.P,S16,1*%
%TO.N,GP1*%
X152082556Y-114348267D03*
%TO.P,S16,2*%
%TO.N,GND*%
X163528826Y-111660259D03*
%TD*%
D17*
%TO.P,S18,1*%
%TO.N,GP0*%
X137758141Y-129623441D03*
%TO.P,S18,2*%
%TO.N,GND*%
X149103629Y-126537601D03*
%TD*%
D11*
%TO.P,S25,1*%
%TO.N,GP14*%
X71097673Y-135419890D03*
%TO.P,S25,2*%
%TO.N,GND*%
X74811254Y-139372018D03*
%TD*%
%TO.P,S35,1*%
%TO.N,GP5*%
X161386872Y-139487256D03*
%TO.P,S35,2*%
%TO.N,GND*%
X166808746Y-139372018D03*
%TD*%
D14*
%TO.P,S8,1*%
%TO.N,GP29*%
X97974758Y-126752110D03*
%TO.P,S8,2*%
%TO.N,GND*%
X107391413Y-133792644D03*
%TD*%
D11*
%TO.P,S38,1*%
%TO.N,GP0*%
X140481840Y-139142873D03*
%TO.P,S38,2*%
%TO.N,GND*%
X145896390Y-138838485D03*
%TD*%
%TO.P,S26,1*%
%TO.N,GP28*%
X78012173Y-119889590D03*
%TO.P,S26,2*%
%TO.N,GND*%
X81725754Y-123841718D03*
%TD*%
D18*
%TO.P,S19,1*%
%TO.N,GP8*%
X159761159Y-173347395D03*
%TO.P,S19,2*%
%TO.N,GND*%
X162248993Y-184838836D03*
%TD*%
D15*
%TO.P,S12,1*%
%TO.N,GP3*%
X194090587Y-116156745D03*
%TO.P,S12,2*%
%TO.N,GND*%
X205696481Y-114273736D03*
%TD*%
D11*
%TO.P,S39,1*%
%TO.N,GP8*%
X150112226Y-175569154D03*
%TO.P,S39,2*%
%TO.N,GND*%
X150132821Y-180992214D03*
%TD*%
%TO.P,S28,1*%
%TO.N,GP29*%
X92150219Y-134759163D03*
%TO.P,S28,2*%
%TO.N,GND*%
X95723610Y-138838485D03*
%TD*%
D19*
%TO.P,S2,1*%
%TO.N,GP26*%
X41374427Y-113916513D03*
%TO.P,S2,2*%
%TO.N,GND*%
X51475432Y-119934169D03*
%TD*%
D11*
%TO.P,S40,1*%
%TO.N,GP9*%
X133543126Y-182602354D03*
%TO.P,S40,2*%
%TO.N,GND*%
X133563721Y-188025414D03*
%TD*%
%TO.P,S36,1*%
%TO.N,GP1*%
X154472372Y-123956956D03*
%TO.P,S36,2*%
%TO.N,GND*%
X159894246Y-123841718D03*
%TD*%
D17*
%TO.P,S17,1*%
%TO.N,GP4*%
X145210441Y-144902941D03*
%TO.P,S17,2*%
%TO.N,GND*%
X156555929Y-141817101D03*
%TD*%
D20*
%TO.P,_6,1*%
%TO.N,N/C*%
X144251190Y-119725312D03*
X144174095Y-118464814D03*
X145197014Y-120562105D03*
X145010888Y-117518990D03*
D21*
X145734200Y-119002000D03*
D20*
X146457512Y-120485010D03*
X146271386Y-117441895D03*
X147294305Y-119539186D03*
X147217210Y-118278688D03*
%TD*%
%TO.P,_2,1*%
%TO.N,N/C*%
X187846307Y-112523233D03*
X187901392Y-111261580D03*
X188699480Y-113454308D03*
X188832467Y-110408407D03*
D21*
X189396800Y-111958900D03*
D20*
X189961133Y-113509393D03*
X190094120Y-110463492D03*
X190892208Y-112656220D03*
X190947293Y-111394567D03*
%TD*%
D11*
%TO.P,S37,1*%
%TO.N,GP4*%
X147934140Y-154422373D03*
%TO.P,S37,2*%
%TO.N,GND*%
X153348690Y-154117985D03*
%TD*%
D18*
%TO.P,S20,1*%
%TO.N,GP9*%
X143192059Y-180380595D03*
%TO.P,S20,2*%
%TO.N,GND*%
X145679893Y-191872036D03*
%TD*%
D20*
%TO.P,_5,1*%
%TO.N,N/C*%
X94402790Y-118278688D03*
X94325695Y-119539186D03*
X95348614Y-117441895D03*
X96609112Y-117518990D03*
D21*
X95885800Y-119002000D03*
D20*
X95162488Y-120485010D03*
X96422986Y-120562105D03*
X97445905Y-118464814D03*
X97368810Y-119725312D03*
%TD*%
%TO.P,_3,1*%
%TO.N,N/C*%
X71026150Y-143816785D03*
X71942193Y-142947493D03*
X70993093Y-145079207D03*
X73204615Y-142980550D03*
D21*
X72533500Y-144487900D03*
D20*
X71862385Y-145995250D03*
X74073907Y-143896593D03*
X73124807Y-146028307D03*
X74040850Y-145159015D03*
%TD*%
D22*
%TO.P,S3,1*%
%TO.N,GP13*%
X57377482Y-124944219D03*
%TO.P,S3,2*%
%TO.N,GND*%
X67262321Y-131310730D03*
%TD*%
D11*
%TO.P,S29,1*%
%TO.N,GP11*%
X87600563Y-184774203D03*
%TO.P,S29,2*%
%TO.N,GND*%
X91487279Y-180992214D03*
%TD*%
D20*
%TO.P,_7,1*%
%TO.N,N/C*%
X89007294Y-194768333D03*
X88122147Y-193867601D03*
X90270101Y-194779353D03*
X88133167Y-192604794D03*
D21*
X89652000Y-193249500D03*
D20*
X91170833Y-193894206D03*
X89033899Y-191719647D03*
X91181853Y-192631399D03*
X90296706Y-191730667D03*
%TD*%
D23*
%TO.P,RP2040Zero1,1*%
%TO.N,GP0*%
X129190000Y-134675600D03*
X129190000Y-134675600D03*
%TO.P,RP2040Zero1,2*%
%TO.N,GP1*%
X129190000Y-137215600D03*
X129190000Y-137215600D03*
%TO.P,RP2040Zero1,3*%
%TO.N,GP2*%
X129190000Y-139755600D03*
X129190000Y-139755600D03*
%TO.P,RP2040Zero1,4*%
%TO.N,GP3*%
X129190000Y-142295600D03*
X129190000Y-142295600D03*
%TO.P,RP2040Zero1,5*%
%TO.N,GP4*%
X129190000Y-144835600D03*
X129190000Y-144835600D03*
D24*
%TO.P,RP2040Zero1,6*%
%TO.N,GP5*%
X129190000Y-147375600D03*
X129190000Y-147375600D03*
%TO.P,RP2040Zero1,7*%
%TO.N,GP6*%
X129190000Y-149915600D03*
X129190000Y-149915600D03*
%TO.P,RP2040Zero1,8*%
%TO.N,GP7*%
X129190000Y-152455600D03*
X129190000Y-152455600D03*
%TO.P,RP2040Zero1,9*%
%TO.N,GP8*%
X129190000Y-154995600D03*
X129190000Y-154995600D03*
D25*
%TO.P,RP2040Zero1,10*%
%TO.N,GP9*%
X126050000Y-155805600D03*
X126050000Y-155805600D03*
D26*
%TO.P,RP2040Zero1,11*%
%TO.N,GP10*%
X123510000Y-155805600D03*
X123510000Y-155805600D03*
%TO.P,RP2040Zero1,12*%
%TO.N,GP11*%
X120970000Y-155805600D03*
X120970000Y-155805600D03*
%TO.P,RP2040Zero1,13*%
%TO.N,GP12*%
X118430000Y-155805600D03*
X118430000Y-155805600D03*
%TO.P,RP2040Zero1,14*%
%TO.N,GP13*%
X115890000Y-155805600D03*
X115890000Y-155805600D03*
D24*
%TO.P,RP2040Zero1,15*%
%TO.N,GP14*%
X112750000Y-154995600D03*
X112750000Y-154995600D03*
%TO.P,RP2040Zero1,16*%
%TO.N,GP15*%
X112750000Y-152455600D03*
X112750000Y-152455600D03*
%TO.P,RP2040Zero1,17*%
%TO.N,GP26*%
X112750000Y-149915600D03*
X112750000Y-149915600D03*
%TO.P,RP2040Zero1,18*%
%TO.N,GP27*%
X112750000Y-147375600D03*
X112750000Y-147375600D03*
%TO.P,RP2040Zero1,19*%
%TO.N,P5V*%
X112750000Y-134675600D03*
X112750000Y-134675600D03*
%TO.P,RP2040Zero1,20*%
%TO.N,GND*%
X112750000Y-137215600D03*
X112750000Y-137215600D03*
%TO.P,RP2040Zero1,21*%
%TO.N,P3V3*%
X112750000Y-139755600D03*
X112750000Y-139755600D03*
%TO.P,RP2040Zero1,22*%
%TO.N,GP28*%
X112750000Y-144835600D03*
X112750000Y-144835600D03*
%TO.P,RP2040Zero1,23*%
%TO.N,GP29*%
X112750000Y-142295600D03*
X112750000Y-142295600D03*
%TD*%
D16*
%TO.P,S15,1*%
%TO.N,GP5*%
X158997056Y-129878567D03*
%TO.P,S15,2*%
%TO.N,GND*%
X170443326Y-127190559D03*
%TD*%
D11*
%TO.P,S31,1*%
%TO.N,GP7*%
X201618713Y-141883433D03*
%TO.P,S31,2*%
%TO.N,GND*%
X207035419Y-142146686D03*
%TD*%
D22*
%TO.P,S4,1*%
%TO.N,GP27*%
X63745782Y-109182119D03*
%TO.P,S4,2*%
%TO.N,GND*%
X73630621Y-115548630D03*
%TD*%
D10*
%TO.P,S14,1*%
%TO.N,GP2*%
X171801164Y-111635793D03*
%TO.P,S14,2*%
%TO.N,GND*%
X183334272Y-109348891D03*
%TD*%
D11*
%TO.P,S33,1*%
%TO.N,GP6*%
X180222486Y-137084132D03*
%TO.P,S33,2*%
%TO.N,GND*%
X185645079Y-137158185D03*
%TD*%
%TO.P,S27,1*%
%TO.N,GP15*%
X84697919Y-150038663D03*
%TO.P,S27,2*%
%TO.N,GND*%
X88271310Y-154117985D03*
%TD*%
D20*
%TO.P,_8,1*%
%TO.N,N/C*%
X151323294Y-191730667D03*
X152586101Y-191719647D03*
X150438147Y-192631399D03*
X153486833Y-192604794D03*
D21*
X151968000Y-193249500D03*
D20*
X150449167Y-193894206D03*
X153497853Y-193867601D03*
X151349899Y-194779353D03*
X152612706Y-194768333D03*
%TD*%
D11*
%TO.P,S30,1*%
%TO.N,GP10*%
X104169563Y-191807403D03*
%TO.P,S30,2*%
%TO.N,GND*%
X108056279Y-188025414D03*
%TD*%
%TO.P,S32,1*%
%TO.N,GP3*%
X195804313Y-125908733D03*
%TO.P,S32,2*%
%TO.N,GND*%
X201221019Y-126171986D03*
%TD*%
D20*
%TO.P,_4,1*%
%TO.N,N/C*%
X167579150Y-145159015D03*
X167546093Y-143896593D03*
X168495193Y-146028307D03*
X168415385Y-142980550D03*
D21*
X169086500Y-144487900D03*
D20*
X169757615Y-145995250D03*
X169677807Y-142947493D03*
X170626907Y-145079207D03*
X170593850Y-143816785D03*
%TD*%
D11*
%TO.P,S24,1*%
%TO.N,GP27*%
X58493976Y-117575966D03*
%TO.P,S24,2*%
%TO.N,GND*%
X62343221Y-121396085D03*
%TD*%
D19*
%TO.P,S1,1*%
%TO.N,GP12*%
X35560027Y-129891213D03*
%TO.P,S1,2*%
%TO.N,GND*%
X45661032Y-135908869D03*
%TD*%
D20*
%TO.P,_1,1*%
%TO.N,N/C*%
X50672707Y-111394567D03*
X51525880Y-110463492D03*
X50727792Y-112656220D03*
X52787533Y-110408407D03*
D21*
X52223200Y-111958900D03*
D20*
X51658867Y-113509393D03*
X53718608Y-111261580D03*
X52920520Y-113454308D03*
X53773693Y-112523233D03*
%TD*%
D27*
%TO.N,GP26*%
X105703600Y-125292100D03*
%TO.N,GP27*%
X99706800Y-122470400D03*
%TO.N,GP14*%
X78865600Y-152748800D03*
%TO.N,GP28*%
X80760700Y-141344700D03*
%TO.N,GP11*%
X119250700Y-171748000D03*
%TD*%
D28*
%TO.N,GP12*%
X30604400Y-138463200D02*
X34801200Y-134266400D01*
X35560000Y-129891200D02*
X34801200Y-131976200D01*
X34801200Y-134266400D02*
X34801200Y-131976200D01*
%TO.N,GND*%
X184189900Y-121396100D02*
X179276800Y-121396100D01*
X102406700Y-176637700D02*
X103299100Y-174535300D01*
X48567300Y-131752000D02*
X53973500Y-137158200D01*
X111821200Y-137215600D02*
X113350000Y-137215600D01*
X189966200Y-132837100D02*
X185645100Y-137158200D01*
X184189900Y-121396100D02*
X184189900Y-111466600D01*
X157304900Y-143992300D02*
X156045100Y-143992300D01*
X149852600Y-128712800D02*
X150990500Y-129850700D01*
X81725800Y-123841700D02*
X85313600Y-127429500D01*
X67262300Y-126315200D02*
X67262300Y-128337500D01*
X46419900Y-133823800D02*
X46419800Y-133823800D01*
X188847100Y-122993300D02*
X187249900Y-121396100D01*
X159894200Y-116586300D02*
X159894200Y-123841700D01*
X67262300Y-131310700D02*
X68117900Y-129193000D01*
X95723600Y-144752600D02*
X95723600Y-138838500D01*
X147782300Y-190979600D02*
X147782300Y-189769600D01*
X187249900Y-121396100D02*
X184189900Y-121396100D01*
X170443300Y-128482000D02*
X167427900Y-131497400D01*
X189702600Y-125111000D02*
X188847000Y-122993300D01*
X165289900Y-128837000D02*
X165289900Y-129359500D01*
X183334300Y-109348900D02*
X184189900Y-111466600D01*
X150132800Y-187419100D02*
X150132800Y-185731200D01*
X109357000Y-134751400D02*
X111821200Y-137215600D01*
X166808700Y-132116600D02*
X166808700Y-139372000D01*
X205229000Y-117585100D02*
X206455300Y-116358800D01*
X87940100Y-170496900D02*
X91487300Y-174044100D01*
X201221000Y-126172000D02*
X205799000Y-121594000D01*
X156045100Y-143992300D02*
X153727900Y-146309500D01*
X167427900Y-131497400D02*
X166808700Y-132116600D01*
X206455300Y-116358800D02*
X206455400Y-116358800D01*
X67262300Y-128337500D02*
X68117800Y-129193000D01*
X190558100Y-127228700D02*
X189966200Y-127820600D01*
X91487300Y-174044100D02*
X91487300Y-180992200D01*
X150990500Y-129850700D02*
X150990500Y-143572100D01*
X205696500Y-114273700D02*
X206455400Y-116358800D01*
X99538000Y-142652800D02*
X100512200Y-143627100D01*
X156555900Y-141817100D02*
X157514600Y-143782600D01*
X99538000Y-142652800D02*
X106432700Y-135758100D01*
X88271300Y-155782700D02*
X87940100Y-156113900D01*
X170443300Y-127190600D02*
X170443300Y-128482000D01*
X86295900Y-128411800D02*
X86295900Y-130950000D01*
X45661000Y-131725200D02*
X42494100Y-128558300D01*
X150990500Y-143572100D02*
X153727900Y-146309500D01*
X87940100Y-156113900D02*
X87940100Y-170496800D01*
X145679900Y-191872000D02*
X147782300Y-190979600D01*
X93874700Y-149098300D02*
X93874700Y-146601500D01*
X189966200Y-127820600D02*
X189966200Y-132837100D01*
X45661000Y-133065000D02*
X45661000Y-131725200D01*
X102406700Y-173642900D02*
X102406700Y-149791700D01*
X205799000Y-118155200D02*
X205229000Y-117585100D01*
X205059200Y-133013800D02*
X205059200Y-130010200D01*
X68117800Y-129193000D02*
X68117900Y-129193000D01*
X69739000Y-123259700D02*
X69739000Y-135978200D01*
X48567300Y-131752000D02*
X48491700Y-131752000D01*
X205799000Y-121594000D02*
X205799000Y-118155200D01*
X92294800Y-120448300D02*
X85313600Y-127429500D01*
X207035400Y-142146700D02*
X207358700Y-141823400D01*
X174397900Y-126275000D02*
X179276800Y-121396100D01*
X149103600Y-126537600D02*
X150062300Y-128503100D01*
X100512200Y-143627100D02*
X100512200Y-147897200D01*
X149852600Y-128712800D02*
X148592800Y-128712800D01*
X42494100Y-128267100D02*
X40399000Y-126172000D01*
X73132800Y-139372000D02*
X74811300Y-139372000D01*
X160294600Y-123841700D02*
X165289900Y-128837000D01*
X95723600Y-138838500D02*
X99538000Y-142652800D01*
X53973500Y-137158200D02*
X55974900Y-137158200D01*
X102406700Y-149791700D02*
X100512200Y-147897200D01*
X153348700Y-146688700D02*
X153348700Y-154118000D01*
X107391400Y-133792600D02*
X106432700Y-135758100D01*
X51475400Y-119934200D02*
X50716600Y-122019200D01*
X150132800Y-185731200D02*
X150132800Y-180992200D01*
X153727900Y-146309500D02*
X153348700Y-146688700D01*
X159894200Y-123841700D02*
X160294600Y-123841700D01*
X145896400Y-131409200D02*
X145896400Y-138838500D01*
X42494100Y-128558300D02*
X42494100Y-128267100D01*
X207358700Y-135313300D02*
X205059200Y-133013800D01*
X207358700Y-141823400D02*
X207358700Y-135313300D01*
X189702600Y-125111000D02*
X190558200Y-127228700D01*
X72775000Y-117666400D02*
X72775000Y-120223700D01*
X165289900Y-129359500D02*
X167427900Y-131497400D01*
X86295900Y-133922100D02*
X87211500Y-131865600D01*
X188847000Y-122993300D02*
X188847100Y-122993300D01*
X163528800Y-112951700D02*
X159894200Y-116586300D01*
X148592800Y-128712800D02*
X145896400Y-131409200D01*
X93210400Y-118391800D02*
X92294800Y-120448300D01*
X88855000Y-154118000D02*
X93874700Y-149098300D01*
X190558200Y-127228700D02*
X190558100Y-127228700D01*
X163528800Y-111660300D02*
X163528800Y-112951700D01*
X150062300Y-128503100D02*
X149852600Y-128712800D01*
X48567300Y-131676400D02*
X48567300Y-131752000D01*
X69739000Y-135978200D02*
X73132800Y-139372000D01*
X172499900Y-126275000D02*
X174397900Y-126275000D01*
X170443300Y-127190600D02*
X172499900Y-126275000D01*
X50716600Y-129527100D02*
X48567300Y-131676400D01*
X72775000Y-120223700D02*
X69739000Y-123259700D01*
X93874700Y-146601500D02*
X95723600Y-144752600D01*
X85313600Y-127429500D02*
X86295900Y-128411800D01*
X73630600Y-115548600D02*
X72775000Y-117666400D01*
X205059200Y-130010200D02*
X201221000Y-126172000D01*
X46419800Y-133823800D02*
X45661000Y-133065000D01*
X88271300Y-154118000D02*
X88855000Y-154118000D01*
X160146600Y-185731200D02*
X150132800Y-185731200D01*
X50716600Y-122019200D02*
X50716600Y-129527100D01*
X86295900Y-130950000D02*
X87211500Y-131865600D01*
X157514600Y-143782600D02*
X157304900Y-143992300D01*
X147782300Y-189769600D02*
X150132800Y-187419100D01*
X107391400Y-133792600D02*
X109357000Y-134751400D01*
X99939100Y-149072100D02*
X100512200Y-147897200D01*
X103299100Y-174535300D02*
X102406700Y-173642900D01*
X87940100Y-170496800D02*
X87940100Y-170496900D01*
X48491700Y-131752000D02*
X46419900Y-133823800D01*
X88271300Y-154118000D02*
X88271300Y-155782700D01*
X62343200Y-121396100D02*
X67262300Y-126315200D01*
X162249000Y-184838800D02*
X160146600Y-185731200D01*
X45661000Y-135908900D02*
X46419900Y-133823800D01*
X85837700Y-169604500D02*
X87940100Y-170496800D01*
%TO.N,GP26*%
X40615600Y-118291700D02*
X40615600Y-116001500D01*
X114893500Y-148372100D02*
X113350000Y-149915600D01*
X41374400Y-113916500D02*
X40615600Y-116001500D01*
X36418800Y-122488500D02*
X40615600Y-118291700D01*
X114893500Y-134482000D02*
X114893500Y-148372100D01*
X105703600Y-125292100D02*
X114893500Y-134482000D01*
%TO.N,GP13*%
X52125700Y-133338100D02*
X56522000Y-128941800D01*
X57377500Y-124944200D02*
X56521900Y-127061900D01*
X56522000Y-127061900D02*
X56521900Y-127061900D01*
X56522000Y-128941800D02*
X56522000Y-127061900D01*
%TO.N,GP27*%
X111660600Y-135945600D02*
X110624800Y-134909800D01*
X62890300Y-111299800D02*
X62890200Y-111299800D01*
X63745800Y-109182100D02*
X62890200Y-111299800D01*
X114421300Y-146304300D02*
X114421300Y-136501800D01*
X62890300Y-113179700D02*
X62890300Y-111299800D01*
X113350000Y-147375600D02*
X114421300Y-146304300D01*
X113865100Y-135945600D02*
X111660600Y-135945600D01*
X110624800Y-133388400D02*
X99706800Y-122470400D01*
X114421300Y-136501800D02*
X113865100Y-135945600D01*
X58494000Y-117576000D02*
X62890300Y-113179700D01*
X110624800Y-134909800D02*
X110624800Y-133388400D01*
%TO.N,GP14*%
X75723700Y-129271000D02*
X75723700Y-130793900D01*
X75723600Y-129270900D02*
X75723700Y-129271000D01*
X73461900Y-133055700D02*
X73461900Y-135419900D01*
X78865600Y-140823600D02*
X78865600Y-152748800D01*
X73461900Y-135419900D02*
X71097700Y-135419900D01*
X73461900Y-135419900D02*
X78865600Y-140823600D01*
X76639200Y-127214400D02*
X75723600Y-129270900D01*
X75723700Y-130793900D02*
X73461900Y-133055700D01*
%TO.N,GP28*%
X79385700Y-125364100D02*
X81707800Y-127686200D01*
X82638200Y-115263600D02*
X79385700Y-118516100D01*
X82638100Y-113740600D02*
X82638200Y-113740700D01*
X79385700Y-119889600D02*
X78012200Y-119889600D01*
X79385700Y-118516100D02*
X79385700Y-119889600D01*
X81707800Y-129855000D02*
X80760700Y-130802100D01*
X79385700Y-119889600D02*
X79385700Y-125364100D01*
X83553700Y-111684100D02*
X82638100Y-113740600D01*
X80760700Y-130802100D02*
X80760700Y-141344700D01*
X82638200Y-113740700D02*
X82638200Y-115263600D01*
X81707800Y-127686200D02*
X81707800Y-129855000D01*
%TO.N,GP15*%
X84697900Y-150038700D02*
X89563800Y-145172800D01*
X90522500Y-142031600D02*
X89563700Y-143997200D01*
X89563800Y-145172800D02*
X89563800Y-143997300D01*
X89563800Y-143997300D02*
X89563700Y-143997200D01*
%TO.N,GP29*%
X97016100Y-129893300D02*
X97016100Y-128717800D01*
X97974800Y-126752100D02*
X97016000Y-128717700D01*
X92150200Y-134759200D02*
X97016100Y-129893300D01*
X97016100Y-128717800D02*
X97016000Y-128717700D01*
%TO.N,GP11*%
X119250700Y-171748000D02*
X120970000Y-170028700D01*
X120970000Y-170028700D02*
X120970000Y-155205600D01*
%TO.N,GP10*%
X104169600Y-191807400D02*
X104169600Y-187856800D01*
X104169600Y-191807400D02*
X99664400Y-187302200D01*
X95868700Y-186409900D02*
X97971100Y-187302300D01*
X123510000Y-168516400D02*
X123510000Y-155205600D01*
X97971200Y-187302200D02*
X97971100Y-187302300D01*
X104169600Y-187856800D02*
X123510000Y-168516400D01*
X99664400Y-187302200D02*
X97971200Y-187302200D01*
%TO.N,GP7*%
X201618700Y-141883400D02*
X201618700Y-135171300D01*
X199905000Y-132131400D02*
X200663900Y-134216500D01*
X201618700Y-135171300D02*
X200663900Y-134216500D01*
%TO.N,GP3*%
X195804300Y-125908700D02*
X195804300Y-119196600D01*
X195804300Y-119196600D02*
X194849500Y-118241800D01*
X194090600Y-116156700D02*
X194849500Y-118241800D01*
%TO.N,GP6*%
X180222500Y-137084100D02*
X180222500Y-130713000D01*
X178169500Y-127397900D02*
X179025100Y-129515600D01*
X180222500Y-130713000D02*
X179025100Y-129515600D01*
%TO.N,GP2*%
X173854200Y-121322000D02*
X173854200Y-114950900D01*
X173854200Y-114950900D02*
X172656800Y-113753500D01*
X171801200Y-111635800D02*
X172656800Y-113753500D01*
%TO.N,GP5*%
X158997100Y-129878600D02*
X159912700Y-131935000D01*
X161386900Y-139487300D02*
X161386900Y-133409200D01*
X161386900Y-133409200D02*
X159912700Y-131935000D01*
%TO.N,GP1*%
X152082600Y-114348300D02*
X152998200Y-116404700D01*
X154472400Y-123957000D02*
X154472400Y-117878900D01*
X154472400Y-117878900D02*
X152998200Y-116404700D01*
%TO.N,GP4*%
X142218900Y-144835600D02*
X143244900Y-145861600D01*
X145210400Y-144902900D02*
X143244900Y-145861600D01*
X128590000Y-144835600D02*
X142218900Y-144835600D01*
X147934100Y-154422400D02*
X147934100Y-148633500D01*
X145210400Y-144902900D02*
X146169100Y-146868500D01*
X147934100Y-148633500D02*
X146169100Y-146868500D01*
%TO.N,GP0*%
X131699100Y-134675600D02*
X135792600Y-130582100D01*
X128590000Y-134675600D02*
X131699100Y-134675600D01*
X140481800Y-139142900D02*
X140481800Y-133354000D01*
X140481800Y-133354000D02*
X138716800Y-131589000D01*
X137758100Y-129623400D02*
X138716800Y-131589000D01*
X137758100Y-129623400D02*
X135792600Y-130582100D01*
%TO.N,GP8*%
X149163600Y-175569200D02*
X150112200Y-175569200D01*
X128590000Y-154995600D02*
X149163600Y-175569200D01*
%TO.N,GP9*%
X143192100Y-180380600D02*
X141089700Y-181273000D01*
X139760300Y-182602400D02*
X141089700Y-181273000D01*
X126050000Y-175109300D02*
X133543100Y-182602400D01*
X126050000Y-155205600D02*
X126050000Y-175109300D01*
X133543100Y-182602400D02*
X139760300Y-182602400D01*
%TD*%
M02*
