0
SECTION
2
HEADER
9
$INSUNITS
70
4
0
ENDSEC
0
SECTION
2
TABLES
0
TABLE
2
LTYPE
0
LTYPE
72
65
70
64
2
CONTINUOUS
3
______
73
0
40
0
0
ENDTAB
0
TABLE
2
LAYER
0
ENDTAB
0
ENDSEC
0
SECTION
2
ENTITIES
0
LINE
8
0
10
24.5273198
20
-140.0292263
11
35.6764908
21
-109.3971308
0
LINE
8
0
10
37.1301476
20
-108.1270074
11
58.2961993
21
-103.5158329
0
LINE
8
0
10
58.9529149
20
-103.4833801
11
78.3297589
21
-105.7363583
0
LINE
8
0
10
78.9122448
20
-105.8958837
11
96.8466935
21
-113.8808148
0
LINE
8
0
10
97.5036634
20
-114.352252
11
110.9599604
21
-128.9479548
0
LINE
8
0
10
112.4304035
20
-129.5923011
11
129.1896095
21
-129.5923011
0
LINE
8
0
10
130.6600526
20
-128.9479548
11
144.1163496
21
-114.352252
0
LINE
8
0
10
144.7733195
20
-113.8808148
11
162.7077682
21
-105.8958837
0
LINE
8
0
10
163.2902541
20
-105.7363583
11
182.6670981
21
-103.4833801
0
LINE
8
0
10
183.3238137
20
-103.5158329
11
204.4898654
21
-108.1270074
0
LINE
8
0
10
205.9435222
20
-109.3971308
11
217.0926932
21
-140.0292263
0
LINE
8
0
10
215.8973481
20
-142.5926517
11
200.5674926
21
-148.1722629
0
LINE
8
0
10
197.9920657
20
-146.9429981
11
195.420043
21
-139.4602463
0
LINE
8
0
10
192.584892
20
-138.3470434
11
163.3259714
21
-154.0069758
0
LINE
8
0
10
162.4382655
20
-154.9667342
11
159.480626
21
-161.70773
0
LINE
8
0
10
159.4710865
20
-163.2927573
11
171.7251213
21
-192.1614541
0
LINE
8
0
10
140.565065
20
-207.5608339
11
170.6655737
21
-194.783926
0
LINE
8
0
10
137.9425931
20
-206.5012863
11
126.5793121
21
-179.7310739
0
LINE
8
0
10
126.1807069
20
-179.1270869
11
122.252411
21
-175.0373002
0
LINE
8
0
10
119.367602
20
-175.0373002
11
115.4393061
21
-179.1270869
0
LINE
8
0
10
115.0407009
20
-179.7310739
11
103.6774199
21
-206.5012863
0
LINE
8
0
10
70.9544393
20
-194.783926
11
101.054948
21
-207.5608339
0
LINE
8
0
10
69.8948917
20
-192.1614541
11
82.1489266
21
-163.2927572
0
LINE
8
0
10
82.139387
20
-161.70773
11
79.1817475
21
-154.9667342
0
LINE
8
0
10
78.2940416
20
-154.0069758
11
49.035121
21
-138.3470434
0
LINE
8
0
10
46.19997
20
-139.4602463
11
43.6279473
21
-146.9429981
0
LINE
8
0
10
41.0525204
20
-148.1722629
11
25.7226649
21
-142.5926517
0
ARC
8
0
10
37.555876
20
-110.081171
40
2
50
102.2902546
51
160.0000019
0
ARC
8
0
10
58.7219277
20
-105.4699965
40
2
50
83.3679039
51
102.2902546
0
ARC
8
0
10
78.0987717
20
-107.7229747
40
2
50
66.0000032
51
83.3679039
0
ARC
8
0
10
96.0332203
20
-115.7079057
40
2
50
42.674059
51
66.0000032
0
ARC
8
0
10
112.4304035
20
-127.5923011
40
2
50
222.674059
51
270
0
ARC
8
0
10
129.1896095
20
-127.5923011
40
2
50
270
51
317.325941
0
ARC
8
0
10
145.5867927
20
-115.7079057
40
2
50
113.9999968
51
137.325941
0
ARC
8
0
10
163.5212413
20
-107.7229747
40
2
50
96.6320961
51
113.9999968
0
ARC
8
0
10
182.8980853
20
-105.4699965
40
2
50
77.7097454
51
96.6320961
0
ARC
8
0
10
204.064137
20
-110.081171
40
2
50
19.9999981
51
77.7097454
0
ARC
8
0
10
215.2133079
20
-140.7132665
40
2
50
289.9999981
51
19.9999981
0
ARC
8
0
10
199.8834524
20
-146.2928776
40
2
50
198.9692227
51
289.9999981
0
ARC
8
0
10
193.5286563
20
-140.1103668
40
2
50
18.9692227
51
118.1565389
0
ARC
8
0
10
164.2697357
20
-155.7702992
40
2
50
118.1565389
51
156.3103408
0
ARC
8
0
10
161.3120962
20
-162.511295
40
2
50
156.3103408
51
202.9999997
0
ARC
8
0
10
169.8841115
20
-192.9429162
40
2
50
292.9999975
51
22.9999975
0
ARC
8
0
10
139.7836029
20
-205.7198241
40
2
50
202.9999975
51
292.9999975
0
ARC
8
0
10
124.7383024
20
-180.5125361
40
2
50
22.9999975
51
43.8461738
0
ARC
8
0
10
120.8100065
20
-176.4227494
40
2
50
43.8461738
51
136.1538262
0
ARC
8
0
10
116.8817106
20
-180.5125361
40
2
50
136.1538262
51
157.0000025
0
ARC
8
0
10
101.8364101
20
-205.7198241
40
2
50
247.0000025
51
337.0000025
0
ARC
8
0
10
71.7359015
20
-192.9429162
40
2
50
157.0000025
51
247.0000025
0
ARC
8
0
10
80.3079168
20
-162.511295
40
2
50
337.0000025
51
23.6896592
0
ARC
8
0
10
77.3502773
20
-155.7702992
40
2
50
23.6896592
51
61.8434611
0
ARC
8
0
10
48.0913567
20
-140.1103668
40
2
50
61.8434611
51
161.0307773
0
ARC
8
0
10
41.7365606
20
-146.2928776
40
2
50
250.0000019
51
341.0307773
0
ARC
8
0
10
26.4067051
20
-140.7132665
40
2
50
160.0000019
51
250.0000019
0
LINE
8
0
10
25.5585638
20
-141.3623283
11
42.0031846
21
-147.3476808
0
LINE
8
0
10
42.0031846
20
-147.3476808
11
47.646517
21
-131.8427525
0
LINE
8
0
10
47.646517
20
-131.8427525
11
31.2018962
21
-125.8574
0
LINE
8
0
10
31.2018962
20
-125.8574
11
25.5585638
21
-141.3623283
0
LINE
8
0
10
31.3729062
20
-125.3875537
11
47.817527
21
-131.3729062
0
LINE
8
0
10
47.817527
20
-131.3729062
11
53.4608594
21
-115.8679779
0
LINE
8
0
10
53.4608594
20
-115.8679779
11
37.0162386
21
-109.8826254
0
LINE
8
0
10
37.0162386
20
-109.8826254
11
31.3729062
21
-125.3875537
0
LINE
8
0
10
46.9817017
20
-136.0592627
11
63.2074191
21
-142.6148781
0
LINE
8
0
10
63.2074191
20
-142.6148781
11
69.3884279
21
-127.3163445
0
LINE
8
0
10
69.3884279
20
-127.3163445
11
53.1627105
21
-120.7607291
0
LINE
8
0
10
53.1627105
20
-120.7607291
11
46.9817017
21
-136.0592627
0
LINE
8
0
10
53.3500139
20
-120.2971372
11
69.5757313
21
-126.8527526
0
LINE
8
0
10
69.5757313
20
-126.8527526
11
75.7567401
21
-111.554219
0
LINE
8
0
10
75.7567401
20
-111.554219
11
59.5310227
21
-104.9986036
0
LINE
8
0
10
59.5310227
20
-104.9986036
11
53.3500139
21
-120.2971372
0
LINE
8
0
10
65.861899
20
-137.9599106
11
81.8489445
21
-145.0778019
0
LINE
8
0
10
81.8489445
20
-145.0778019
11
88.5600992
21
-130.0043018
0
LINE
8
0
10
88.5600992
20
-130.0043018
11
72.5730537
21
-122.8864105
0
LINE
8
0
10
72.5730537
20
-122.8864105
11
65.861899
21
-137.9599106
0
LINE
8
0
10
72.7764219
20
-122.4296379
11
88.7634674
21
-129.5475292
0
LINE
8
0
10
88.7634674
20
-129.5475292
11
95.4746221
21
-114.4740291
0
LINE
8
0
10
95.4746221
20
-114.4740291
11
79.4875766
21
-107.3561378
0
LINE
8
0
10
79.4875766
20
-107.3561378
11
72.7764219
21
-122.4296379
0
LINE
8
0
10
79.3766871
20
-152.3944012
11
95.1055829
21
-160.0658963
0
LINE
8
0
10
95.1055829
20
-160.0658963
11
102.3387069
21
-145.2357946
0
LINE
8
0
10
102.3387069
20
-145.2357946
11
86.6098111
21
-137.5642995
0
LINE
8
0
10
86.6098111
20
-137.5642995
11
79.3766871
21
-152.3944012
0
LINE
8
0
10
86.8289966
20
-137.1149023
11
102.5578924
21
-144.7863974
0
LINE
8
0
10
102.5578924
20
-144.7863974
11
109.7910164
21
-129.9562957
0
LINE
8
0
10
109.7910164
20
-129.9562957
11
94.0621206
21
-122.2848006
0
LINE
8
0
10
94.0621206
20
-122.2848006
11
86.8289966
21
-137.1149023
0
LINE
8
0
10
86.1836917
20
-198.8312082
11
96.7334322
21
-173.9775772
0
LINE
8
0
10
70.9953616
20
-192.3841446
11
81.5451021
21
-167.5305136
0
LINE
8
0
10
102.752779
20
-205.8643685
11
113.3025195
21
-181.0107375
0
LINE
8
0
10
87.5644489
20
-199.4173049
11
98.1141894
21
-174.5636739
0
LINE
8
0
10
199.6168284
20
-147.3476808
11
216.0614492
21
-141.3623283
0
LINE
8
0
10
216.0614492
20
-141.3623283
11
210.4181168
21
-125.8574
0
LINE
8
0
10
210.4181168
20
-125.8574
11
193.973496
21
-131.8427525
0
LINE
8
0
10
193.973496
20
-131.8427525
11
199.6168284
21
-147.3476808
0
LINE
8
0
10
193.802486
20
-131.3729062
11
210.2471068
21
-125.3875537
0
LINE
8
0
10
210.2471068
20
-125.3875537
11
204.6037744
21
-109.8826254
0
LINE
8
0
10
204.6037744
20
-109.8826254
11
188.1591536
21
-115.8679779
0
LINE
8
0
10
188.1591536
20
-115.8679779
11
193.802486
21
-131.3729062
0
LINE
8
0
10
178.4125939
20
-142.6148781
11
194.6383113
21
-136.0592627
0
LINE
8
0
10
194.6383113
20
-136.0592627
11
188.4573025
21
-120.7607291
0
LINE
8
0
10
188.4573025
20
-120.7607291
11
172.2315851
21
-127.3163445
0
LINE
8
0
10
172.2315851
20
-127.3163445
11
178.4125939
21
-142.6148781
0
LINE
8
0
10
172.0442817
20
-126.8527526
11
188.2699991
21
-120.2971372
0
LINE
8
0
10
188.2699991
20
-120.2971372
11
182.0889903
21
-104.9986036
0
LINE
8
0
10
182.0889903
20
-104.9986036
11
165.8632729
21
-111.554219
0
LINE
8
0
10
165.8632729
20
-111.554219
11
172.0442817
21
-126.8527526
0
LINE
8
0
10
159.7710685
20
-145.0778019
11
175.758114
21
-137.9599106
0
LINE
8
0
10
175.758114
20
-137.9599106
11
169.0469593
21
-122.8864105
0
LINE
8
0
10
169.0469593
20
-122.8864105
11
153.0599138
21
-130.0043018
0
LINE
8
0
10
153.0599138
20
-130.0043018
11
159.7710685
21
-145.0778019
0
LINE
8
0
10
152.8565456
20
-129.5475292
11
168.8435911
21
-122.4296379
0
LINE
8
0
10
168.8435911
20
-122.4296379
11
162.1324364
21
-107.3561378
0
LINE
8
0
10
162.1324364
20
-107.3561378
11
146.1453909
21
-114.4740291
0
LINE
8
0
10
146.1453909
20
-114.4740291
11
152.8565456
21
-129.5475292
0
LINE
8
0
10
146.5144301
20
-160.0658963
11
162.2433259
21
-152.3944012
0
LINE
8
0
10
162.2433259
20
-152.3944012
11
155.0102019
21
-137.5642995
0
LINE
8
0
10
155.0102019
20
-137.5642995
11
139.2813061
21
-145.2357946
0
LINE
8
0
10
139.2813061
20
-145.2357946
11
146.5144301
21
-160.0658963
0
LINE
8
0
10
139.0621206
20
-144.7863974
11
154.7910164
21
-137.1149023
0
LINE
8
0
10
154.7910164
20
-137.1149023
11
147.5578924
21
-122.2848006
0
LINE
8
0
10
147.5578924
20
-122.2848006
11
131.8289966
21
-129.9562957
0
LINE
8
0
10
131.8289966
20
-129.9562957
11
139.0621206
21
-144.7863974
0
LINE
8
0
10
144.8865808
20
-173.9775772
11
155.4363213
21
-198.8312082
0
LINE
8
0
10
160.0749109
20
-167.5305136
11
170.6246514
21
-192.3841446
0
LINE
8
0
10
128.3174935
20
-181.0107375
11
138.867234
21
-205.8643685
0
LINE
8
0
10
143.5058236
20
-174.5636739
11
154.0555641
21
-199.4173049
0
LINE
8
0
10
96.7334322
20
-173.9775772
11
81.5451021
21
-167.5305136
0
LINE
8
0
10
70.9953616
20
-192.3841446
11
86.1836917
21
-198.8312082
0
LINE
8
0
10
113.3025195
20
-181.0107375
11
98.1141894
21
-174.5636739
0
LINE
8
0
10
87.5644489
20
-199.4173049
11
102.752779
21
-205.8643685
0
LINE
8
0
10
155.4363213
20
-198.8312082
11
170.6246514
21
-192.3841446
0
LINE
8
0
10
160.0749109
20
-167.5305136
11
144.8865808
21
-173.9775772
0
LINE
8
0
10
138.867234
20
-205.8643685
11
154.0555641
21
-199.4173049
0
LINE
8
0
10
143.5058236
20
-174.5636739
11
128.3174935
21
-181.0107375
0
ENDSEC
0
EOF