%TF.GenerationSoftware,KiCad,Pcbnew,9.0.0*%
%TF.CreationDate,2025-02-20T21:39:48+01:00*%
%TF.ProjectId,chouchou_mx,63686f75-6368-46f7-955f-6d782e6b6963,v1.0.0*%
%TF.SameCoordinates,Original*%
%TF.FileFunction,Legend,Top*%
%TF.FilePolarity,Positive*%
%FSLAX46Y46*%
G04 Gerber Fmt 4.6, Leading zero omitted, Abs format (unit mm)*
G04 Created by KiCad (PCBNEW 9.0.0) date 2025-02-20 21:39:48*
%MOMM*%
%LPD*%
G01*
G04 APERTURE LIST*
%ADD10C,0.300000*%
%ADD11C,0.000000*%
%ADD12C,0.120000*%
G04 APERTURE END LIST*
D10*
X140408059Y-164774202D02*
X140265202Y-164702773D01*
X140265202Y-164702773D02*
X140050916Y-164702773D01*
X140050916Y-164702773D02*
X139836630Y-164774202D01*
X139836630Y-164774202D02*
X139693773Y-164917059D01*
X139693773Y-164917059D02*
X139622344Y-165059916D01*
X139622344Y-165059916D02*
X139550916Y-165345630D01*
X139550916Y-165345630D02*
X139550916Y-165559916D01*
X139550916Y-165559916D02*
X139622344Y-165845630D01*
X139622344Y-165845630D02*
X139693773Y-165988487D01*
X139693773Y-165988487D02*
X139836630Y-166131345D01*
X139836630Y-166131345D02*
X140050916Y-166202773D01*
X140050916Y-166202773D02*
X140193773Y-166202773D01*
X140193773Y-166202773D02*
X140408059Y-166131345D01*
X140408059Y-166131345D02*
X140479487Y-166059916D01*
X140479487Y-166059916D02*
X140479487Y-165559916D01*
X140479487Y-165559916D02*
X140193773Y-165559916D01*
X141336630Y-164702773D02*
X141336630Y-165059916D01*
X140979487Y-164917059D02*
X141336630Y-165059916D01*
X141336630Y-165059916D02*
X141693773Y-164917059D01*
X141122344Y-165345630D02*
X141336630Y-165059916D01*
X141336630Y-165059916D02*
X141550916Y-165345630D01*
X142479487Y-164702773D02*
X142479487Y-165059916D01*
X142122344Y-164917059D02*
X142479487Y-165059916D01*
X142479487Y-165059916D02*
X142836630Y-164917059D01*
X142265201Y-165345630D02*
X142479487Y-165059916D01*
X142479487Y-165059916D02*
X142693773Y-165345630D01*
X143622344Y-164702773D02*
X143622344Y-165059916D01*
X143265201Y-164917059D02*
X143622344Y-165059916D01*
X143622344Y-165059916D02*
X143979487Y-164917059D01*
X143408058Y-165345630D02*
X143622344Y-165059916D01*
X143622344Y-165059916D02*
X143836630Y-165345630D01*
X108678572Y-164749757D02*
X108535715Y-164678328D01*
X108535715Y-164678328D02*
X108321429Y-164678328D01*
X108321429Y-164678328D02*
X108107143Y-164749757D01*
X108107143Y-164749757D02*
X107964286Y-164892614D01*
X107964286Y-164892614D02*
X107892857Y-165035471D01*
X107892857Y-165035471D02*
X107821429Y-165321185D01*
X107821429Y-165321185D02*
X107821429Y-165535471D01*
X107821429Y-165535471D02*
X107892857Y-165821185D01*
X107892857Y-165821185D02*
X107964286Y-165964042D01*
X107964286Y-165964042D02*
X108107143Y-166106900D01*
X108107143Y-166106900D02*
X108321429Y-166178328D01*
X108321429Y-166178328D02*
X108464286Y-166178328D01*
X108464286Y-166178328D02*
X108678572Y-166106900D01*
X108678572Y-166106900D02*
X108750000Y-166035471D01*
X108750000Y-166035471D02*
X108750000Y-165535471D01*
X108750000Y-165535471D02*
X108464286Y-165535471D01*
X109607143Y-164678328D02*
X109607143Y-165035471D01*
X109250000Y-164892614D02*
X109607143Y-165035471D01*
X109607143Y-165035471D02*
X109964286Y-164892614D01*
X109392857Y-165321185D02*
X109607143Y-165035471D01*
X109607143Y-165035471D02*
X109821429Y-165321185D01*
X110750000Y-164678328D02*
X110750000Y-165035471D01*
X110392857Y-164892614D02*
X110750000Y-165035471D01*
X110750000Y-165035471D02*
X111107143Y-164892614D01*
X110535714Y-165321185D02*
X110750000Y-165035471D01*
X110750000Y-165035471D02*
X110964286Y-165321185D01*
X111892857Y-164678328D02*
X111892857Y-165035471D01*
X111535714Y-164892614D02*
X111892857Y-165035471D01*
X111892857Y-165035471D02*
X112250000Y-164892614D01*
X111678571Y-165321185D02*
X111892857Y-165035471D01*
X111892857Y-165035471D02*
X112107143Y-165321185D01*
D11*
%TO.C,G\u002A\u002A\u002A*%
G36*
X144758212Y-156371073D02*
G01*
X145078969Y-156463414D01*
X145406117Y-156708641D01*
X145730857Y-157090989D01*
X146044393Y-157594693D01*
X146337926Y-158203988D01*
X146602661Y-158903111D01*
X146829798Y-159676295D01*
X146982203Y-160356456D01*
X147148937Y-161448033D01*
X147209485Y-162446120D01*
X147164330Y-163340627D01*
X147013954Y-164121463D01*
X146772002Y-164752878D01*
X146551699Y-165187626D01*
X146848210Y-165447966D01*
X147334371Y-165957748D01*
X147787167Y-166587881D01*
X148178599Y-167289466D01*
X148480669Y-168013606D01*
X148638983Y-168575424D01*
X148739176Y-169316356D01*
X148735801Y-170069049D01*
X148636552Y-170804758D01*
X148449124Y-171494736D01*
X148181214Y-172110237D01*
X147840515Y-172622514D01*
X147458261Y-172986067D01*
X147233702Y-173128000D01*
X147016121Y-173201619D01*
X146731991Y-173227507D01*
X146590114Y-173229112D01*
X146305015Y-173217150D01*
X146093067Y-173185991D01*
X146007419Y-173148111D01*
X146049355Y-173106565D01*
X146234462Y-173103188D01*
X146370233Y-173116009D01*
X146784052Y-173114085D01*
X147144590Y-172994325D01*
X147467816Y-172744138D01*
X147769703Y-172350930D01*
X148066220Y-171802110D01*
X148083697Y-171765007D01*
X148328242Y-171118719D01*
X148460190Y-170444621D01*
X148487993Y-169693130D01*
X148477785Y-169453673D01*
X148344721Y-168559700D01*
X148058918Y-167682641D01*
X147636068Y-166856835D01*
X147091865Y-166116625D01*
X146822262Y-165831053D01*
X146400554Y-165417994D01*
X146135389Y-165606808D01*
X145823933Y-165766819D01*
X145499496Y-165833393D01*
X145190472Y-165817586D01*
X144925255Y-165730456D01*
X144732239Y-165583057D01*
X144639819Y-165386447D01*
X144660326Y-165254797D01*
X144821296Y-165254797D01*
X144832188Y-165409202D01*
X144971036Y-165524115D01*
X145199506Y-165592003D01*
X145479265Y-165605334D01*
X145771978Y-165556574D01*
X145967025Y-165479938D01*
X146137434Y-165372282D01*
X146216189Y-165284013D01*
X146216821Y-165278543D01*
X146138569Y-165196180D01*
X145922898Y-165093842D01*
X145598430Y-164984768D01*
X145554412Y-164972102D01*
X145317981Y-164965232D01*
X145066950Y-165041871D01*
X144874182Y-165173922D01*
X144821296Y-165254797D01*
X144660326Y-165254797D01*
X144676389Y-165151682D01*
X144727492Y-165058590D01*
X144940458Y-164877514D01*
X145256826Y-164786429D01*
X145631310Y-164794294D01*
X145832406Y-164839989D01*
X146156298Y-164928041D01*
X146364934Y-164947916D01*
X146501565Y-164891014D01*
X146609441Y-164748733D01*
X146648091Y-164677779D01*
X146876029Y-164085364D01*
X147010607Y-163373906D01*
X147052569Y-162565137D01*
X147002658Y-161680793D01*
X146861617Y-160742607D01*
X146630190Y-159772312D01*
X146461552Y-159223518D01*
X146225164Y-158588678D01*
X145956708Y-157996061D01*
X145673733Y-157478507D01*
X145393786Y-157068854D01*
X145192446Y-156848618D01*
X144859496Y-156627904D01*
X144501353Y-156552353D01*
X144107665Y-156624240D01*
X143668081Y-156845840D01*
X143172247Y-157219429D01*
X143060266Y-157317174D01*
X142793722Y-157534537D01*
X142632667Y-157627754D01*
X142581379Y-157608439D01*
X142644137Y-157488204D01*
X142825217Y-157278663D01*
X142987461Y-157119554D01*
X143417993Y-156757176D01*
X143813117Y-156524185D01*
X144218476Y-156401287D01*
X144679711Y-156369192D01*
X144758212Y-156371073D01*
G37*
G36*
X141270183Y-156991288D02*
G01*
X141573096Y-157044721D01*
X141834999Y-157163670D01*
X142075609Y-157368207D01*
X142314642Y-157678402D01*
X142571814Y-158114327D01*
X142789485Y-158537934D01*
X143259193Y-159586655D01*
X143639876Y-160642812D01*
X143924092Y-161677646D01*
X144104399Y-162662400D01*
X144173352Y-163568312D01*
X144169465Y-163870022D01*
X144138817Y-164320516D01*
X144074186Y-164676429D01*
X143954992Y-164989533D01*
X143760653Y-165311600D01*
X143470590Y-165694405D01*
X143418531Y-165759054D01*
X142991799Y-166286445D01*
X143466151Y-166286445D01*
X144075875Y-166334407D01*
X144589691Y-166487417D01*
X145038339Y-166747507D01*
X145489240Y-167175546D01*
X145851542Y-167725245D01*
X146121871Y-168371941D01*
X146296854Y-169090971D01*
X146373118Y-169857672D01*
X146347289Y-170647381D01*
X146215994Y-171435436D01*
X145975859Y-172197173D01*
X145829177Y-172529358D01*
X145573501Y-172990254D01*
X145310862Y-173307454D01*
X145009564Y-173504777D01*
X144637908Y-173606045D01*
X144363497Y-173630809D01*
X143760061Y-173601027D01*
X143374236Y-173502802D01*
X142824811Y-173251895D01*
X142215052Y-172876828D01*
X141571211Y-172398958D01*
X140919542Y-171839646D01*
X140286300Y-171220251D01*
X139697739Y-170562130D01*
X139574872Y-170411795D01*
X139376009Y-170153031D01*
X139284067Y-170009533D01*
X139288502Y-169974599D01*
X139378770Y-170041530D01*
X139544324Y-170203625D01*
X139774621Y-170454184D01*
X139938154Y-170642627D01*
X140393389Y-171137305D01*
X140917065Y-171640799D01*
X141471188Y-172121001D01*
X142017766Y-172545800D01*
X142518806Y-172883087D01*
X142734093Y-173005587D01*
X143290395Y-173244303D01*
X143862358Y-173398362D01*
X143907328Y-173406171D01*
X144237183Y-173454277D01*
X144461230Y-173462998D01*
X144639231Y-173428446D01*
X144830950Y-173346730D01*
X144832533Y-173345957D01*
X145197468Y-173078557D01*
X145507186Y-172675827D01*
X145757661Y-172163847D01*
X145944868Y-171568698D01*
X146064779Y-170916460D01*
X146113370Y-170233213D01*
X146086613Y-169545038D01*
X145980483Y-168878016D01*
X145790953Y-168258226D01*
X145662233Y-167971384D01*
X145300847Y-167392183D01*
X144877753Y-166968267D01*
X144382990Y-166693687D01*
X143806599Y-166562496D01*
X143292079Y-166555999D01*
X142759764Y-166589895D01*
X141864909Y-167451794D01*
X141373843Y-167908295D01*
X140969465Y-168244597D01*
X140633105Y-168473069D01*
X140346094Y-168606080D01*
X140089764Y-168655997D01*
X140045574Y-168657112D01*
X139767509Y-168591904D01*
X139592375Y-168419243D01*
X139538563Y-168204910D01*
X139795714Y-168204910D01*
X139852774Y-168343563D01*
X140014271Y-168392781D01*
X140257613Y-168347486D01*
X140560203Y-168202600D01*
X140635472Y-168154876D01*
X140863954Y-167985759D01*
X141164425Y-167739314D01*
X141487756Y-167456551D01*
X141644821Y-167312327D01*
X141922420Y-167048506D01*
X142084968Y-166880899D01*
X142144138Y-166793405D01*
X142111603Y-166769923D01*
X142025821Y-166786831D01*
X141621984Y-166920835D01*
X141189012Y-167105104D01*
X140763081Y-167319627D01*
X140380365Y-167544390D01*
X140077040Y-167759378D01*
X139889280Y-167944580D01*
X139865686Y-167981898D01*
X139795714Y-168204910D01*
X139538563Y-168204910D01*
X139530695Y-168173573D01*
X139592993Y-167889338D01*
X139739857Y-167656510D01*
X139949010Y-167474716D01*
X140280548Y-167263044D01*
X140695013Y-167041421D01*
X141152947Y-166829777D01*
X141614894Y-166648040D01*
X141948264Y-166541091D01*
X142223487Y-166453865D01*
X142451589Y-166349781D01*
X142660990Y-166205001D01*
X142880109Y-165995684D01*
X143137365Y-165697991D01*
X143461176Y-165288085D01*
X143496477Y-165242383D01*
X143762342Y-164828996D01*
X143927627Y-164390461D01*
X143999511Y-163890522D01*
X143985175Y-163292920D01*
X143949210Y-162956277D01*
X143836277Y-162258427D01*
X143675047Y-161529398D01*
X143474250Y-160791505D01*
X143242619Y-160067062D01*
X142988885Y-159378385D01*
X142721780Y-158747787D01*
X142450035Y-158197583D01*
X142182381Y-157750088D01*
X141927552Y-157427616D01*
X141722570Y-157265868D01*
X141345166Y-157156820D01*
X140920704Y-157171886D01*
X140569729Y-157283072D01*
X140373169Y-157408641D01*
X140109411Y-157619760D01*
X139826021Y-157877465D01*
X139737908Y-157964467D01*
X139250600Y-158553190D01*
X138796839Y-159296455D01*
X138381814Y-160181858D01*
X138010711Y-161197000D01*
X137688719Y-162329478D01*
X137443034Y-163450112D01*
X137358245Y-164033100D01*
X137305942Y-164694156D01*
X137286084Y-165386842D01*
X137298635Y-166064721D01*
X137343554Y-166681356D01*
X137420804Y-167190309D01*
X137446256Y-167299566D01*
X137667415Y-168023773D01*
X137939555Y-168630944D01*
X138289545Y-169171650D01*
X138688989Y-169638704D01*
X138963842Y-169950420D01*
X139209301Y-170266921D01*
X139388646Y-170539196D01*
X139442517Y-170644514D01*
X139550256Y-170865964D01*
X139642263Y-171004393D01*
X139676047Y-171027779D01*
X139792093Y-171089931D01*
X139978472Y-171253862D01*
X140204053Y-171485778D01*
X140437709Y-171751888D01*
X140648307Y-172018399D01*
X140804720Y-172251519D01*
X140806988Y-172255445D01*
X140993439Y-172651855D01*
X141042232Y-172958880D01*
X140953850Y-173185070D01*
X140863982Y-173266644D01*
X140566275Y-173387707D01*
X140266358Y-173348342D01*
X139980713Y-173156420D01*
X139725820Y-172819811D01*
X139657059Y-172690253D01*
X139517880Y-172329665D01*
X139395598Y-171879119D01*
X139332480Y-171544217D01*
X139602342Y-171544217D01*
X139635483Y-171815690D01*
X139707016Y-172130379D01*
X139808071Y-172450567D01*
X139929781Y-172738537D01*
X140063279Y-172956575D01*
X140087085Y-172984613D01*
X140258195Y-173092584D01*
X140480707Y-173140884D01*
X140689041Y-173125651D01*
X140817614Y-173043023D01*
X140824703Y-173028048D01*
X140814705Y-172863044D01*
X140717433Y-172609634D01*
X140556899Y-172304666D01*
X140357115Y-171984986D01*
X140142093Y-171687440D01*
X139935846Y-171448876D01*
X139762384Y-171306139D01*
X139686704Y-171281779D01*
X139616459Y-171353674D01*
X139602342Y-171544217D01*
X139332480Y-171544217D01*
X139308688Y-171417979D01*
X139275856Y-171052680D01*
X139206650Y-170964419D01*
X139024801Y-170822536D01*
X138766348Y-170654448D01*
X138702654Y-170616597D01*
X138143205Y-170254658D01*
X137685581Y-169886737D01*
X137344779Y-169528359D01*
X137135799Y-169195048D01*
X137072821Y-168929575D01*
X136998050Y-168783371D01*
X136787965Y-168594289D01*
X136628321Y-168483541D01*
X136432759Y-168335273D01*
X136145656Y-168088379D01*
X135792715Y-167766413D01*
X135399639Y-167392926D01*
X134992133Y-166991469D01*
X134913821Y-166912583D01*
X134526889Y-166527474D01*
X134169248Y-166183019D01*
X133861399Y-165898054D01*
X133623845Y-165691417D01*
X133477087Y-165581943D01*
X133453321Y-165570707D01*
X133310930Y-165494481D01*
X133260825Y-165407224D01*
X133325491Y-165356641D01*
X133351692Y-165355112D01*
X133500167Y-165388688D01*
X133698800Y-165496062D01*
X133959952Y-165687197D01*
X134295984Y-165972058D01*
X134719258Y-166360612D01*
X135242136Y-166862823D01*
X135337154Y-166955650D01*
X135742646Y-167350728D01*
X136119137Y-167714105D01*
X136445867Y-168026014D01*
X136702074Y-168266691D01*
X136866999Y-168416371D01*
X136903487Y-168446905D01*
X137115154Y-168612131D01*
X136894785Y-168359455D01*
X136626529Y-168019862D01*
X136340074Y-167590921D01*
X136020127Y-167048397D01*
X135720107Y-166498112D01*
X135390699Y-165886842D01*
X135121988Y-165410892D01*
X134902353Y-165052464D01*
X134720176Y-164793763D01*
X134563836Y-164616992D01*
X134421714Y-164504356D01*
X134416067Y-164500876D01*
X134263119Y-164392588D01*
X134261262Y-164343802D01*
X134302966Y-164339428D01*
X134536940Y-164398460D01*
X134790291Y-164582077D01*
X135069913Y-164898643D01*
X135382698Y-165356517D01*
X135735542Y-165964063D01*
X135908140Y-166286445D01*
X136238888Y-166908908D01*
X136509796Y-167398801D01*
X136733325Y-167776680D01*
X136921932Y-168063099D01*
X137088077Y-168278613D01*
X137172514Y-168372401D01*
X137324384Y-168563207D01*
X137349591Y-168679194D01*
X137334179Y-168694898D01*
X137248610Y-168837354D01*
X137275928Y-169059937D01*
X137409367Y-169322952D01*
X137451090Y-169380724D01*
X137640964Y-169583814D01*
X137927970Y-169838802D01*
X138265198Y-170108555D01*
X138605739Y-170355942D01*
X138902684Y-170543832D01*
X138958828Y-170574182D01*
X139119830Y-170651764D01*
X139161762Y-170641752D01*
X139115149Y-170539077D01*
X139019541Y-170406102D01*
X138839077Y-170190635D01*
X138606880Y-169931651D01*
X138517166Y-169835441D01*
X137948160Y-169117210D01*
X137513419Y-168310473D01*
X137212452Y-167412198D01*
X137044766Y-166419353D01*
X137009871Y-165328908D01*
X137107274Y-164137829D01*
X137336484Y-162843087D01*
X137363290Y-162722568D01*
X137634958Y-161722758D01*
X138008130Y-160657819D01*
X138463607Y-159581389D01*
X138564976Y-159365066D01*
X138865649Y-158802834D01*
X139202328Y-158325580D01*
X139502609Y-157983774D01*
X139924330Y-157562201D01*
X140282946Y-157267750D01*
X140606366Y-157084749D01*
X140922500Y-156997526D01*
X141259259Y-156990410D01*
X141270183Y-156991288D01*
G37*
G36*
X107445103Y-156366515D02*
G01*
X107856063Y-156474248D01*
X108249795Y-156689119D01*
X108671940Y-157030421D01*
X108742026Y-157095109D01*
X108994210Y-157351449D01*
X109125571Y-157525266D01*
X109140388Y-157604948D01*
X109042939Y-157578882D01*
X108837502Y-157435455D01*
X108669222Y-157292729D01*
X108160290Y-156887008D01*
X107709778Y-156633751D01*
X107307331Y-156530684D01*
X106942598Y-156575532D01*
X106605227Y-156766020D01*
X106537042Y-156824173D01*
X106247285Y-157158178D01*
X105950349Y-157631426D01*
X105658836Y-158214987D01*
X105385346Y-158879931D01*
X105142482Y-159597327D01*
X104942846Y-160338245D01*
X104878540Y-160631667D01*
X104774119Y-161265799D01*
X104708161Y-161930871D01*
X104681981Y-162582254D01*
X104696892Y-163175320D01*
X104754207Y-163665441D01*
X104785107Y-163806667D01*
X104937553Y-164312441D01*
X105096477Y-164674264D01*
X105257129Y-164883366D01*
X105395676Y-164934130D01*
X105577087Y-164900232D01*
X105829229Y-164835392D01*
X105897081Y-164815544D01*
X106283841Y-164753121D01*
X106635850Y-164794270D01*
X106907822Y-164930033D01*
X107001995Y-165034145D01*
X107092761Y-165280090D01*
X107044166Y-165491918D01*
X106884603Y-165658574D01*
X106642467Y-165769000D01*
X106346153Y-165812141D01*
X106024054Y-165776940D01*
X105704565Y-165652340D01*
X105594098Y-165582363D01*
X105328934Y-165393549D01*
X104907225Y-165806608D01*
X104315302Y-166499053D01*
X103837930Y-167291977D01*
X103490803Y-168151039D01*
X103289613Y-169041898D01*
X103251703Y-169429228D01*
X103250889Y-170212433D01*
X103351768Y-170903868D01*
X103562794Y-171553116D01*
X103645790Y-171740562D01*
X103942487Y-172298854D01*
X104243621Y-172700797D01*
X104565163Y-172958985D01*
X104923085Y-173086010D01*
X105333355Y-173094465D01*
X105359254Y-173091564D01*
X105606213Y-173075580D01*
X105720869Y-173098726D01*
X105722068Y-173123666D01*
X105617313Y-173165898D01*
X105394311Y-173195202D01*
X105139373Y-173204667D01*
X104810294Y-173191605D01*
X104575918Y-173138694D01*
X104362718Y-173025351D01*
X104271226Y-172961622D01*
X103868766Y-172573424D01*
X103531816Y-172054815D01*
X103268071Y-171434540D01*
X103085226Y-170741346D01*
X102990976Y-170003980D01*
X102993018Y-169251187D01*
X103090505Y-168550979D01*
X103301086Y-167843950D01*
X103623393Y-167120420D01*
X104029428Y-166429286D01*
X104491190Y-165819447D01*
X104881277Y-165423521D01*
X105074844Y-165253568D01*
X105512667Y-165253568D01*
X105588982Y-165375477D01*
X105785789Y-165474498D01*
X106054876Y-165542365D01*
X106348035Y-165570812D01*
X106617055Y-165551572D01*
X106813426Y-165476600D01*
X106915510Y-165326985D01*
X106908191Y-165230352D01*
X106774217Y-165080650D01*
X106544254Y-164971815D01*
X106291168Y-164931942D01*
X106175075Y-164947657D01*
X105840562Y-165056326D01*
X105610517Y-165159907D01*
X105513916Y-165245019D01*
X105512667Y-165253568D01*
X105074844Y-165253568D01*
X105177789Y-165163181D01*
X104957485Y-164728433D01*
X104706880Y-164065811D01*
X104561033Y-163279862D01*
X104520429Y-162380677D01*
X104585549Y-161378348D01*
X104747285Y-160332011D01*
X104936916Y-159509738D01*
X105171377Y-158748563D01*
X105441872Y-158064252D01*
X105739603Y-157472569D01*
X106055773Y-156989279D01*
X106381584Y-156630146D01*
X106708238Y-156410937D01*
X106971275Y-156346628D01*
X107445103Y-156366515D01*
G37*
G36*
X110797134Y-156971755D02*
G01*
X111113485Y-157056295D01*
X111436268Y-157236134D01*
X111793393Y-157526943D01*
X112212770Y-157944395D01*
X112226879Y-157959329D01*
X112625318Y-158427008D01*
X112946645Y-158919109D01*
X113164511Y-159340621D01*
X113634432Y-160412805D01*
X114025966Y-161484447D01*
X114319915Y-162501910D01*
X114366197Y-162698123D01*
X114607129Y-164002251D01*
X114716298Y-165202444D01*
X114693213Y-166301735D01*
X114537382Y-167303155D01*
X114248313Y-168209735D01*
X113825514Y-169024507D01*
X113268493Y-169750502D01*
X113212321Y-169810996D01*
X112969625Y-170076098D01*
X112766758Y-170311690D01*
X112636843Y-170478796D01*
X112614338Y-170514632D01*
X112567650Y-170617886D01*
X112610670Y-170626951D01*
X112770659Y-170549737D01*
X113051286Y-170380400D01*
X113386090Y-170143190D01*
X113728162Y-169875239D01*
X114030594Y-169613678D01*
X114246476Y-169395638D01*
X114278398Y-169356279D01*
X114433683Y-169089766D01*
X114484296Y-168855185D01*
X114423471Y-168692229D01*
X114395309Y-168670453D01*
X114385929Y-168577012D01*
X114505602Y-168403985D01*
X114556973Y-168347956D01*
X114716189Y-168162080D01*
X114891166Y-167916355D01*
X115094362Y-167590226D01*
X115338237Y-167163139D01*
X115635249Y-166614539D01*
X115821347Y-166262000D01*
X116194338Y-165584806D01*
X116524188Y-165061022D01*
X116817790Y-164682288D01*
X117082039Y-164440241D01*
X117323827Y-164326521D01*
X117426521Y-164314983D01*
X117485123Y-164341372D01*
X117394571Y-164424496D01*
X117313421Y-164476431D01*
X117172404Y-164586114D01*
X117017975Y-164758539D01*
X116838493Y-165011565D01*
X116622317Y-165363053D01*
X116357806Y-165830863D01*
X116033319Y-166432856D01*
X116011670Y-166473667D01*
X115650136Y-167132588D01*
X115333217Y-167657922D01*
X115045310Y-168074347D01*
X114834702Y-168335010D01*
X114614334Y-168587686D01*
X114826000Y-168422460D01*
X114947372Y-168315928D01*
X115168562Y-168110272D01*
X115468809Y-167825257D01*
X115827354Y-167480649D01*
X116223435Y-167096213D01*
X116392334Y-166931205D01*
X116932529Y-166409624D01*
X117371115Y-166003317D01*
X117720455Y-165702317D01*
X117992910Y-165496659D01*
X118200841Y-165376380D01*
X118356611Y-165331513D01*
X118377796Y-165330667D01*
X118466045Y-165369298D01*
X118435380Y-165453386D01*
X118308291Y-165535226D01*
X118276167Y-165546262D01*
X118161561Y-165621955D01*
X117949832Y-165800624D01*
X117661484Y-166063432D01*
X117317018Y-166391542D01*
X116936937Y-166766117D01*
X116815667Y-166888138D01*
X116408336Y-167292286D01*
X116010465Y-167673020D01*
X115647756Y-168006788D01*
X115345914Y-168270038D01*
X115130643Y-168439218D01*
X115101167Y-168459096D01*
X114827764Y-168662266D01*
X114678319Y-168833957D01*
X114656667Y-168905130D01*
X114579014Y-169202648D01*
X114356054Y-169539192D01*
X114002785Y-169899238D01*
X113534207Y-170267260D01*
X113026834Y-170592152D01*
X112756342Y-170762328D01*
X112554508Y-170912344D01*
X112457372Y-171014782D01*
X112453631Y-171028235D01*
X112415568Y-171429044D01*
X112325139Y-171892262D01*
X112200820Y-172338520D01*
X112072428Y-172665808D01*
X111830126Y-173044764D01*
X111552070Y-173281421D01*
X111254743Y-173367910D01*
X110954623Y-173296359D01*
X110865506Y-173242199D01*
X110712151Y-173051400D01*
X110704185Y-172921483D01*
X110898495Y-172921483D01*
X110904785Y-173003603D01*
X111019049Y-173094770D01*
X111221123Y-173118068D01*
X111445426Y-173077358D01*
X111626376Y-172976503D01*
X111642402Y-172960168D01*
X111777046Y-172758172D01*
X111901448Y-172479672D01*
X112006740Y-172162384D01*
X112084054Y-171844024D01*
X112124522Y-171562308D01*
X112119275Y-171354953D01*
X112059447Y-171259673D01*
X112042783Y-171257334D01*
X111899108Y-171328142D01*
X111708815Y-171516004D01*
X111495915Y-171784073D01*
X111284422Y-172095502D01*
X111098346Y-172413444D01*
X110961700Y-172701054D01*
X110898495Y-172921483D01*
X110704185Y-172921483D01*
X110695744Y-172783827D01*
X110816765Y-172430930D01*
X110922500Y-172231000D01*
X111077567Y-171998852D01*
X111287419Y-171732664D01*
X111520924Y-171466228D01*
X111746954Y-171233337D01*
X111934379Y-171067783D01*
X112052068Y-171003358D01*
X112053440Y-171003334D01*
X112123853Y-170932404D01*
X112226373Y-170751581D01*
X112286971Y-170620069D01*
X112418874Y-170388846D01*
X112635469Y-170088596D01*
X112900039Y-169768333D01*
X113040499Y-169614259D01*
X113482534Y-169090166D01*
X113822770Y-168544690D01*
X114088074Y-167927258D01*
X114283232Y-167275121D01*
X114368905Y-166801879D01*
X114422258Y-166208846D01*
X114443252Y-165542460D01*
X114431849Y-164849159D01*
X114388010Y-164175380D01*
X114311695Y-163567560D01*
X114286453Y-163425667D01*
X114013597Y-162197301D01*
X113686915Y-161075002D01*
X113311594Y-160071169D01*
X112892824Y-159198205D01*
X112435791Y-158468510D01*
X111991580Y-157940022D01*
X111712029Y-157675580D01*
X111436703Y-157445103D01*
X111213166Y-157287554D01*
X111159758Y-157258627D01*
X110758589Y-157139571D01*
X110342874Y-157134562D01*
X110047703Y-157215626D01*
X109811320Y-157396974D01*
X109554003Y-157723236D01*
X109284404Y-158172597D01*
X109011178Y-158723242D01*
X108742976Y-159353358D01*
X108488451Y-160041129D01*
X108256258Y-160764740D01*
X108055049Y-161502378D01*
X107893477Y-162232227D01*
X107780277Y-162931832D01*
X107726621Y-163590007D01*
X107755694Y-164132895D01*
X107874677Y-164596751D01*
X108090750Y-165017835D01*
X108233011Y-165217938D01*
X108564633Y-165639760D01*
X108826996Y-165947100D01*
X109048520Y-166163797D01*
X109257622Y-166313691D01*
X109482722Y-166420620D01*
X109752240Y-166508423D01*
X109781223Y-166516646D01*
X110219398Y-166661804D01*
X110683920Y-166852204D01*
X111135332Y-167067916D01*
X111534176Y-167289013D01*
X111840995Y-167495564D01*
X111989631Y-167632065D01*
X112159085Y-167922335D01*
X112196112Y-168201694D01*
X112111236Y-168435698D01*
X111914979Y-168589903D01*
X111683913Y-168632667D01*
X111431113Y-168596353D01*
X111150983Y-168479165D01*
X110824853Y-168268735D01*
X110434056Y-167952695D01*
X109959922Y-167518676D01*
X109864578Y-167427349D01*
X109167344Y-166755792D01*
X109624911Y-166755792D01*
X109638052Y-166830354D01*
X109781192Y-166994947D01*
X110048547Y-167254011D01*
X110084667Y-167287882D01*
X110601773Y-167746258D01*
X111043220Y-168084218D01*
X111403133Y-168298647D01*
X111675637Y-168386428D01*
X111854855Y-168344443D01*
X111914177Y-168258283D01*
X111902760Y-168061408D01*
X111743095Y-167831916D01*
X111450181Y-167582184D01*
X111039016Y-167324590D01*
X110524597Y-167071513D01*
X110423334Y-167027875D01*
X110011767Y-166858994D01*
X109747554Y-166766819D01*
X109624911Y-166755792D01*
X109167344Y-166755792D01*
X108969724Y-166565450D01*
X108437408Y-166531554D01*
X107787543Y-166552193D01*
X107238758Y-166705312D01*
X106783565Y-166993442D01*
X106630382Y-167142311D01*
X106168020Y-167763142D01*
X105845651Y-168472264D01*
X105662064Y-169273558D01*
X105616047Y-170170907D01*
X105623561Y-170368334D01*
X105705816Y-171125512D01*
X105864598Y-171808378D01*
X106091198Y-172396738D01*
X106376910Y-172870401D01*
X106713027Y-173209173D01*
X106896954Y-173321512D01*
X107088990Y-173403583D01*
X107266876Y-173438463D01*
X107490374Y-173430041D01*
X107819249Y-173382207D01*
X107822159Y-173381726D01*
X108390127Y-173236577D01*
X108952229Y-173003425D01*
X108995394Y-172981142D01*
X109460663Y-172697866D01*
X109989898Y-172311503D01*
X110545106Y-171854163D01*
X111088295Y-171357957D01*
X111581471Y-170854992D01*
X111791333Y-170618182D01*
X112055169Y-170318134D01*
X112260541Y-170102561D01*
X112396904Y-169978163D01*
X112453713Y-169951641D01*
X112420423Y-170029694D01*
X112286490Y-170219023D01*
X112154615Y-170387350D01*
X111585705Y-171044659D01*
X110967130Y-171668835D01*
X110324772Y-172238850D01*
X109684512Y-172733680D01*
X109072232Y-173132298D01*
X108513812Y-173413678D01*
X108355251Y-173473963D01*
X107899703Y-173583666D01*
X107425534Y-173617843D01*
X106992994Y-173576067D01*
X106713209Y-173485611D01*
X106360043Y-173223472D01*
X106051278Y-172822416D01*
X105792618Y-172308379D01*
X105589765Y-171707299D01*
X105448425Y-171045110D01*
X105374300Y-170347749D01*
X105373096Y-169641152D01*
X105450515Y-168951255D01*
X105589298Y-168375075D01*
X105878225Y-167673848D01*
X106261637Y-167111549D01*
X106737358Y-166689898D01*
X107303214Y-166410612D01*
X107957030Y-166275411D01*
X108263336Y-166262000D01*
X108737688Y-166262000D01*
X108310956Y-165734609D01*
X108005054Y-165338484D01*
X107797908Y-165010721D01*
X107668938Y-164699549D01*
X107597562Y-164353193D01*
X107563201Y-163919882D01*
X107560022Y-163845577D01*
X107587005Y-162975141D01*
X107728025Y-162015496D01*
X107975638Y-160995401D01*
X108322402Y-159943616D01*
X108760872Y-158888900D01*
X108940002Y-158513489D01*
X109223861Y-157969590D01*
X109474727Y-157566542D01*
X109712317Y-157284272D01*
X109956347Y-157102710D01*
X110226533Y-157001784D01*
X110459304Y-156966843D01*
X110797134Y-156971755D01*
G37*
D12*
%TO.C,RP2040Zero1*%
X117100600Y-132422600D02*
X117100600Y-155922600D01*
X117100600Y-155922600D02*
X135100600Y-155922600D01*
X135100600Y-132422600D02*
X117100600Y-132422600D01*
X135100600Y-155922600D02*
X135100600Y-132422600D01*
%TD*%
M02*
