M48
; DRILL file {KiCad 9.0.0} date 2025-03-22T22:46:13+0100
; FORMAT={-:-/ absolute / metric / decimal}
; #@! TF.CreationDate,2025-03-22T22:46:13+01:00
; #@! TF.GenerationSoftware,Kicad,Pcbnew,9.0.0
; #@! TF.FileFunction,NonPlated,1,2,NPTH
FMAT,2
METRIC
; #@! TA.AperFunction,NonPlated,NPTH,ComponentDrill
T1C1.702
; #@! TA.AperFunction,NonPlated,NPTH,ComponentDrill
T2C3.000
; #@! TA.AperFunction,NonPlated,NPTH,ComponentDrill
T3C3.988
%
G90
G05
T1
X118.108Y-133.152
X118.108Y-133.152
X124.624Y-115.251
X124.624Y-115.251
X127.656Y-136.627
X127.656Y-136.627
X134.171Y-118.726
X134.171Y-118.726
X140.741Y-128.431
X140.741Y-128.431
X147.877Y-110.768
X147.877Y-110.768
X150.161Y-132.237
X150.161Y-132.237
X157.297Y-114.575
X157.297Y-114.575
X160.81Y-130.956
X160.81Y-130.956
X168.558Y-113.553
X168.558Y-113.553
X170.091Y-135.088
X170.091Y-135.088
X172.545Y-184.806
X172.545Y-184.806
X175.491Y-146.055
X175.491Y-146.055
X176.515Y-175.454
X176.515Y-175.454
X177.84Y-117.685
X177.84Y-117.685
X183.842Y-128.933
X183.842Y-128.933
X184.622Y-150.509
X184.622Y-150.509
X190.081Y-192.25
X190.081Y-192.25
X192.973Y-133.387
X192.973Y-133.387
X194.05Y-182.898
X194.05Y-182.898
X230.39Y-182.898
X230.39Y-182.898
X231.467Y-133.387
X231.467Y-133.387
X234.36Y-192.25
X234.36Y-192.25
X239.818Y-150.509
X239.818Y-150.509
X240.598Y-128.933
X240.598Y-128.933
X246.6Y-117.685
X246.6Y-117.685
X247.925Y-175.454
X247.925Y-175.454
X248.949Y-146.055
X248.949Y-146.055
X251.895Y-184.806
X251.895Y-184.806
X254.349Y-135.088
X254.349Y-135.088
X255.882Y-113.553
X255.882Y-113.553
X263.63Y-130.956
X263.63Y-130.956
X267.143Y-114.575
X267.143Y-114.575
X274.279Y-132.237
X274.279Y-132.237
X276.563Y-110.768
X276.563Y-110.768
X283.699Y-128.431
X283.699Y-128.431
X290.269Y-118.726
X290.269Y-118.726
X296.784Y-136.627
X296.784Y-136.627
X299.816Y-115.251
X299.816Y-115.251
X306.332Y-133.152
X306.332Y-133.152
T2
X120.17Y-131.2
X126.686Y-113.299
X127.006Y-130.985
X133.522Y-113.084
X142.87Y-126.552
X149.709Y-126.576
X150.006Y-108.889
X156.845Y-108.913
X163.003Y-129.152
X169.837Y-129.414
X170.703Y-182.645
X170.752Y-111.749
X170.846Y-175.807
X177.586Y-112.011
X177.746Y-144.329
X184.566Y-144.83
X186.097Y-127.207
X188.239Y-190.088
X188.382Y-183.251
X192.917Y-127.708
X231.495Y-130.547
X233.224Y-183.074
X236.089Y-125.481
X238.043Y-187.927
X239.846Y-147.669
X244.44Y-142.603
X246.727Y-114.848
X250.76Y-175.631
X251.495Y-109.945
X254.476Y-132.251
X255.579Y-180.483
X259.244Y-127.348
X267.369Y-111.744
X272.305Y-107.01
X274.505Y-129.407
X279.441Y-124.673
X290.594Y-115.905
X295.692Y-111.346
X297.109Y-133.806
X302.207Y-129.248
T3
X122.882Y-134.89
X122.882Y-134.89
X129.397Y-116.989
X129.397Y-116.989
X145.451Y-130.334
X145.451Y-130.334
X152.587Y-112.671
X152.587Y-112.671
X165.451Y-133.022
X165.451Y-133.022
X173.199Y-115.619
X173.199Y-115.619
X174.53Y-180.13
X174.53Y-180.13
X180.056Y-148.282
X180.056Y-148.282
X188.407Y-131.16
X188.407Y-131.16
X192.065Y-187.574
X192.065Y-187.574
X232.375Y-187.574
X232.375Y-187.574
X236.032Y-131.16
X236.032Y-131.16
X244.383Y-148.282
X244.383Y-148.282
X249.91Y-180.13
X249.91Y-180.13
X251.241Y-115.619
X251.241Y-115.619
X258.989Y-133.022
X258.989Y-133.022
X271.853Y-112.671
X271.853Y-112.671
X278.989Y-130.334
X278.989Y-130.334
X295.043Y-116.989
X295.043Y-116.989
X301.558Y-134.89
X301.558Y-134.89
M30
