%TF.GenerationSoftware,KiCad,Pcbnew,9.0.0*%
%TF.CreationDate,2025-02-21T22:11:59+01:00*%
%TF.ProjectId,chouchou_mx,63686f75-6368-46f7-955f-6d782e6b6963,v1.0.0*%
%TF.SameCoordinates,Original*%
%TF.FileFunction,Copper,L2,Bot*%
%TF.FilePolarity,Positive*%
%FSLAX46Y46*%
G04 Gerber Fmt 4.6, Leading zero omitted, Abs format (unit mm)*
G04 Created by KiCad (PCBNEW 9.0.0) date 2025-02-21 22:11:59*
%MOMM*%
%LPD*%
G01*
G04 APERTURE LIST*
G04 Aperture macros list*
%AMRoundRect*
0 Rectangle with rounded corners*
0 $1 Rounding radius*
0 $2 $3 $4 $5 $6 $7 $8 $9 X,Y pos of 4 corners*
0 Add a 4 corners polygon primitive as box body*
4,1,4,$2,$3,$4,$5,$6,$7,$8,$9,$2,$3,0*
0 Add four circle primitives for the rounded corners*
1,1,$1+$1,$2,$3*
1,1,$1+$1,$4,$5*
1,1,$1+$1,$6,$7*
1,1,$1+$1,$8,$9*
0 Add four rect primitives between the rounded corners*
20,1,$1+$1,$2,$3,$4,$5,0*
20,1,$1+$1,$4,$5,$6,$7,0*
20,1,$1+$1,$6,$7,$8,$9,0*
20,1,$1+$1,$8,$9,$2,$3,0*%
%AMRotRect*
0 Rectangle, with rotation*
0 The origin of the aperture is its center*
0 $1 length*
0 $2 width*
0 $3 Rotation angle, in degrees counterclockwise*
0 Add horizontal line*
21,1,$1,$2,0,0,$3*%
G04 Aperture macros list end*
%TA.AperFunction,SMDPad,CuDef*%
%ADD10RotRect,2.550000X2.500000X24.000000*%
%TD*%
%TA.AperFunction,ComponentPad*%
%ADD11C,0.700000*%
%TD*%
%TA.AperFunction,ComponentPad*%
%ADD12C,4.400000*%
%TD*%
%TA.AperFunction,SMDPad,CuDef*%
%ADD13RotRect,2.550000X2.500000X22.000000*%
%TD*%
%TA.AperFunction,SMDPad,CuDef*%
%ADD14RotRect,2.550000X2.500000X67.000000*%
%TD*%
%TA.AperFunction,SMDPad,CuDef*%
%ADD15RotRect,2.550000X2.500000X336.000000*%
%TD*%
%TA.AperFunction,ComponentPad*%
%ADD16C,2.286000*%
%TD*%
%TA.AperFunction,SMDPad,CuDef*%
%ADD17RotRect,2.550000X2.500000X334.000000*%
%TD*%
%TA.AperFunction,SMDPad,CuDef*%
%ADD18RotRect,2.550000X2.500000X26.000000*%
%TD*%
%TA.AperFunction,SMDPad,CuDef*%
%ADD19RotRect,2.550000X2.500000X340.000000*%
%TD*%
%TA.AperFunction,SMDPad,CuDef*%
%ADD20RotRect,2.550000X2.500000X293.000000*%
%TD*%
%TA.AperFunction,SMDPad,CuDef*%
%ADD21RotRect,2.550000X2.500000X338.000000*%
%TD*%
%TA.AperFunction,SMDPad,CuDef*%
%ADD22RotRect,2.550000X2.500000X20.000000*%
%TD*%
%TA.AperFunction,ComponentPad*%
%ADD23RoundRect,0.400000X-0.900000X-0.400000X0.900000X-0.400000X0.900000X0.400000X-0.900000X0.400000X0*%
%TD*%
%TA.AperFunction,ComponentPad*%
%ADD24RoundRect,0.400050X-0.899950X-0.400050X0.899950X-0.400050X0.899950X0.400050X-0.899950X0.400050X0*%
%TD*%
%TA.AperFunction,ComponentPad*%
%ADD25RoundRect,0.400000X-0.400000X-0.900000X0.400000X-0.900000X0.400000X0.900000X-0.400000X0.900000X0*%
%TD*%
%TA.AperFunction,ComponentPad*%
%ADD26RoundRect,0.393700X-0.393700X-0.906300X0.393700X-0.906300X0.393700X0.906300X-0.393700X0.906300X0*%
%TD*%
%TA.AperFunction,ViaPad*%
%ADD27C,0.800000*%
%TD*%
%TA.AperFunction,Conductor*%
%ADD28C,0.250000*%
%TD*%
G04 APERTURE END LIST*
D10*
%TO.P,S16,1*%
%TO.N,GP1*%
X157456119Y-117892824D03*
%TO.P,S16,2*%
%TO.N,GND*%
X168232410Y-110314534D03*
%TD*%
D11*
%TO.P,_1,1*%
%TO.N,N/C*%
X52217707Y-108684567D03*
X53070880Y-107753492D03*
X52272792Y-109946220D03*
X54332533Y-107698407D03*
D12*
X53768200Y-109248900D03*
D11*
X53203867Y-110799393D03*
X55263608Y-108551580D03*
X54465520Y-110744308D03*
X55318693Y-109813233D03*
%TD*%
D13*
%TO.P,S13,1*%
%TO.N,GP6*%
X185188902Y-132345941D03*
%TO.P,S13,2*%
%TO.N,GND*%
X196223107Y-125148354D03*
%TD*%
D14*
%TO.P,S9,1*%
%TO.N,GP11*%
X83143988Y-187372220D03*
%TO.P,S9,2*%
%TO.N,GND*%
X85856888Y-174480397D03*
%TD*%
D15*
%TO.P,S6,1*%
%TO.N,GP28*%
X81480242Y-112129365D03*
%TO.P,S6,2*%
%TO.N,GND*%
X94322755Y-115066845D03*
%TD*%
D16*
%TO.P,S22,1*%
%TO.N,GP26*%
X38993717Y-122606307D03*
%TO.P,S22,2*%
%TO.N,GND*%
X45829498Y-122391316D03*
%TD*%
D17*
%TO.P,S8,1*%
%TO.N,GP29*%
X96873607Y-127483804D03*
%TO.P,S8,2*%
%TO.N,GND*%
X109605780Y-130867690D03*
%TD*%
D18*
%TO.P,S17,1*%
%TO.N,GP4*%
X150622681Y-150817523D03*
%TO.P,S17,2*%
%TO.N,GND*%
X161127929Y-142867762D03*
%TD*%
D10*
%TO.P,S15,1*%
%TO.N,GP5*%
X165204419Y-135295924D03*
%TO.P,S15,2*%
%TO.N,GND*%
X175980710Y-127717634D03*
%TD*%
D16*
%TO.P,S39,1*%
%TO.N,GP8*%
X157962178Y-181489732D03*
%TO.P,S39,2*%
%TO.N,GND*%
X162781403Y-186342481D03*
%TD*%
%TO.P,S35,1*%
%TO.N,GP5*%
X172455817Y-140408522D03*
%TO.P,S35,2*%
%TO.N,GND*%
X177223719Y-135505339D03*
%TD*%
D11*
%TO.P,_4,1*%
%TO.N,N/C*%
X176297050Y-146847815D03*
X176263993Y-145585393D03*
X177213093Y-147717107D03*
X177133285Y-144669350D03*
D12*
X177804400Y-146176700D03*
D11*
X178475515Y-147684050D03*
X178395707Y-144636293D03*
X179344807Y-146768007D03*
X179311750Y-145505585D03*
%TD*%
D16*
%TO.P,S36,1*%
%TO.N,GP1*%
X164707517Y-123005422D03*
%TO.P,S36,2*%
%TO.N,GND*%
X169475419Y-118102239D03*
%TD*%
%TO.P,S25,1*%
%TO.N,GP14*%
X74784572Y-138342300D03*
%TO.P,S25,2*%
%TO.N,GND*%
X81618697Y-138604672D03*
%TD*%
%TO.P,S33,1*%
%TO.N,GP6*%
X192257455Y-137708495D03*
%TO.P,S33,2*%
%TO.N,GND*%
X197193571Y-132974696D03*
%TD*%
D19*
%TO.P,S2,1*%
%TO.N,GP26*%
X37329009Y-113891368D03*
%TO.P,S2,2*%
%TO.N,GND*%
X50345147Y-115925843D03*
%TD*%
D11*
%TO.P,_5,1*%
%TO.N,N/C*%
X97748990Y-117385588D03*
X97671895Y-118646086D03*
X98694814Y-116548795D03*
X99955312Y-116625890D03*
D12*
X99232000Y-118108900D03*
D11*
X98508688Y-119591910D03*
X99769186Y-119669005D03*
X100792105Y-117571714D03*
X100715010Y-118832212D03*
%TD*%
D19*
%TO.P,S1,1*%
%TO.N,GP12*%
X30813509Y-131792468D03*
%TO.P,S1,2*%
%TO.N,GND*%
X43829647Y-133826943D03*
%TD*%
D20*
%TO.P,S19,1*%
%TO.N,GP8*%
X163200552Y-174328666D03*
%TO.P,S19,2*%
%TO.N,GND*%
X170589616Y-185235575D03*
%TD*%
D16*
%TO.P,S29,1*%
%TO.N,GP11*%
X91934108Y-186165896D03*
%TO.P,S29,2*%
%TO.N,GND*%
X92077168Y-179328234D03*
%TD*%
D21*
%TO.P,S3,1*%
%TO.N,GP13*%
X53554103Y-127037765D03*
%TO.P,S3,2*%
%TO.N,GND*%
X66491310Y-129525258D03*
%TD*%
D16*
%TO.P,S24,1*%
%TO.N,GP27*%
X62049952Y-118142693D03*
%TO.P,S24,2*%
%TO.N,GND*%
X68889070Y-118166398D03*
%TD*%
%TO.P,S34,1*%
%TO.N,GP2*%
X185121155Y-120045695D03*
%TO.P,S34,2*%
%TO.N,GND*%
X190057271Y-115311896D03*
%TD*%
%TO.P,S21,1*%
%TO.N,GP12*%
X32478217Y-140507407D03*
%TO.P,S21,2*%
%TO.N,GND*%
X39313998Y-140292416D03*
%TD*%
%TO.P,S26,1*%
%TO.N,GP28*%
X82532972Y-120939200D03*
%TO.P,S26,2*%
%TO.N,GND*%
X89367097Y-121201572D03*
%TD*%
D22*
%TO.P,S12,1*%
%TO.N,GP3*%
X201236748Y-118737793D03*
%TO.P,S12,2*%
%TO.N,GND*%
X212515422Y-111929680D03*
%TD*%
D16*
%TO.P,S31,1*%
%TO.N,GP7*%
X214629343Y-142244870D03*
%TO.P,S31,2*%
%TO.N,GND*%
X219727660Y-137686223D03*
%TD*%
D14*
%TO.P,S10,1*%
%TO.N,GP10*%
X100679688Y-194815620D03*
%TO.P,S10,2*%
%TO.N,GND*%
X103392588Y-181923797D03*
%TD*%
D23*
%TO.P,RP2040Zero1,1*%
%TO.N,GP0*%
X134320600Y-134012600D03*
X134320600Y-134012600D03*
%TO.P,RP2040Zero1,2*%
%TO.N,GP1*%
X134320600Y-136552600D03*
X134320600Y-136552600D03*
%TO.P,RP2040Zero1,3*%
%TO.N,GP2*%
X134320600Y-139092600D03*
X134320600Y-139092600D03*
%TO.P,RP2040Zero1,4*%
%TO.N,GP3*%
X134320600Y-141632600D03*
X134320600Y-141632600D03*
%TO.P,RP2040Zero1,5*%
%TO.N,GP4*%
X134320600Y-144172600D03*
X134320600Y-144172600D03*
D24*
%TO.P,RP2040Zero1,6*%
%TO.N,GP5*%
X134320600Y-146712600D03*
X134320600Y-146712600D03*
%TO.P,RP2040Zero1,7*%
%TO.N,GP6*%
X134320600Y-149252600D03*
X134320600Y-149252600D03*
%TO.P,RP2040Zero1,8*%
%TO.N,GP7*%
X134320600Y-151792600D03*
X134320600Y-151792600D03*
%TO.P,RP2040Zero1,9*%
%TO.N,GP8*%
X134320600Y-154332600D03*
X134320600Y-154332600D03*
D25*
%TO.P,RP2040Zero1,10*%
%TO.N,GP9*%
X131180600Y-155142600D03*
X131180600Y-155142600D03*
D26*
%TO.P,RP2040Zero1,11*%
%TO.N,GP10*%
X128640600Y-155142600D03*
X128640600Y-155142600D03*
%TO.P,RP2040Zero1,12*%
%TO.N,GP11*%
X126100600Y-155142600D03*
X126100600Y-155142600D03*
%TO.P,RP2040Zero1,13*%
%TO.N,GP12*%
X123560600Y-155142600D03*
X123560600Y-155142600D03*
%TO.P,RP2040Zero1,14*%
%TO.N,GP13*%
X121020600Y-155142600D03*
X121020600Y-155142600D03*
D24*
%TO.P,RP2040Zero1,15*%
%TO.N,GP14*%
X117880600Y-154332600D03*
X117880600Y-154332600D03*
%TO.P,RP2040Zero1,16*%
%TO.N,GP15*%
X117880600Y-151792600D03*
X117880600Y-151792600D03*
%TO.P,RP2040Zero1,17*%
%TO.N,GP26*%
X117880600Y-149252600D03*
X117880600Y-149252600D03*
%TO.P,RP2040Zero1,18*%
%TO.N,GP27*%
X117880600Y-146712600D03*
X117880600Y-146712600D03*
%TO.P,RP2040Zero1,19*%
%TO.N,P5V*%
X117880600Y-134012600D03*
X117880600Y-134012600D03*
%TO.P,RP2040Zero1,20*%
%TO.N,GND*%
X117880600Y-136552600D03*
X117880600Y-136552600D03*
%TO.P,RP2040Zero1,21*%
%TO.N,P3V3*%
X117880600Y-139092600D03*
X117880600Y-139092600D03*
%TO.P,RP2040Zero1,22*%
%TO.N,GP28*%
X117880600Y-144172600D03*
X117880600Y-144172600D03*
%TO.P,RP2040Zero1,23*%
%TO.N,GP29*%
X117880600Y-141632600D03*
X117880600Y-141632600D03*
%TD*%
D16*
%TO.P,S30,1*%
%TO.N,GP10*%
X109469808Y-193609296D03*
%TO.P,S30,2*%
%TO.N,GND*%
X109612868Y-186771634D03*
%TD*%
D11*
%TO.P,_7,1*%
%TO.N,N/C*%
X91479594Y-198612733D03*
X90594447Y-197712001D03*
X92742401Y-198623753D03*
X90605467Y-196449194D03*
D12*
X92124300Y-197093900D03*
D11*
X93643133Y-197738606D03*
X91506199Y-195564047D03*
X93654153Y-196475799D03*
X92769006Y-195575067D03*
%TD*%
%TO.P,_3,1*%
%TO.N,N/C*%
X72569450Y-145505585D03*
X73485493Y-144636293D03*
X72536393Y-146768007D03*
X74747915Y-144669350D03*
D12*
X74076800Y-146176700D03*
D11*
X73405685Y-147684050D03*
X75617207Y-145585393D03*
X74668107Y-147717107D03*
X75584150Y-146847815D03*
%TD*%
%TO.P,_6,1*%
%TO.N,N/C*%
X151166190Y-118832212D03*
X151089095Y-117571714D03*
X152112014Y-119669005D03*
X151925888Y-116625890D03*
D12*
X152649200Y-118108900D03*
D11*
X153372512Y-119591910D03*
X153186386Y-116548795D03*
X154209305Y-118646086D03*
X154132210Y-117385588D03*
%TD*%
D16*
%TO.P,S27,1*%
%TO.N,GP15*%
X89267238Y-153447011D03*
%TO.P,S27,2*%
%TO.N,GND*%
X96088043Y-153947731D03*
%TD*%
%TO.P,S37,1*%
%TO.N,GP4*%
X158048089Y-155673936D03*
%TO.P,S37,2*%
%TO.N,GND*%
X162641968Y-150607343D03*
%TD*%
%TO.P,S28,1*%
%TO.N,GP29*%
X97618238Y-136325011D03*
%TO.P,S28,2*%
%TO.N,GND*%
X104439043Y-136825731D03*
%TD*%
%TO.P,S38,1*%
%TO.N,GP0*%
X149697089Y-138551936D03*
%TO.P,S38,2*%
%TO.N,GND*%
X154290968Y-133485343D03*
%TD*%
%TO.P,S40,1*%
%TO.N,GP9*%
X140426578Y-188933132D03*
%TO.P,S40,2*%
%TO.N,GND*%
X145245803Y-193785881D03*
%TD*%
%TO.P,S32,1*%
%TO.N,GP3*%
X208113843Y-124343770D03*
%TO.P,S32,2*%
%TO.N,GND*%
X213212160Y-119785123D03*
%TD*%
D15*
%TO.P,S5,1*%
%TO.N,GP14*%
X73731842Y-129532465D03*
%TO.P,S5,2*%
%TO.N,GND*%
X86574355Y-132469945D03*
%TD*%
D21*
%TO.P,S4,1*%
%TO.N,GP27*%
X60690403Y-109374965D03*
%TO.P,S4,2*%
%TO.N,GND*%
X73627610Y-111862458D03*
%TD*%
D17*
%TO.P,S7,1*%
%TO.N,GP15*%
X88522607Y-144605804D03*
%TO.P,S7,2*%
%TO.N,GND*%
X101254780Y-147989690D03*
%TD*%
D18*
%TO.P,S18,1*%
%TO.N,GP0*%
X142271681Y-133695523D03*
%TO.P,S18,2*%
%TO.N,GND*%
X152776929Y-125745762D03*
%TD*%
D11*
%TO.P,_2,1*%
%TO.N,N/C*%
X196562507Y-109813233D03*
X196617592Y-108551580D03*
X197415680Y-110744308D03*
X197548667Y-107698407D03*
D12*
X198113000Y-109248900D03*
D11*
X198677333Y-110799393D03*
X198810320Y-107753492D03*
X199608408Y-109946220D03*
X199663493Y-108684567D03*
%TD*%
%TO.P,_8,1*%
%TO.N,N/C*%
X159112194Y-195575067D03*
X160375001Y-195564047D03*
X158227047Y-196475799D03*
X161275733Y-196449194D03*
D12*
X159756900Y-197093900D03*
D11*
X158238067Y-197738606D03*
X161286753Y-197712001D03*
X159138799Y-198623753D03*
X160401606Y-198612733D03*
%TD*%
D16*
%TO.P,S23,1*%
%TO.N,GP13*%
X54913652Y-135805493D03*
%TO.P,S23,2*%
%TO.N,GND*%
X61752770Y-135829198D03*
%TD*%
D22*
%TO.P,S11,1*%
%TO.N,GP7*%
X207752248Y-136638893D03*
%TO.P,S11,2*%
%TO.N,GND*%
X219030922Y-129830780D03*
%TD*%
D13*
%TO.P,S14,1*%
%TO.N,GP2*%
X178052602Y-114683141D03*
%TO.P,S14,2*%
%TO.N,GND*%
X189086807Y-107485554D03*
%TD*%
D20*
%TO.P,S20,1*%
%TO.N,GP9*%
X145664952Y-181772066D03*
%TO.P,S20,2*%
%TO.N,GND*%
X153054016Y-192678975D03*
%TD*%
D27*
%TO.N,GND*%
X101345500Y-179328200D03*
%TO.N,GP26*%
X107556700Y-126049200D03*
%TO.N,GP27*%
X61746500Y-134060500D03*
%TO.N,GP14*%
X113974900Y-141976000D03*
%TO.N,GP28*%
X110815700Y-123845900D03*
%TO.N,GP11*%
X96354600Y-158345000D03*
%TO.N,GP8*%
X160952000Y-183470700D03*
%TD*%
D28*
%TO.N,GND*%
X154291000Y-133485300D02*
X155327800Y-134522100D01*
X71347200Y-113924500D02*
X68889100Y-116382600D01*
X159206200Y-138400500D02*
X159206200Y-138537900D01*
X86574400Y-132469900D02*
X85683000Y-134472000D01*
X50345100Y-115925800D02*
X49606500Y-117955300D01*
X93193200Y-144385300D02*
X93193200Y-121201600D01*
X68889100Y-116382600D02*
X68889100Y-118166400D01*
X149957600Y-192498500D02*
X151007000Y-193547900D01*
X49606500Y-117955300D02*
X48315600Y-117955300D01*
X97852400Y-150612800D02*
X97852400Y-149044500D01*
X175921900Y-134203500D02*
X175921900Y-130669900D01*
X109605800Y-130867700D02*
X108672800Y-132780500D01*
X152867700Y-128500800D02*
X152867700Y-132062000D01*
X155327800Y-134522100D02*
X168173600Y-121676300D01*
X188840200Y-110627200D02*
X188840200Y-114094800D01*
X196223100Y-125148400D02*
X197056200Y-127210400D01*
X43829600Y-133826900D02*
X43091000Y-135856400D01*
X39314000Y-140292400D02*
X39314000Y-138342500D01*
X96088000Y-152377200D02*
X96088000Y-153947700D01*
X90371300Y-179328200D02*
X92077200Y-179328200D01*
X175980700Y-127717600D02*
X175089400Y-125715500D01*
X85856900Y-174480400D02*
X87904000Y-175349300D01*
X98562700Y-149902500D02*
X97852400Y-150612800D01*
X168173600Y-113266800D02*
X169123800Y-112316600D01*
X100321800Y-149902500D02*
X98562700Y-149902500D01*
X160195000Y-140954900D02*
X160194900Y-140955000D01*
X102187700Y-146076800D02*
X102187800Y-146076900D01*
X101254800Y-147989700D02*
X102187800Y-146076900D01*
X73627600Y-111862500D02*
X72794500Y-113924500D01*
X64029400Y-135829200D02*
X65658300Y-134200300D01*
X68889100Y-118166400D02*
X67324300Y-119731200D01*
X89367100Y-121201600D02*
X93193200Y-121201600D01*
X93193200Y-119808900D02*
X93431500Y-119570600D01*
X97852400Y-150612800D02*
X96088000Y-152377200D01*
X153054000Y-192679000D02*
X151007000Y-193547900D01*
X67324300Y-127463300D02*
X67324400Y-127463300D01*
X39314000Y-138342500D02*
X41800100Y-135856400D01*
X168173600Y-121676300D02*
X168173600Y-118102200D01*
X169475400Y-118102200D02*
X175089400Y-123716200D01*
X170589600Y-185235600D02*
X168542600Y-186104500D01*
X159206200Y-138537900D02*
X160195000Y-139526700D01*
X89367100Y-121201600D02*
X89367100Y-128566500D01*
X195976500Y-128290000D02*
X197056100Y-127210400D01*
X84073200Y-134472000D02*
X85683000Y-134472000D01*
X104439000Y-135298800D02*
X104439000Y-136825700D01*
X87904000Y-176860900D02*
X90371300Y-179328200D01*
X190057300Y-117753700D02*
X195390000Y-123086400D01*
X152867700Y-132062000D02*
X154291000Y-133485300D01*
X45829500Y-122391300D02*
X44568100Y-123652700D01*
X94322800Y-115066800D02*
X93431400Y-117068900D01*
X162642000Y-150607300D02*
X161218700Y-149184000D01*
X97852400Y-149044500D02*
X93193200Y-144385300D01*
X81618700Y-138604700D02*
X81618700Y-136926500D01*
X81618700Y-136926500D02*
X84073200Y-134472000D01*
X195976500Y-131757600D02*
X195976500Y-128290000D01*
X67324300Y-119731200D02*
X67324300Y-127463300D01*
X159749500Y-183310600D02*
X162781400Y-186342500D01*
X93431500Y-119570600D02*
X93431500Y-117069000D01*
X167493200Y-185055100D02*
X168542600Y-186104500D01*
X197056100Y-127210400D02*
X197056200Y-127210400D01*
X161127900Y-142867800D02*
X162060900Y-144780600D01*
X196223100Y-125148400D02*
X195390000Y-123086400D01*
X145245800Y-193785900D02*
X146533200Y-192498500D01*
X108672800Y-132780500D02*
X106957300Y-132780500D01*
X175980700Y-127717600D02*
X176872100Y-129719700D01*
X168232400Y-110314500D02*
X169123800Y-112316600D01*
X103392600Y-181923800D02*
X105439700Y-182792700D01*
X96088000Y-153947700D02*
X92077200Y-157958500D01*
X89367100Y-128566500D02*
X87465700Y-130467900D01*
X175089400Y-123716200D02*
X175089400Y-125715500D01*
X41800100Y-135856400D02*
X43091000Y-135856400D01*
X93193200Y-121201600D02*
X93193200Y-119808900D01*
X168173600Y-118102200D02*
X168173600Y-113266800D01*
X164068800Y-185055100D02*
X167493200Y-185055100D01*
X189919900Y-109547600D02*
X189919800Y-109547600D01*
X44568100Y-131797500D02*
X44568200Y-131797500D01*
X159749500Y-153499800D02*
X159749500Y-183310600D01*
X93431500Y-117069000D02*
X93431400Y-117068900D01*
X169475400Y-118102200D02*
X168173600Y-118102200D01*
X215436500Y-133443600D02*
X213212200Y-131219300D01*
X190057300Y-115311900D02*
X190057300Y-117753700D01*
X189086800Y-107485600D02*
X189919900Y-109547600D01*
X103392600Y-181923800D02*
X101345400Y-181054900D01*
X44568100Y-123652700D02*
X44568100Y-131797500D01*
X212515400Y-111929700D02*
X213254000Y-113959200D01*
X105439700Y-184317600D02*
X105439700Y-182792700D01*
X161218700Y-145622800D02*
X162060900Y-144780600D01*
X213212200Y-119785100D02*
X212065800Y-118638700D01*
X213212200Y-131219300D02*
X213212200Y-119785100D01*
X92077200Y-157958500D02*
X92077200Y-179328200D01*
X146533200Y-192498500D02*
X149957600Y-192498500D01*
X219727700Y-137686200D02*
X219727700Y-137416000D01*
X109612900Y-186771600D02*
X107893700Y-186771600D01*
X72794500Y-113924500D02*
X71347200Y-113924500D01*
X66491300Y-129525300D02*
X65658200Y-131587300D01*
X102187700Y-139077000D02*
X102187700Y-146076800D01*
X177223700Y-135505300D02*
X175921900Y-134203500D01*
X162781400Y-186342500D02*
X164068800Y-185055100D01*
X45829500Y-120441400D02*
X45829500Y-122391300D01*
X152776900Y-125745800D02*
X153709900Y-127658600D01*
X101254800Y-147989700D02*
X100321800Y-149902500D01*
X61752800Y-135829200D02*
X64029400Y-135829200D01*
X161127900Y-142867800D02*
X160194900Y-140955000D01*
X212065800Y-115147400D02*
X213254000Y-113959200D01*
X188840200Y-114094800D02*
X190057300Y-115311900D01*
X160195000Y-139526700D02*
X160195000Y-140954900D01*
X65658300Y-134200300D02*
X65658300Y-131587300D01*
X175921900Y-130669900D02*
X176872100Y-129719700D01*
X153709900Y-127658600D02*
X152867700Y-128500800D01*
X189919800Y-109547600D02*
X188840200Y-110627200D01*
X43829600Y-133826900D02*
X44568200Y-131797500D01*
X48315600Y-117955300D02*
X45829500Y-120441400D01*
X66491300Y-129525300D02*
X67324400Y-127463300D01*
X212065800Y-118638700D02*
X212065800Y-115147400D01*
X65658300Y-131587300D02*
X65658200Y-131587300D01*
X161218700Y-149184000D02*
X161218700Y-145622800D01*
X86574400Y-132469900D02*
X87465700Y-130467900D01*
X87904000Y-175349300D02*
X87904000Y-176860900D01*
X106957300Y-132780500D02*
X104439000Y-135298800D01*
X104439000Y-136825700D02*
X102187700Y-139077000D01*
X219727700Y-137416000D02*
X215755300Y-133443600D01*
X101345400Y-181054900D02*
X101345500Y-181054800D01*
X101345500Y-181054800D02*
X101345500Y-179328200D01*
X155327800Y-134522100D02*
X159206200Y-138400500D01*
X215755300Y-133443600D02*
X215436500Y-133443600D01*
X197193600Y-132974700D02*
X195976500Y-131757600D01*
X162642000Y-150607300D02*
X159749500Y-153499800D01*
X107893700Y-186771600D02*
X105439700Y-184317600D01*
%TO.N,GP26*%
X38993700Y-122606300D02*
X36893900Y-120506500D01*
X36893900Y-116224400D02*
X36590400Y-115920900D01*
X36893900Y-120506500D02*
X36893900Y-116224400D01*
X111723600Y-142923800D02*
X111723600Y-130216100D01*
X111723600Y-130216100D02*
X107556700Y-126049200D01*
X37329000Y-113891400D02*
X36590400Y-115920900D01*
X118480600Y-149252600D02*
X118052400Y-149252600D01*
X118052400Y-149252600D02*
X111723600Y-142923800D01*
%TO.N,GP13*%
X53029100Y-133920900D02*
X53029100Y-129407800D01*
X53029100Y-129407800D02*
X52721100Y-129099800D01*
X53554100Y-127037800D02*
X52721000Y-129099800D01*
X52721100Y-129099800D02*
X52721000Y-129099800D01*
X54913700Y-135805500D02*
X53029100Y-133920900D01*
%TO.N,GP27*%
X62050000Y-118142700D02*
X61352900Y-118839800D01*
X61746500Y-129869800D02*
X61746500Y-134060500D01*
X60165400Y-111745000D02*
X59857400Y-111437000D01*
X60165400Y-116258100D02*
X60165400Y-111745000D01*
X61352900Y-129476200D02*
X61746500Y-129869800D01*
X60690400Y-109375000D02*
X59857300Y-111437000D01*
X62050000Y-118142700D02*
X60165400Y-116258100D01*
X61352900Y-118839800D02*
X61352900Y-129476200D01*
X59857400Y-111437000D02*
X59857300Y-111437000D01*
%TO.N,GP14*%
X73090600Y-131784600D02*
X72840500Y-131534500D01*
X73090600Y-136648300D02*
X73090600Y-131784600D01*
X118480600Y-154332600D02*
X119527100Y-153286100D01*
X119527100Y-145983200D02*
X118986500Y-145442600D01*
X113974900Y-142644000D02*
X113974900Y-141976000D01*
X73731800Y-129532500D02*
X72840500Y-131534500D01*
X74784600Y-138342300D02*
X73090600Y-136648300D01*
X118986500Y-145442600D02*
X116773500Y-145442600D01*
X116773500Y-145442600D02*
X113974900Y-142644000D01*
X119527100Y-153286100D02*
X119527100Y-145983200D01*
%TO.N,GP28*%
X113251900Y-139337500D02*
X113251900Y-126282100D01*
X118087000Y-144172600D02*
X113251900Y-139337500D01*
X80839000Y-119245200D02*
X80839000Y-114381500D01*
X82533000Y-120939200D02*
X80839000Y-119245200D01*
X118480600Y-144172600D02*
X118087000Y-144172600D01*
X80839000Y-114381500D02*
X80588900Y-114131400D01*
X81480200Y-112129400D02*
X80588900Y-114131400D01*
X113251900Y-126282100D02*
X110815700Y-123845900D01*
%TO.N,GP15*%
X87763200Y-151943000D02*
X87763200Y-146692200D01*
X87763200Y-146692200D02*
X87589600Y-146518600D01*
X88522600Y-144605800D02*
X87589600Y-146518600D01*
X89267200Y-153447000D02*
X87763200Y-151943000D01*
%TO.N,GP29*%
X96114200Y-134821000D02*
X96114200Y-129570200D01*
X97618200Y-136325000D02*
X96114200Y-134821000D01*
X96873600Y-127483800D02*
X95940600Y-129396600D01*
X96114200Y-129570200D02*
X95940600Y-129396600D01*
%TO.N,GP11*%
X96354600Y-181745400D02*
X91934100Y-186165900D01*
X91934100Y-186165900D02*
X90152400Y-187947600D01*
X85484600Y-187947600D02*
X85191100Y-188241100D01*
X83144000Y-187372200D02*
X85191100Y-188241100D01*
X96354600Y-158345000D02*
X96354600Y-181745400D01*
X90152400Y-187947600D02*
X85484600Y-187947600D01*
%TO.N,GP10*%
X128640600Y-154542600D02*
X127567700Y-153469700D01*
X127567700Y-153469700D02*
X120359100Y-153469700D01*
X109469800Y-193609300D02*
X107688400Y-195390700D01*
X120359100Y-153469700D02*
X119857600Y-153971200D01*
X100679700Y-194815600D02*
X102726800Y-195684500D01*
X119857600Y-153971200D02*
X119857600Y-178848100D01*
X119857600Y-178848100D02*
X109469800Y-189235900D01*
X103020600Y-195390700D02*
X102726800Y-195684500D01*
X107688400Y-195390700D02*
X103020600Y-195390700D01*
X109469800Y-189235900D02*
X109469800Y-193609300D01*
%TO.N,GP7*%
X207752200Y-136638900D02*
X208490800Y-138668400D01*
X214629300Y-142244900D02*
X212296600Y-142244900D01*
X212296600Y-142244900D02*
X208720100Y-138668400D01*
X208720100Y-138668400D02*
X208490800Y-138668400D01*
%TO.N,GP3*%
X205873400Y-124343800D02*
X202296900Y-120767300D01*
X202296900Y-120767300D02*
X201975300Y-120767300D01*
X201236700Y-118737800D02*
X201975300Y-120767300D01*
X208113800Y-124343800D02*
X205873400Y-124343800D01*
%TO.N,GP6*%
X186410500Y-134407900D02*
X186022000Y-134407900D01*
X185188900Y-132345900D02*
X186022000Y-134407900D01*
X189711100Y-137708500D02*
X186410500Y-134407900D01*
X192257500Y-137708500D02*
X189711100Y-137708500D01*
%TO.N,GP2*%
X185121200Y-120045700D02*
X182530800Y-120045700D01*
X182530800Y-120045700D02*
X179230200Y-116745100D01*
X178052600Y-114683100D02*
X178885700Y-116745100D01*
X179230200Y-116745100D02*
X178885700Y-116745100D01*
%TO.N,GP5*%
X166525700Y-137298000D02*
X166095800Y-137298000D01*
X169636200Y-140408500D02*
X166525700Y-137298000D01*
X172455800Y-140408500D02*
X169636200Y-140408500D01*
X165204400Y-135295900D02*
X166095800Y-137298000D01*
%TO.N,GP1*%
X158771800Y-119894900D02*
X158347500Y-119894900D01*
X161882300Y-123005400D02*
X158771800Y-119894900D01*
X164707500Y-123005400D02*
X161882300Y-123005400D01*
X157456100Y-117892800D02*
X158347500Y-119894900D01*
%TO.N,GP4*%
X158048100Y-155673900D02*
X154965000Y-155673900D01*
X150622700Y-150817500D02*
X151555700Y-152730300D01*
X154965000Y-155673900D02*
X152021400Y-152730300D01*
X152021400Y-152730300D02*
X151555700Y-152730300D01*
X148710000Y-148904800D02*
X149689700Y-148904800D01*
X143977800Y-144172600D02*
X148710000Y-148904800D01*
X150622700Y-150817500D02*
X149689700Y-148904800D01*
X133720600Y-144172600D02*
X143977800Y-144172600D01*
%TO.N,GP0*%
X142271700Y-133695500D02*
X143204700Y-135608300D01*
X133720600Y-134012600D02*
X139721100Y-134012600D01*
X142271700Y-133695500D02*
X140344200Y-134635700D01*
X143645700Y-135608300D02*
X143204700Y-135608300D01*
X146589300Y-138551900D02*
X143645700Y-135608300D01*
X139721100Y-134012600D02*
X140344200Y-134635700D01*
X149697100Y-138551900D02*
X146589300Y-138551900D01*
%TO.N,GP8*%
X160952000Y-183470700D02*
X160952000Y-180455800D01*
X160201200Y-176523200D02*
X161153500Y-175570900D01*
X160952000Y-180455800D02*
X160201200Y-179705000D01*
X133720600Y-157248100D02*
X157962200Y-181489700D01*
X161153500Y-175570900D02*
X161153500Y-175197600D01*
X160201200Y-179705000D02*
X160201200Y-176523200D01*
X133720600Y-154332600D02*
X133720600Y-157248100D01*
X163200600Y-174328700D02*
X161153500Y-175197600D01*
%TO.N,GP9*%
X131180600Y-166101600D02*
X144790200Y-179711200D01*
X145665000Y-181772100D02*
X144790200Y-179711200D01*
X131180600Y-154542600D02*
X131180600Y-166101600D01*
%TD*%
M02*
