G04 #@! TF.GenerationSoftware,KiCad,Pcbnew,9.0.0*
G04 #@! TF.CreationDate,2025-03-22T22:46:09+01:00*
G04 #@! TF.ProjectId,chouchou_mx,63686f75-6368-46f7-955f-6d782e6b6963,v1.0.0*
G04 #@! TF.SameCoordinates,Original*
G04 #@! TF.FileFunction,Copper,L1,Top*
G04 #@! TF.FilePolarity,Positive*
%FSLAX46Y46*%
G04 Gerber Fmt 4.6, Leading zero omitted, Abs format (unit mm)*
G04 Created by KiCad (PCBNEW 9.0.0) date 2025-03-22 22:46:09*
%MOMM*%
%LPD*%
G01*
G04 APERTURE LIST*
G04 Aperture macros list*
%AMRoundRect*
0 Rectangle with rounded corners*
0 $1 Rounding radius*
0 $2 $3 $4 $5 $6 $7 $8 $9 X,Y pos of 4 corners*
0 Add a 4 corners polygon primitive as box body*
4,1,4,$2,$3,$4,$5,$6,$7,$8,$9,$2,$3,0*
0 Add four circle primitives for the rounded corners*
1,1,$1+$1,$2,$3*
1,1,$1+$1,$4,$5*
1,1,$1+$1,$6,$7*
1,1,$1+$1,$8,$9*
0 Add four rect primitives between the rounded corners*
20,1,$1+$1,$2,$3,$4,$5,0*
20,1,$1+$1,$4,$5,$6,$7,0*
20,1,$1+$1,$6,$7,$8,$9,0*
20,1,$1+$1,$8,$9,$2,$3,0*%
G04 Aperture macros list end*
G04 #@! TA.AperFunction,ComponentPad*
%ADD10C,0.700000*%
G04 #@! TD*
G04 #@! TA.AperFunction,ComponentPad*
%ADD11C,4.400000*%
G04 #@! TD*
G04 #@! TA.AperFunction,ComponentPad*
%ADD12C,2.286000*%
G04 #@! TD*
G04 #@! TA.AperFunction,ComponentPad*
%ADD13RoundRect,0.400000X-0.900000X-0.400000X0.900000X-0.400000X0.900000X0.400000X-0.900000X0.400000X0*%
G04 #@! TD*
G04 #@! TA.AperFunction,ComponentPad*
%ADD14RoundRect,0.400050X-0.899950X-0.400050X0.899950X-0.400050X0.899950X0.400050X-0.899950X0.400050X0*%
G04 #@! TD*
G04 #@! TA.AperFunction,ComponentPad*
%ADD15RoundRect,0.400000X-0.400000X-0.900000X0.400000X-0.900000X0.400000X0.900000X-0.400000X0.900000X0*%
G04 #@! TD*
G04 #@! TA.AperFunction,ComponentPad*
%ADD16RoundRect,0.393700X-0.393700X-0.906300X0.393700X-0.906300X0.393700X0.906300X-0.393700X0.906300X0*%
G04 #@! TD*
G04 #@! TA.AperFunction,ViaPad*
%ADD17C,0.800000*%
G04 #@! TD*
G04 #@! TA.AperFunction,Conductor*
%ADD18C,0.250000*%
G04 #@! TD*
G04 APERTURE END LIST*
D10*
X138497107Y-106971967D03*
X139350280Y-106040892D03*
X138552192Y-108233620D03*
X140611933Y-105985807D03*
D11*
X140047600Y-107536300D03*
D10*
X139483267Y-109086793D03*
X141543008Y-106838980D03*
X140744920Y-109031708D03*
X141598093Y-108100633D03*
D12*
X125273117Y-120893707D03*
X132108898Y-120678716D03*
X244241578Y-179777132D03*
X249060803Y-184629881D03*
X258735217Y-138695922D03*
X263503119Y-133792739D03*
D10*
X262576450Y-145135215D03*
X262543393Y-143872793D03*
X263492493Y-146004507D03*
X263412685Y-142956750D03*
D11*
X264083800Y-144464100D03*
D10*
X264754915Y-145971450D03*
X264675107Y-142923693D03*
X265624207Y-145055407D03*
X265591150Y-143792985D03*
D12*
X250986917Y-121292822D03*
X255754819Y-116389639D03*
X161063972Y-136629700D03*
X167898097Y-136892072D03*
X278536855Y-135995895D03*
X283472971Y-131262096D03*
D10*
X184028390Y-115672988D03*
X183951295Y-116933486D03*
X184974214Y-114836195D03*
X186234712Y-114913290D03*
D11*
X185511400Y-116396300D03*
D10*
X184788088Y-117879310D03*
X186048586Y-117956405D03*
X187071505Y-115859114D03*
X186994410Y-117119612D03*
D12*
X178213508Y-184453296D03*
X178356568Y-177615634D03*
X148329352Y-116430093D03*
X155168470Y-116453798D03*
X271400555Y-118333095D03*
X276336671Y-113599296D03*
X118757617Y-138794807D03*
X125593398Y-138579816D03*
X168812372Y-119226600D03*
X175646497Y-119488972D03*
X300908743Y-140532270D03*
X306007060Y-135973623D03*
D13*
X220600000Y-132300000D03*
X220600000Y-132300000D03*
X220600000Y-134840000D03*
X220600000Y-134840000D03*
X220600000Y-137380000D03*
X220600000Y-137380000D03*
X220600000Y-139920000D03*
X220600000Y-139920000D03*
X220600000Y-142460000D03*
X220600000Y-142460000D03*
D14*
X220600000Y-145000000D03*
X220600000Y-145000000D03*
X220600000Y-147540000D03*
X220600000Y-147540000D03*
X220600000Y-150080000D03*
X220600000Y-150080000D03*
X220600000Y-152620000D03*
X220600000Y-152620000D03*
D15*
X217460000Y-153430000D03*
X217460000Y-153430000D03*
D16*
X214920000Y-153430000D03*
X214920000Y-153430000D03*
X212380000Y-153430000D03*
X212380000Y-153430000D03*
X209840000Y-153430000D03*
X209840000Y-153430000D03*
X207300000Y-153430000D03*
X207300000Y-153430000D03*
D14*
X204160000Y-152620000D03*
X204160000Y-152620000D03*
X204160000Y-150080000D03*
X204160000Y-150080000D03*
X204160000Y-147540000D03*
X204160000Y-147540000D03*
X204160000Y-145000000D03*
X204160000Y-145000000D03*
X204160000Y-132300000D03*
X204160000Y-132300000D03*
X204160000Y-134840000D03*
X204160000Y-134840000D03*
X204160000Y-137380000D03*
X204160000Y-137380000D03*
X204160000Y-142460000D03*
X204160000Y-142460000D03*
X204160000Y-139920000D03*
X204160000Y-139920000D03*
D12*
X195749208Y-191896696D03*
X195892268Y-185059034D03*
D10*
X177758994Y-196900133D03*
X176873847Y-195999401D03*
X179021801Y-196911153D03*
X176884867Y-194736594D03*
D11*
X178403700Y-195381300D03*
D10*
X179922533Y-196026006D03*
X177785599Y-193851447D03*
X179933553Y-194763199D03*
X179048406Y-193862467D03*
X158848850Y-143792985D03*
X159764893Y-142923693D03*
X158815793Y-145055407D03*
X161027315Y-142956750D03*
D11*
X160356200Y-144464100D03*
D10*
X159685085Y-145971450D03*
X161896607Y-143872793D03*
X160947507Y-146004507D03*
X161863550Y-145135215D03*
X237445590Y-117119612D03*
X237368495Y-115859114D03*
X238391414Y-117956405D03*
X238205288Y-114913290D03*
D11*
X238928600Y-116396300D03*
D10*
X239651912Y-117879310D03*
X239465786Y-114836195D03*
X240488705Y-116933486D03*
X240411610Y-115672988D03*
D12*
X175546638Y-151734411D03*
X182367443Y-152235131D03*
X244327489Y-153961336D03*
X248921368Y-148894743D03*
X183897638Y-134612411D03*
X190718443Y-135113131D03*
X235976489Y-136839336D03*
X240570368Y-131772743D03*
X226705978Y-187220532D03*
X231525203Y-192073281D03*
X294393243Y-122631170D03*
X299491560Y-118072523D03*
D10*
X282841907Y-108100633D03*
X282896992Y-106838980D03*
X283695080Y-109031708D03*
X283828067Y-105985807D03*
D11*
X284392400Y-107536300D03*
D10*
X284956733Y-109086793D03*
X285089720Y-106040892D03*
X285887808Y-108233620D03*
X285942893Y-106971967D03*
X245391594Y-193862467D03*
X246654401Y-193851447D03*
X244506447Y-194763199D03*
X247555133Y-194736594D03*
D11*
X246036300Y-195381300D03*
D10*
X244517467Y-196026006D03*
X247566153Y-195999401D03*
X245418199Y-196911153D03*
X246681006Y-196900133D03*
D12*
X141193052Y-134092893D03*
X148032170Y-134116598D03*
D17*
X187624900Y-177615600D03*
X193836100Y-124336600D03*
X148025900Y-132347900D03*
X200254300Y-140263400D03*
X197095100Y-122133300D03*
X182634000Y-156632400D03*
X247231400Y-181758100D03*
D18*
X209496100Y-152830000D02*
X206691400Y-150025300D01*
X190426900Y-140855500D02*
X150034300Y-140855500D01*
X195841400Y-146270000D02*
X190426900Y-140855500D01*
X206691400Y-147687000D02*
X205274400Y-146270000D01*
X209840000Y-152830000D02*
X209496100Y-152830000D01*
X206691400Y-150025300D02*
X206691400Y-147687000D01*
X205274400Y-146270000D02*
X195841400Y-146270000D01*
X150034300Y-140855500D02*
X141753300Y-132574500D01*
X122789400Y-138794800D02*
X118757600Y-138794800D01*
X129009700Y-132574500D02*
X122789400Y-138794800D01*
X141753300Y-132574500D02*
X129009700Y-132574500D01*
X243547900Y-190142800D02*
X233455700Y-190142800D01*
X273546400Y-116389600D02*
X276336700Y-113599300D01*
X249060800Y-184629900D02*
X243547900Y-190142800D01*
X299491600Y-118072500D02*
X299491600Y-117802300D01*
X240570400Y-131772700D02*
X238570400Y-133772700D01*
X190991500Y-134840000D02*
X190718400Y-135113100D01*
X255754800Y-116389600D02*
X273546400Y-116389600D01*
X150943600Y-120678700D02*
X155168500Y-116453800D01*
X161836600Y-134116600D02*
X164612100Y-136892100D01*
X230842000Y-136030600D02*
X205950600Y-136030600D01*
X164612100Y-136892100D02*
X167898100Y-136892100D01*
X204760000Y-134840000D02*
X190991500Y-134840000D01*
X148032200Y-134116600D02*
X161836600Y-134116600D01*
X233455700Y-190142800D02*
X231525200Y-192073300D01*
X132108900Y-120678700D02*
X150943600Y-120678700D01*
X205950600Y-136030600D02*
X204760000Y-134840000D01*
X299491600Y-117802300D02*
X295288600Y-113599300D01*
X178356600Y-177615600D02*
X187624900Y-177615600D01*
X295288600Y-113599300D02*
X276336700Y-113599300D01*
X238570400Y-133772700D02*
X233099900Y-133772700D01*
X233099900Y-133772700D02*
X230842000Y-136030600D01*
X125273100Y-120893700D02*
X128716000Y-124336600D01*
X128716000Y-124336600D02*
X193836100Y-124336600D01*
X206141600Y-149714200D02*
X206141600Y-151671600D01*
X141193100Y-134092900D02*
X148854800Y-141754600D01*
X188927900Y-141754600D02*
X195983300Y-148810000D01*
X195983300Y-148810000D02*
X205237400Y-148810000D01*
X148854800Y-141754600D02*
X188927900Y-141754600D01*
X206141600Y-151671600D02*
X207300000Y-152830000D01*
X205237400Y-148810000D02*
X206141600Y-149714200D01*
X146562500Y-133438400D02*
X147653000Y-132347900D01*
X147653000Y-132347900D02*
X148025900Y-132347900D01*
X152189300Y-140403800D02*
X146562500Y-134777000D01*
X146562500Y-134777000D02*
X146562500Y-133438400D01*
X190745400Y-140403800D02*
X152189300Y-140403800D01*
X204760000Y-145000000D02*
X195341600Y-145000000D01*
X195341600Y-145000000D02*
X190745400Y-140403800D01*
X164386400Y-139952100D02*
X161064000Y-136629700D01*
X200254300Y-140263400D02*
X199943000Y-139952100D01*
X199943000Y-139952100D02*
X164386400Y-139952100D01*
X171719100Y-122133300D02*
X197095100Y-122133300D01*
X168812400Y-119226600D02*
X171719100Y-122133300D01*
X177571700Y-153759500D02*
X175546600Y-151734400D01*
X183502800Y-153759500D02*
X177571700Y-153759500D01*
X187182300Y-150080000D02*
X183502800Y-153759500D01*
X204760000Y-150080000D02*
X187182300Y-150080000D01*
X188785600Y-139500400D02*
X183897600Y-134612400D01*
X204760000Y-139920000D02*
X204340400Y-139500400D01*
X204340400Y-139500400D02*
X188785600Y-139500400D01*
X212380000Y-153247500D02*
X208995100Y-156632400D01*
X208995100Y-156632400D02*
X182634000Y-156632400D01*
X212380000Y-152830000D02*
X212380000Y-153247500D01*
X238847800Y-145070400D02*
X247022800Y-145070400D01*
X220000000Y-150080000D02*
X218934400Y-149014400D01*
X291146500Y-134436300D02*
X297242500Y-140532300D01*
X251361900Y-140731300D02*
X269649900Y-140731300D01*
X219501200Y-146270000D02*
X237648200Y-146270000D01*
X218934400Y-146836800D02*
X219501200Y-146270000D01*
X269649900Y-140731300D02*
X275944900Y-134436300D01*
X275944900Y-134436300D02*
X291146500Y-134436300D01*
X297242500Y-140532300D02*
X300908700Y-140532300D01*
X218934400Y-149014400D02*
X218934400Y-146836800D01*
X247022800Y-145070400D02*
X251361900Y-140731300D01*
X237648200Y-146270000D02*
X238847800Y-145070400D01*
X238378600Y-136515800D02*
X234974400Y-139920000D01*
X234974400Y-139920000D02*
X220000000Y-139920000D01*
X270567700Y-133664900D02*
X267716800Y-136515800D01*
X294393200Y-122631200D02*
X283359500Y-133664900D01*
X283359500Y-133664900D02*
X270567700Y-133664900D01*
X267716800Y-136515800D02*
X238378600Y-136515800D01*
X239035000Y-145522100D02*
X247289400Y-145522100D01*
X251381100Y-141430400D02*
X273102400Y-141430400D01*
X237017100Y-147540000D02*
X239035000Y-145522100D01*
X220000000Y-147540000D02*
X237017100Y-147540000D01*
X273102400Y-141430400D02*
X278536900Y-135995900D01*
X247289400Y-145522100D02*
X251381100Y-141430400D01*
X245075500Y-134585100D02*
X261327500Y-118333100D01*
X234699800Y-134585100D02*
X245075500Y-134585100D01*
X261327500Y-118333100D02*
X271400600Y-118333100D01*
X220000000Y-137380000D02*
X231904900Y-137380000D01*
X231904900Y-137380000D02*
X234699800Y-134585100D01*
X238261400Y-145000000D02*
X220000000Y-145000000D01*
X258735200Y-138695900D02*
X244565500Y-138695900D01*
X244565500Y-138695900D02*
X238261400Y-145000000D01*
X224034300Y-134840000D02*
X220000000Y-134840000D01*
X250986900Y-121292800D02*
X244377900Y-121292800D01*
X237438100Y-128232600D02*
X230641700Y-128232600D01*
X244377900Y-121292800D02*
X237438100Y-128232600D01*
X230641700Y-128232600D02*
X224034300Y-134840000D01*
X246222600Y-181758100D02*
X247231400Y-181758100D01*
X244241600Y-179777100D02*
X246222600Y-181758100D01*
M02*
