%TF.GenerationSoftware,KiCad,Pcbnew,9.0.0*%
%TF.CreationDate,2025-02-21T22:11:59+01:00*%
%TF.ProjectId,chouchou_mx,63686f75-6368-46f7-955f-6d782e6b6963,v1.0.0*%
%TF.SameCoordinates,Original*%
%TF.FileFunction,Profile,NP*%
%FSLAX46Y46*%
G04 Gerber Fmt 4.6, Leading zero omitted, Abs format (unit mm)*
G04 Created by KiCad (PCBNEW 9.0.0) date 2025-02-21 22:11:59*
%MOMM*%
%LPD*%
G01*
G04 APERTURE LIST*
%TA.AperFunction,Profile*%
%ADD10C,0.150000*%
%TD*%
%TA.AperFunction,Profile*%
%ADD11C,0.120000*%
%TD*%
G04 APERTURE END LIST*
D10*
X124356602Y-174927493D02*
X122080330Y-177880436D01*
X210677686Y-149427089D02*
G75*
G02*
X208100165Y-148191890I-684086J1879389D01*
G01*
X202716230Y-139568611D02*
X171080942Y-156379848D01*
X129800891Y-177880436D02*
X127524619Y-174927493D01*
X81069151Y-103348799D02*
G75*
G02*
X81624561Y-103504984I-258051J-1983301D01*
G01*
X46333040Y-140690560D02*
G75*
G02*
X49165023Y-139568551I1893460J-644140D01*
G01*
X101275568Y-112416374D02*
X115795003Y-127553530D01*
X43780997Y-148191870D02*
G75*
G02*
X41203547Y-149427056I-1893397J644170D01*
G01*
X80800278Y-156379849D02*
G75*
G02*
X80916320Y-156446589I-939078J-1767051D01*
G01*
X142162086Y-206835697D02*
X130057892Y-178320004D01*
X60582225Y-100683033D02*
X81069151Y-103348799D01*
X136086218Y-127553530D02*
G75*
G02*
X134642861Y-128169053I-1443318J1384430D01*
G01*
X151235537Y-111973739D02*
X170256662Y-103504989D01*
X191298997Y-100683033D02*
G75*
G02*
X191933599Y-100702066I258103J-1983267D01*
G01*
X191933597Y-100702078D02*
X214169057Y-104964518D01*
X36209315Y-106244714D02*
G75*
G02*
X37712170Y-104964548I1879385J-684086D01*
G01*
X41203535Y-149427088D02*
X24794365Y-143454638D01*
X73953885Y-193826970D02*
G75*
G02*
X72894363Y-191204508I781415J1840970D01*
G01*
X150605653Y-112416374D02*
G75*
G02*
X151235536Y-111973736I1443347J-1384426D01*
G01*
X208100223Y-148191870D02*
X205548180Y-140690560D01*
X170256662Y-103504989D02*
G75*
G02*
X170812071Y-103348810I813438J-1827111D01*
G01*
X84788674Y-158849627D02*
X80916321Y-156446588D01*
X59947625Y-100702078D02*
G75*
G02*
X60582227Y-100683020I376575J-1964222D01*
G01*
X215671906Y-106244713D02*
X228282201Y-140891213D01*
X117238360Y-128169073D02*
G75*
G02*
X115795030Y-127553504I40J1999973D01*
G01*
X117238360Y-128169074D02*
X134642861Y-128169074D01*
X72894339Y-191204498D02*
X85575113Y-161330466D01*
X214169057Y-104964517D02*
G75*
G02*
X215671920Y-106244708I-376557J-1964283D01*
G01*
X202716230Y-139568612D02*
G75*
G02*
X205548222Y-140690546I938570J-1766088D01*
G01*
X136086218Y-127553530D02*
X150605653Y-112416374D01*
X124356601Y-174927492D02*
G75*
G02*
X127524619Y-174927492I1584009J-1221032D01*
G01*
X166306108Y-161330467D02*
G75*
G02*
X167092548Y-158849629I1840992J781467D01*
G01*
X100645684Y-111973740D02*
G75*
G02*
X101275560Y-112416381I-813484J-1827060D01*
G01*
X81624559Y-103504989D02*
X100645684Y-111973739D01*
X37712164Y-104964518D02*
X59947624Y-100702078D01*
X109719136Y-206835698D02*
G75*
G02*
X107096657Y-207895259I-1841036J781498D01*
G01*
X46333041Y-140690560D02*
X43780998Y-148191870D01*
X170812070Y-103348799D02*
X191298996Y-100683033D01*
X170964899Y-156446588D02*
X167092547Y-158849627D01*
X23599020Y-140891213D02*
X36209314Y-106244713D01*
X121823329Y-178320004D02*
G75*
G02*
X122080322Y-177880430I1840971J-781396D01*
G01*
X228282202Y-140891213D02*
G75*
G02*
X227086880Y-143454705I-1879402J-684087D01*
G01*
X227086856Y-143454638D02*
X210677686Y-149427088D01*
X24794365Y-143454638D02*
G75*
G02*
X23599074Y-140891233I684035J1879338D01*
G01*
X73953886Y-193826970D02*
X107096663Y-207895245D01*
X129800891Y-177880435D02*
G75*
G02*
X130057881Y-178320009I-1583991J-1220965D01*
G01*
X144784557Y-207895245D02*
X177927335Y-193826970D01*
X121823329Y-178320004D02*
X109719135Y-206835697D01*
X144784557Y-207895244D02*
G75*
G02*
X142162075Y-206835702I-781457J1841044D01*
G01*
X170964899Y-156446587D02*
G75*
G02*
X171080942Y-156379848I1054301J-1698913D01*
G01*
X84788673Y-158849627D02*
G75*
G02*
X85575107Y-161330464I-1054573J-1699373D01*
G01*
X80800279Y-156379848D02*
X49164991Y-139568611D01*
X166306108Y-161330466D02*
X178986882Y-191204498D01*
X178986882Y-191204499D02*
G75*
G02*
X177927349Y-193827004I-1840982J-781501D01*
G01*
D11*
%TO.C,RP2040Zero1*%
X120940600Y-151742600D02*
X120940600Y-146372600D01*
X120940600Y-151742600D02*
X131440600Y-151742600D01*
X131440600Y-146372600D02*
X120940600Y-146372600D01*
X131440600Y-146372600D02*
X131440600Y-151742600D01*
%TD*%
M02*
