G04 #@! TF.GenerationSoftware,KiCad,Pcbnew,9.0.0*
G04 #@! TF.CreationDate,2025-03-22T22:46:09+01:00*
G04 #@! TF.ProjectId,chouchou_mx,63686f75-6368-46f7-955f-6d782e6b6963,v1.0.0*
G04 #@! TF.SameCoordinates,Original*
G04 #@! TF.FileFunction,Paste,Bot*
G04 #@! TF.FilePolarity,Positive*
%FSLAX46Y46*%
G04 Gerber Fmt 4.6, Leading zero omitted, Abs format (unit mm)*
G04 Created by KiCad (PCBNEW 9.0.0) date 2025-03-22 22:46:09*
%MOMM*%
%LPD*%
G01*
G04 APERTURE LIST*
G04 Aperture macros list*
%AMRotRect*
0 Rectangle, with rotation*
0 The origin of the aperture is its center*
0 $1 length*
0 $2 width*
0 $3 Rotation angle, in degrees counterclockwise*
0 Add horizontal line*
21,1,$1,$2,0,0,$3*%
G04 Aperture macros list end*
%ADD10RotRect,2.550000X2.500000X24.000000*%
%ADD11RotRect,2.550000X2.500000X22.000000*%
%ADD12RotRect,2.550000X2.500000X67.000000*%
%ADD13RotRect,2.550000X2.500000X336.000000*%
%ADD14RotRect,2.550000X2.500000X334.000000*%
%ADD15RotRect,2.550000X2.500000X26.000000*%
%ADD16RotRect,2.550000X2.500000X340.000000*%
%ADD17RotRect,2.550000X2.500000X293.000000*%
%ADD18RotRect,2.550000X2.500000X338.000000*%
%ADD19RotRect,2.550000X2.500000X20.000000*%
G04 APERTURE END LIST*
D10*
X243735519Y-116180224D03*
X254511810Y-108601934D03*
D11*
X271468302Y-130633341D03*
X282502507Y-123435754D03*
D12*
X169423388Y-185659620D03*
X172136288Y-172767797D03*
D13*
X167759642Y-110416765D03*
X180602155Y-113354245D03*
D14*
X183153007Y-125771204D03*
X195885180Y-129155090D03*
D15*
X236902081Y-149104923D03*
X247407329Y-141155162D03*
D10*
X251483819Y-133583324D03*
X262260110Y-126005034D03*
D16*
X123608409Y-112178768D03*
X136624547Y-114213243D03*
X117092909Y-130079868D03*
X130109047Y-132114343D03*
D17*
X249479952Y-172616066D03*
X256869016Y-183522975D03*
D18*
X139833503Y-125325165D03*
X152770710Y-127812658D03*
D19*
X287516148Y-117025193D03*
X298794822Y-110217080D03*
D12*
X186959088Y-193103020D03*
X189671988Y-180211197D03*
D13*
X160011242Y-127819865D03*
X172853755Y-130757345D03*
D18*
X146969803Y-107662365D03*
X159907010Y-110149858D03*
D14*
X174802007Y-142893204D03*
X187534180Y-146277090D03*
D15*
X228551081Y-131982923D03*
X239056329Y-124033162D03*
D19*
X294031648Y-134926293D03*
X305310322Y-128118180D03*
D11*
X264332002Y-112970541D03*
X275366207Y-105772954D03*
D17*
X231944352Y-180059466D03*
X239333416Y-190966375D03*
M02*
