%TF.GenerationSoftware,KiCad,Pcbnew,9.0.0*%
%TF.CreationDate,2025-02-21T22:11:59+01:00*%
%TF.ProjectId,chouchou_mx,63686f75-6368-46f7-955f-6d782e6b6963,v1.0.0*%
%TF.SameCoordinates,Original*%
%TF.FileFunction,Soldermask,Top*%
%TF.FilePolarity,Negative*%
%FSLAX46Y46*%
G04 Gerber Fmt 4.6, Leading zero omitted, Abs format (unit mm)*
G04 Created by KiCad (PCBNEW 9.0.0) date 2025-02-21 22:11:59*
%MOMM*%
%LPD*%
G01*
G04 APERTURE LIST*
G04 Aperture macros list*
%AMRoundRect*
0 Rectangle with rounded corners*
0 $1 Rounding radius*
0 $2 $3 $4 $5 $6 $7 $8 $9 X,Y pos of 4 corners*
0 Add a 4 corners polygon primitive as box body*
4,1,4,$2,$3,$4,$5,$6,$7,$8,$9,$2,$3,0*
0 Add four circle primitives for the rounded corners*
1,1,$1+$1,$2,$3*
1,1,$1+$1,$4,$5*
1,1,$1+$1,$6,$7*
1,1,$1+$1,$8,$9*
0 Add four rect primitives between the rounded corners*
20,1,$1+$1,$2,$3,$4,$5,0*
20,1,$1+$1,$4,$5,$6,$7,0*
20,1,$1+$1,$6,$7,$8,$9,0*
20,1,$1+$1,$8,$9,$2,$3,0*%
G04 Aperture macros list end*
%ADD10C,1.801800*%
%ADD11C,3.100000*%
%ADD12C,4.087800*%
%ADD13C,0.800000*%
%ADD14C,4.500000*%
%ADD15C,2.386000*%
%ADD16RoundRect,0.425000X-0.925000X-0.425000X0.925000X-0.425000X0.925000X0.425000X-0.925000X0.425000X0*%
%ADD17RoundRect,0.425050X-0.924950X-0.425050X0.924950X-0.425050X0.924950X0.425050X-0.924950X0.425050X0*%
%ADD18RoundRect,0.425000X-0.425000X-0.925000X0.425000X-0.925000X0.425000X0.925000X-0.425000X0.925000X0*%
%ADD19RoundRect,0.418700X-0.418700X-0.931300X0.418700X-0.931300X0.418700X0.931300X-0.418700X0.931300X0*%
G04 APERTURE END LIST*
D10*
%TO.C,S16*%
X160320889Y-119397722D03*
D11*
X160447981Y-116560761D03*
D12*
X164961700Y-117331500D03*
D11*
X165215883Y-111657578D03*
D10*
X169602511Y-115265278D03*
%TD*%
D13*
%TO.C,_1*%
X52217707Y-108684567D03*
X53070880Y-107753492D03*
X52272792Y-109946220D03*
X54332533Y-107698407D03*
D14*
X53768200Y-109248900D03*
D13*
X53203867Y-110799393D03*
X55263608Y-108551580D03*
X54465520Y-110744308D03*
X55318693Y-109813233D03*
%TD*%
D10*
%TO.C,S13*%
X187999406Y-133949901D03*
D11*
X188225429Y-131119104D03*
D12*
X192709500Y-132046900D03*
D11*
X193161545Y-126385305D03*
D10*
X197419594Y-130143899D03*
%TD*%
%TO.C,S9*%
X86265486Y-186519065D03*
D11*
X84423632Y-184357566D03*
D12*
X88250400Y-181842900D03*
D11*
X84566692Y-177519904D03*
D10*
X90235314Y-177166735D03*
%TD*%
%TO.C,S6*%
X82278789Y-115265278D03*
D11*
X84472103Y-113461428D03*
D12*
X86919600Y-117331500D03*
D11*
X91306228Y-113723800D03*
D10*
X91560411Y-119397722D03*
%TD*%
%TO.C,S22*%
X47891639Y-120438862D03*
D12*
X43118000Y-118701400D03*
D10*
X38344361Y-116963938D03*
D15*
X38993717Y-122606307D03*
X45829498Y-122391316D03*
%TD*%
D10*
%TO.C,S8*%
X97562226Y-130645675D03*
D11*
X99817157Y-128919469D03*
D12*
X102128100Y-132872600D03*
D11*
X106637962Y-129420189D03*
D10*
X106693974Y-135099525D03*
%TD*%
%TO.C,S17*%
X153538226Y-152221525D03*
D11*
X153566232Y-149381857D03*
D12*
X158104100Y-149994600D03*
D11*
X158160111Y-144315264D03*
D10*
X162669974Y-147767675D03*
%TD*%
%TO.C,S15*%
X168069189Y-136800822D03*
D11*
X168196281Y-133963861D03*
D12*
X172710000Y-134734600D03*
D11*
X172964183Y-129060678D03*
D10*
X177350811Y-132668378D03*
%TD*%
%TO.C,S39*%
X165615714Y-186519065D03*
D12*
X163630800Y-181842900D03*
D10*
X161645886Y-177166735D03*
D15*
X157962178Y-181489732D03*
X162781403Y-186342481D03*
%TD*%
D10*
%TO.C,S35*%
X177350811Y-132668378D03*
D12*
X172710000Y-134734600D03*
D10*
X168069189Y-136800822D03*
D15*
X172455817Y-140408522D03*
X177223719Y-135505339D03*
%TD*%
D13*
%TO.C,_4*%
X176297050Y-146847815D03*
X176263993Y-145585393D03*
X177213093Y-147717107D03*
X177133285Y-144669350D03*
D14*
X177804400Y-146176700D03*
D13*
X178475515Y-147684050D03*
X178395707Y-144636293D03*
X179344807Y-146768007D03*
X179311750Y-145505585D03*
%TD*%
D10*
%TO.C,S36*%
X169602511Y-115265278D03*
D12*
X164961700Y-117331500D03*
D10*
X160320889Y-119397722D03*
D15*
X164707517Y-123005422D03*
X169475419Y-118102239D03*
%TD*%
D10*
%TO.C,S25*%
X83812011Y-136800822D03*
D12*
X79171200Y-134734600D03*
D10*
X74530389Y-132668378D03*
D15*
X74784572Y-138342300D03*
X81618697Y-138604672D03*
%TD*%
D10*
%TO.C,S33*%
X197419594Y-130143899D03*
D12*
X192709500Y-132046900D03*
D10*
X187999406Y-133949901D03*
D15*
X192257455Y-137708495D03*
X197193571Y-132974696D03*
%TD*%
D10*
%TO.C,S2*%
X38344361Y-116963938D03*
D11*
X40406502Y-115011484D03*
D12*
X43118000Y-118701400D03*
D11*
X47242283Y-114796493D03*
D10*
X47891639Y-120438862D03*
%TD*%
D13*
%TO.C,_5*%
X97748990Y-117385588D03*
X97671895Y-118646086D03*
X98694814Y-116548795D03*
X99955312Y-116625890D03*
D14*
X99232000Y-118108900D03*
D13*
X98508688Y-119591910D03*
X99769186Y-119669005D03*
X100792105Y-117571714D03*
X100715010Y-118832212D03*
%TD*%
D10*
%TO.C,S1*%
X31828861Y-134865038D03*
D11*
X33891002Y-132912584D03*
D12*
X36602500Y-136602500D03*
D11*
X40726783Y-132697593D03*
D10*
X41376139Y-138339962D03*
%TD*%
%TO.C,S19*%
X161645886Y-177166735D03*
D11*
X164480197Y-177343319D03*
D12*
X163630800Y-181842900D03*
D11*
X169299422Y-182196068D03*
D10*
X165615714Y-186519065D03*
%TD*%
%TO.C,S29*%
X90235314Y-177166735D03*
D12*
X88250400Y-181842900D03*
D10*
X86265486Y-186519065D03*
D15*
X91934108Y-186165896D03*
X92077168Y-179328234D03*
%TD*%
D10*
%TO.C,S3*%
X54461606Y-130143899D03*
D11*
X56590630Y-128264602D03*
D12*
X59171700Y-132046900D03*
D11*
X63429748Y-128288307D03*
D10*
X63881794Y-133949901D03*
%TD*%
%TO.C,S24*%
X71018094Y-116287101D03*
D12*
X66308000Y-114384100D03*
D10*
X61597906Y-112481099D03*
D15*
X62049952Y-118142693D03*
X68889070Y-118166398D03*
%TD*%
D10*
%TO.C,S34*%
X190283294Y-112481099D03*
D12*
X185573200Y-114384100D03*
D10*
X180863106Y-116287101D03*
D15*
X185121155Y-120045695D03*
X190057271Y-115311896D03*
%TD*%
D10*
%TO.C,S21*%
X41376139Y-138339962D03*
D12*
X36602500Y-136602500D03*
D10*
X31828861Y-134865038D03*
D15*
X32478217Y-140507407D03*
X39313998Y-140292416D03*
%TD*%
D10*
%TO.C,S26*%
X91560411Y-119397722D03*
D12*
X86919600Y-117331500D03*
D10*
X82278789Y-115265278D03*
D15*
X82532972Y-120939200D03*
X89367097Y-121201572D03*
%TD*%
D10*
%TO.C,S12*%
X203989561Y-120438862D03*
D11*
X204314240Y-117617677D03*
D12*
X208763200Y-118701400D03*
D11*
X209412557Y-113059030D03*
D10*
X213536839Y-116963938D03*
%TD*%
%TO.C,S31*%
X220052339Y-134865038D03*
D12*
X215278700Y-136602500D03*
D10*
X210505061Y-138339962D03*
D15*
X214629343Y-142244870D03*
X219727660Y-137686223D03*
%TD*%
D10*
%TO.C,S10*%
X103801186Y-193962465D03*
D11*
X101959332Y-191800966D03*
D12*
X105786100Y-189286300D03*
D11*
X102102392Y-184963304D03*
D10*
X107771014Y-184610135D03*
%TD*%
D16*
%TO.C,RP2040Zero1*%
X134320600Y-134012600D03*
X134320600Y-134012600D03*
X134320600Y-136552600D03*
X134320600Y-136552600D03*
X134320600Y-139092600D03*
X134320600Y-139092600D03*
X134320600Y-141632600D03*
X134320600Y-141632600D03*
X134320600Y-144172600D03*
X134320600Y-144172600D03*
D17*
X134320600Y-146712600D03*
X134320600Y-146712600D03*
X134320600Y-149252600D03*
X134320600Y-149252600D03*
X134320600Y-151792600D03*
X134320600Y-151792600D03*
X134320600Y-154332600D03*
X134320600Y-154332600D03*
D18*
X131180600Y-155142600D03*
X131180600Y-155142600D03*
D19*
X128640600Y-155142600D03*
X128640600Y-155142600D03*
X126100600Y-155142600D03*
X126100600Y-155142600D03*
X123560600Y-155142600D03*
X123560600Y-155142600D03*
X121020600Y-155142600D03*
X121020600Y-155142600D03*
D17*
X117880600Y-154332600D03*
X117880600Y-154332600D03*
X117880600Y-151792600D03*
X117880600Y-151792600D03*
X117880600Y-149252600D03*
X117880600Y-149252600D03*
X117880600Y-146712600D03*
X117880600Y-146712600D03*
X117880600Y-134012600D03*
X117880600Y-134012600D03*
X117880600Y-136552600D03*
X117880600Y-136552600D03*
X117880600Y-139092600D03*
X117880600Y-139092600D03*
X117880600Y-144172600D03*
X117880600Y-144172600D03*
X117880600Y-141632600D03*
X117880600Y-141632600D03*
%TD*%
D10*
%TO.C,S30*%
X107771014Y-184610135D03*
D12*
X105786100Y-189286300D03*
D10*
X103801186Y-193962465D03*
D15*
X109469808Y-193609296D03*
X109612868Y-186771634D03*
%TD*%
D13*
%TO.C,_7*%
X91479594Y-198612733D03*
X90594447Y-197712001D03*
X92742401Y-198623753D03*
X90605467Y-196449194D03*
D14*
X92124300Y-197093900D03*
D13*
X93643133Y-197738606D03*
X91506199Y-195564047D03*
X93654153Y-196475799D03*
X92769006Y-195575067D03*
%TD*%
%TO.C,_3*%
X72569450Y-145505585D03*
X73485493Y-144636293D03*
X72536393Y-146768007D03*
X74747915Y-144669350D03*
D14*
X74076800Y-146176700D03*
D13*
X73405685Y-147684050D03*
X75617207Y-145585393D03*
X74668107Y-147717107D03*
X75584150Y-146847815D03*
%TD*%
%TO.C,_6*%
X151166190Y-118832212D03*
X151089095Y-117571714D03*
X152112014Y-119669005D03*
X151925888Y-116625890D03*
D14*
X152649200Y-118108900D03*
D13*
X153372512Y-119591910D03*
X153186386Y-116548795D03*
X154209305Y-118646086D03*
X154132210Y-117385588D03*
%TD*%
D10*
%TO.C,S27*%
X98342974Y-152221525D03*
D12*
X93777100Y-149994600D03*
D10*
X89211226Y-147767675D03*
D15*
X89267238Y-153447011D03*
X96088043Y-153947731D03*
%TD*%
D10*
%TO.C,S37*%
X162669974Y-147767675D03*
D12*
X158104100Y-149994600D03*
D10*
X153538226Y-152221525D03*
D15*
X158048089Y-155673936D03*
X162641968Y-150607343D03*
%TD*%
D10*
%TO.C,S28*%
X106693974Y-135099525D03*
D12*
X102128100Y-132872600D03*
D10*
X97562226Y-130645675D03*
D15*
X97618238Y-136325011D03*
X104439043Y-136825731D03*
%TD*%
D10*
%TO.C,S38*%
X154318974Y-130645675D03*
D12*
X149753100Y-132872600D03*
D10*
X145187226Y-135099525D03*
D15*
X149697089Y-138551936D03*
X154290968Y-133485343D03*
%TD*%
D10*
%TO.C,S40*%
X148080114Y-193962465D03*
D12*
X146095200Y-189286300D03*
D10*
X144110286Y-184610135D03*
D15*
X140426578Y-188933132D03*
X145245803Y-193785881D03*
%TD*%
D10*
%TO.C,S32*%
X213536839Y-116963938D03*
D12*
X208763200Y-118701400D03*
D10*
X203989561Y-120438862D03*
D15*
X208113843Y-124343770D03*
X213212160Y-119785123D03*
%TD*%
D10*
%TO.C,S5*%
X74530389Y-132668378D03*
D11*
X76723703Y-130864528D03*
D12*
X79171200Y-134734600D03*
D11*
X83557828Y-131126900D03*
D10*
X83812011Y-136800822D03*
%TD*%
%TO.C,S4*%
X61597906Y-112481099D03*
D11*
X63726930Y-110601802D03*
D12*
X66308000Y-114384100D03*
D11*
X70566048Y-110625507D03*
D10*
X71018094Y-116287101D03*
%TD*%
%TO.C,S7*%
X89211226Y-147767675D03*
D11*
X91466157Y-146041469D03*
D12*
X93777100Y-149994600D03*
D11*
X98286962Y-146542189D03*
D10*
X98342974Y-152221525D03*
%TD*%
%TO.C,S18*%
X145187226Y-135099525D03*
D11*
X145215232Y-132259857D03*
D12*
X149753100Y-132872600D03*
D11*
X149809111Y-127193264D03*
D10*
X154318974Y-130645675D03*
%TD*%
D13*
%TO.C,_2*%
X196562507Y-109813233D03*
X196617592Y-108551580D03*
X197415680Y-110744308D03*
X197548667Y-107698407D03*
D14*
X198113000Y-109248900D03*
D13*
X198677333Y-110799393D03*
X198810320Y-107753492D03*
X199608408Y-109946220D03*
X199663493Y-108684567D03*
%TD*%
%TO.C,_8*%
X159112194Y-195575067D03*
X160375001Y-195564047D03*
X158227047Y-196475799D03*
X161275733Y-196449194D03*
D14*
X159756900Y-197093900D03*
D13*
X158238067Y-197738606D03*
X161286753Y-197712001D03*
X159138799Y-198623753D03*
X160401606Y-198612733D03*
%TD*%
D10*
%TO.C,S23*%
X63881794Y-133949901D03*
D12*
X59171700Y-132046900D03*
D10*
X54461606Y-130143899D03*
D15*
X54913652Y-135805493D03*
X61752770Y-135829198D03*
%TD*%
D10*
%TO.C,S11*%
X210505061Y-138339962D03*
D11*
X210829740Y-135518777D03*
D12*
X215278700Y-136602500D03*
D11*
X215928057Y-130960130D03*
D10*
X220052339Y-134865038D03*
%TD*%
%TO.C,S14*%
X180863106Y-116287101D03*
D11*
X181089129Y-113456304D03*
D12*
X185573200Y-114384100D03*
D11*
X186025245Y-108722505D03*
D10*
X190283294Y-112481099D03*
%TD*%
%TO.C,S20*%
X144110286Y-184610135D03*
D11*
X146944597Y-184786719D03*
D12*
X146095200Y-189286300D03*
D11*
X151763822Y-189639468D03*
D10*
X148080114Y-193962465D03*
%TD*%
M02*
