%TF.GenerationSoftware,KiCad,Pcbnew,9.0.0*%
%TF.CreationDate,2025-02-21T22:11:59+01:00*%
%TF.ProjectId,chouchou_mx,63686f75-6368-46f7-955f-6d782e6b6963,v1.0.0*%
%TF.SameCoordinates,Original*%
%TF.FileFunction,Copper,L1,Top*%
%TF.FilePolarity,Positive*%
%FSLAX46Y46*%
G04 Gerber Fmt 4.6, Leading zero omitted, Abs format (unit mm)*
G04 Created by KiCad (PCBNEW 9.0.0) date 2025-02-21 22:11:59*
%MOMM*%
%LPD*%
G01*
G04 APERTURE LIST*
G04 Aperture macros list*
%AMRoundRect*
0 Rectangle with rounded corners*
0 $1 Rounding radius*
0 $2 $3 $4 $5 $6 $7 $8 $9 X,Y pos of 4 corners*
0 Add a 4 corners polygon primitive as box body*
4,1,4,$2,$3,$4,$5,$6,$7,$8,$9,$2,$3,0*
0 Add four circle primitives for the rounded corners*
1,1,$1+$1,$2,$3*
1,1,$1+$1,$4,$5*
1,1,$1+$1,$6,$7*
1,1,$1+$1,$8,$9*
0 Add four rect primitives between the rounded corners*
20,1,$1+$1,$2,$3,$4,$5,0*
20,1,$1+$1,$4,$5,$6,$7,0*
20,1,$1+$1,$6,$7,$8,$9,0*
20,1,$1+$1,$8,$9,$2,$3,0*%
G04 Aperture macros list end*
%TA.AperFunction,ComponentPad*%
%ADD10C,0.700000*%
%TD*%
%TA.AperFunction,ComponentPad*%
%ADD11C,4.400000*%
%TD*%
%TA.AperFunction,ComponentPad*%
%ADD12C,2.286000*%
%TD*%
%TA.AperFunction,ComponentPad*%
%ADD13RoundRect,0.400000X-0.900000X-0.400000X0.900000X-0.400000X0.900000X0.400000X-0.900000X0.400000X0*%
%TD*%
%TA.AperFunction,ComponentPad*%
%ADD14RoundRect,0.400050X-0.899950X-0.400050X0.899950X-0.400050X0.899950X0.400050X-0.899950X0.400050X0*%
%TD*%
%TA.AperFunction,ComponentPad*%
%ADD15RoundRect,0.400000X-0.400000X-0.900000X0.400000X-0.900000X0.400000X0.900000X-0.400000X0.900000X0*%
%TD*%
%TA.AperFunction,ComponentPad*%
%ADD16RoundRect,0.393700X-0.393700X-0.906300X0.393700X-0.906300X0.393700X0.906300X-0.393700X0.906300X0*%
%TD*%
%TA.AperFunction,ViaPad*%
%ADD17C,0.800000*%
%TD*%
%TA.AperFunction,Conductor*%
%ADD18C,0.250000*%
%TD*%
G04 APERTURE END LIST*
D10*
%TO.P,_1,1*%
%TO.N,N/C*%
X52217707Y-108684567D03*
X53070880Y-107753492D03*
X52272792Y-109946220D03*
X54332533Y-107698407D03*
D11*
X53768200Y-109248900D03*
D10*
X53203867Y-110799393D03*
X55263608Y-108551580D03*
X54465520Y-110744308D03*
X55318693Y-109813233D03*
%TD*%
D12*
%TO.P,S22,1*%
%TO.N,GP26*%
X38993717Y-122606307D03*
%TO.P,S22,2*%
%TO.N,GND*%
X45829498Y-122391316D03*
%TD*%
%TO.P,S39,1*%
%TO.N,GP8*%
X157962178Y-181489732D03*
%TO.P,S39,2*%
%TO.N,GND*%
X162781403Y-186342481D03*
%TD*%
%TO.P,S35,1*%
%TO.N,GP5*%
X172455817Y-140408522D03*
%TO.P,S35,2*%
%TO.N,GND*%
X177223719Y-135505339D03*
%TD*%
D10*
%TO.P,_4,1*%
%TO.N,N/C*%
X176297050Y-146847815D03*
X176263993Y-145585393D03*
X177213093Y-147717107D03*
X177133285Y-144669350D03*
D11*
X177804400Y-146176700D03*
D10*
X178475515Y-147684050D03*
X178395707Y-144636293D03*
X179344807Y-146768007D03*
X179311750Y-145505585D03*
%TD*%
D12*
%TO.P,S36,1*%
%TO.N,GP1*%
X164707517Y-123005422D03*
%TO.P,S36,2*%
%TO.N,GND*%
X169475419Y-118102239D03*
%TD*%
%TO.P,S25,1*%
%TO.N,GP14*%
X74784572Y-138342300D03*
%TO.P,S25,2*%
%TO.N,GND*%
X81618697Y-138604672D03*
%TD*%
%TO.P,S33,1*%
%TO.N,GP6*%
X192257455Y-137708495D03*
%TO.P,S33,2*%
%TO.N,GND*%
X197193571Y-132974696D03*
%TD*%
D10*
%TO.P,_5,1*%
%TO.N,N/C*%
X97748990Y-117385588D03*
X97671895Y-118646086D03*
X98694814Y-116548795D03*
X99955312Y-116625890D03*
D11*
X99232000Y-118108900D03*
D10*
X98508688Y-119591910D03*
X99769186Y-119669005D03*
X100792105Y-117571714D03*
X100715010Y-118832212D03*
%TD*%
D12*
%TO.P,S29,1*%
%TO.N,GP11*%
X91934108Y-186165896D03*
%TO.P,S29,2*%
%TO.N,GND*%
X92077168Y-179328234D03*
%TD*%
%TO.P,S24,1*%
%TO.N,GP27*%
X62049952Y-118142693D03*
%TO.P,S24,2*%
%TO.N,GND*%
X68889070Y-118166398D03*
%TD*%
%TO.P,S34,1*%
%TO.N,GP2*%
X185121155Y-120045695D03*
%TO.P,S34,2*%
%TO.N,GND*%
X190057271Y-115311896D03*
%TD*%
%TO.P,S21,1*%
%TO.N,GP12*%
X32478217Y-140507407D03*
%TO.P,S21,2*%
%TO.N,GND*%
X39313998Y-140292416D03*
%TD*%
%TO.P,S26,1*%
%TO.N,GP28*%
X82532972Y-120939200D03*
%TO.P,S26,2*%
%TO.N,GND*%
X89367097Y-121201572D03*
%TD*%
%TO.P,S31,1*%
%TO.N,GP7*%
X214629343Y-142244870D03*
%TO.P,S31,2*%
%TO.N,GND*%
X219727660Y-137686223D03*
%TD*%
D13*
%TO.P,RP2040Zero1,1*%
%TO.N,GP0*%
X134320600Y-134012600D03*
X134320600Y-134012600D03*
%TO.P,RP2040Zero1,2*%
%TO.N,GP1*%
X134320600Y-136552600D03*
X134320600Y-136552600D03*
%TO.P,RP2040Zero1,3*%
%TO.N,GP2*%
X134320600Y-139092600D03*
X134320600Y-139092600D03*
%TO.P,RP2040Zero1,4*%
%TO.N,GP3*%
X134320600Y-141632600D03*
X134320600Y-141632600D03*
%TO.P,RP2040Zero1,5*%
%TO.N,GP4*%
X134320600Y-144172600D03*
X134320600Y-144172600D03*
D14*
%TO.P,RP2040Zero1,6*%
%TO.N,GP5*%
X134320600Y-146712600D03*
X134320600Y-146712600D03*
%TO.P,RP2040Zero1,7*%
%TO.N,GP6*%
X134320600Y-149252600D03*
X134320600Y-149252600D03*
%TO.P,RP2040Zero1,8*%
%TO.N,GP7*%
X134320600Y-151792600D03*
X134320600Y-151792600D03*
%TO.P,RP2040Zero1,9*%
%TO.N,GP8*%
X134320600Y-154332600D03*
X134320600Y-154332600D03*
D15*
%TO.P,RP2040Zero1,10*%
%TO.N,GP9*%
X131180600Y-155142600D03*
X131180600Y-155142600D03*
D16*
%TO.P,RP2040Zero1,11*%
%TO.N,GP10*%
X128640600Y-155142600D03*
X128640600Y-155142600D03*
%TO.P,RP2040Zero1,12*%
%TO.N,GP11*%
X126100600Y-155142600D03*
X126100600Y-155142600D03*
%TO.P,RP2040Zero1,13*%
%TO.N,GP12*%
X123560600Y-155142600D03*
X123560600Y-155142600D03*
%TO.P,RP2040Zero1,14*%
%TO.N,GP13*%
X121020600Y-155142600D03*
X121020600Y-155142600D03*
D14*
%TO.P,RP2040Zero1,15*%
%TO.N,GP14*%
X117880600Y-154332600D03*
X117880600Y-154332600D03*
%TO.P,RP2040Zero1,16*%
%TO.N,GP15*%
X117880600Y-151792600D03*
X117880600Y-151792600D03*
%TO.P,RP2040Zero1,17*%
%TO.N,GP26*%
X117880600Y-149252600D03*
X117880600Y-149252600D03*
%TO.P,RP2040Zero1,18*%
%TO.N,GP27*%
X117880600Y-146712600D03*
X117880600Y-146712600D03*
%TO.P,RP2040Zero1,19*%
%TO.N,P5V*%
X117880600Y-134012600D03*
X117880600Y-134012600D03*
%TO.P,RP2040Zero1,20*%
%TO.N,GND*%
X117880600Y-136552600D03*
X117880600Y-136552600D03*
%TO.P,RP2040Zero1,21*%
%TO.N,P3V3*%
X117880600Y-139092600D03*
X117880600Y-139092600D03*
%TO.P,RP2040Zero1,22*%
%TO.N,GP28*%
X117880600Y-144172600D03*
X117880600Y-144172600D03*
%TO.P,RP2040Zero1,23*%
%TO.N,GP29*%
X117880600Y-141632600D03*
X117880600Y-141632600D03*
%TD*%
D12*
%TO.P,S30,1*%
%TO.N,GP10*%
X109469808Y-193609296D03*
%TO.P,S30,2*%
%TO.N,GND*%
X109612868Y-186771634D03*
%TD*%
D10*
%TO.P,_7,1*%
%TO.N,N/C*%
X91479594Y-198612733D03*
X90594447Y-197712001D03*
X92742401Y-198623753D03*
X90605467Y-196449194D03*
D11*
X92124300Y-197093900D03*
D10*
X93643133Y-197738606D03*
X91506199Y-195564047D03*
X93654153Y-196475799D03*
X92769006Y-195575067D03*
%TD*%
%TO.P,_3,1*%
%TO.N,N/C*%
X72569450Y-145505585D03*
X73485493Y-144636293D03*
X72536393Y-146768007D03*
X74747915Y-144669350D03*
D11*
X74076800Y-146176700D03*
D10*
X73405685Y-147684050D03*
X75617207Y-145585393D03*
X74668107Y-147717107D03*
X75584150Y-146847815D03*
%TD*%
%TO.P,_6,1*%
%TO.N,N/C*%
X151166190Y-118832212D03*
X151089095Y-117571714D03*
X152112014Y-119669005D03*
X151925888Y-116625890D03*
D11*
X152649200Y-118108900D03*
D10*
X153372512Y-119591910D03*
X153186386Y-116548795D03*
X154209305Y-118646086D03*
X154132210Y-117385588D03*
%TD*%
D12*
%TO.P,S27,1*%
%TO.N,GP15*%
X89267238Y-153447011D03*
%TO.P,S27,2*%
%TO.N,GND*%
X96088043Y-153947731D03*
%TD*%
%TO.P,S37,1*%
%TO.N,GP4*%
X158048089Y-155673936D03*
%TO.P,S37,2*%
%TO.N,GND*%
X162641968Y-150607343D03*
%TD*%
%TO.P,S28,1*%
%TO.N,GP29*%
X97618238Y-136325011D03*
%TO.P,S28,2*%
%TO.N,GND*%
X104439043Y-136825731D03*
%TD*%
%TO.P,S38,1*%
%TO.N,GP0*%
X149697089Y-138551936D03*
%TO.P,S38,2*%
%TO.N,GND*%
X154290968Y-133485343D03*
%TD*%
%TO.P,S40,1*%
%TO.N,GP9*%
X140426578Y-188933132D03*
%TO.P,S40,2*%
%TO.N,GND*%
X145245803Y-193785881D03*
%TD*%
%TO.P,S32,1*%
%TO.N,GP3*%
X208113843Y-124343770D03*
%TO.P,S32,2*%
%TO.N,GND*%
X213212160Y-119785123D03*
%TD*%
D10*
%TO.P,_2,1*%
%TO.N,N/C*%
X196562507Y-109813233D03*
X196617592Y-108551580D03*
X197415680Y-110744308D03*
X197548667Y-107698407D03*
D11*
X198113000Y-109248900D03*
D10*
X198677333Y-110799393D03*
X198810320Y-107753492D03*
X199608408Y-109946220D03*
X199663493Y-108684567D03*
%TD*%
%TO.P,_8,1*%
%TO.N,N/C*%
X159112194Y-195575067D03*
X160375001Y-195564047D03*
X158227047Y-196475799D03*
X161275733Y-196449194D03*
D11*
X159756900Y-197093900D03*
D10*
X158238067Y-197738606D03*
X161286753Y-197712001D03*
X159138799Y-198623753D03*
X160401606Y-198612733D03*
%TD*%
D12*
%TO.P,S23,1*%
%TO.N,GP13*%
X54913652Y-135805493D03*
%TO.P,S23,2*%
%TO.N,GND*%
X61752770Y-135829198D03*
%TD*%
D17*
%TO.N,GND*%
X101345500Y-179328200D03*
%TO.N,GP26*%
X107556700Y-126049200D03*
%TO.N,GP27*%
X61746500Y-134060500D03*
%TO.N,GP14*%
X113974900Y-141976000D03*
%TO.N,GP28*%
X110815700Y-123845900D03*
%TO.N,GP11*%
X96354600Y-158345000D03*
%TO.N,GP8*%
X160952000Y-183470700D03*
%TD*%
D18*
%TO.N,GP12*%
X123216700Y-154542600D02*
X120412000Y-151737900D01*
X104147500Y-142568100D02*
X63754900Y-142568100D01*
X109562000Y-147982600D02*
X104147500Y-142568100D01*
X120412000Y-149399600D02*
X118995000Y-147982600D01*
X123560600Y-154542600D02*
X123216700Y-154542600D01*
X120412000Y-151737900D02*
X120412000Y-149399600D01*
X118995000Y-147982600D02*
X109562000Y-147982600D01*
X63754900Y-142568100D02*
X55473900Y-134287100D01*
X36510000Y-140507400D02*
X32478200Y-140507400D01*
X42730300Y-134287100D02*
X36510000Y-140507400D01*
X55473900Y-134287100D02*
X42730300Y-134287100D01*
%TO.N,GND*%
X157268500Y-191855400D02*
X147176300Y-191855400D01*
X187267000Y-118102200D02*
X190057300Y-115311900D01*
X162781400Y-186342500D02*
X157268500Y-191855400D01*
X213212200Y-119785100D02*
X213212200Y-119514900D01*
X154291000Y-133485300D02*
X152291000Y-135485300D01*
X104712100Y-136552600D02*
X104439000Y-136825700D01*
X169475400Y-118102200D02*
X187267000Y-118102200D01*
X64664200Y-122391300D02*
X68889100Y-118166400D01*
X75557200Y-135829200D02*
X78332700Y-138604700D01*
X144562600Y-137743200D02*
X119671200Y-137743200D01*
X78332700Y-138604700D02*
X81618700Y-138604700D01*
X118480600Y-136552600D02*
X104712100Y-136552600D01*
X61752800Y-135829200D02*
X75557200Y-135829200D01*
X147176300Y-191855400D02*
X145245800Y-193785900D01*
X45829500Y-122391300D02*
X64664200Y-122391300D01*
X119671200Y-137743200D02*
X118480600Y-136552600D01*
X213212200Y-119514900D02*
X209009200Y-115311900D01*
X92077200Y-179328200D02*
X101345500Y-179328200D01*
X209009200Y-115311900D02*
X190057300Y-115311900D01*
X152291000Y-135485300D02*
X146820500Y-135485300D01*
X146820500Y-135485300D02*
X144562600Y-137743200D01*
%TO.N,GP26*%
X38993700Y-122606300D02*
X42436600Y-126049200D01*
X42436600Y-126049200D02*
X107556700Y-126049200D01*
%TO.N,GP13*%
X119862200Y-151426800D02*
X119862200Y-153384200D01*
X54913700Y-135805500D02*
X62575400Y-143467200D01*
X102648500Y-143467200D02*
X109703900Y-150522600D01*
X109703900Y-150522600D02*
X118958000Y-150522600D01*
X62575400Y-143467200D02*
X102648500Y-143467200D01*
X119862200Y-153384200D02*
X121020600Y-154542600D01*
X118958000Y-150522600D02*
X119862200Y-151426800D01*
%TO.N,GP27*%
X60283100Y-135151000D02*
X61373600Y-134060500D01*
X61373600Y-134060500D02*
X61746500Y-134060500D01*
X65909900Y-142116400D02*
X60283100Y-136489600D01*
X60283100Y-136489600D02*
X60283100Y-135151000D01*
X104466000Y-142116400D02*
X65909900Y-142116400D01*
X118480600Y-146712600D02*
X109062200Y-146712600D01*
X109062200Y-146712600D02*
X104466000Y-142116400D01*
%TO.N,GP14*%
X78107000Y-141664700D02*
X74784600Y-138342300D01*
X113974900Y-141976000D02*
X113663600Y-141664700D01*
X113663600Y-141664700D02*
X78107000Y-141664700D01*
%TO.N,GP28*%
X85439700Y-123845900D02*
X110815700Y-123845900D01*
X82533000Y-120939200D02*
X85439700Y-123845900D01*
%TO.N,GP15*%
X91292300Y-155472100D02*
X89267200Y-153447000D01*
X97223400Y-155472100D02*
X91292300Y-155472100D01*
X100902900Y-151792600D02*
X97223400Y-155472100D01*
X118480600Y-151792600D02*
X100902900Y-151792600D01*
%TO.N,GP29*%
X102506200Y-141213000D02*
X97618200Y-136325000D01*
X118480600Y-141632600D02*
X118061000Y-141213000D01*
X118061000Y-141213000D02*
X102506200Y-141213000D01*
%TO.N,GP11*%
X126100600Y-154960100D02*
X122715700Y-158345000D01*
X122715700Y-158345000D02*
X96354600Y-158345000D01*
X126100600Y-154542600D02*
X126100600Y-154960100D01*
%TO.N,GP7*%
X152568400Y-146783000D02*
X160743400Y-146783000D01*
X133720600Y-151792600D02*
X132655000Y-150727000D01*
X204867100Y-136148900D02*
X210963100Y-142244900D01*
X165082500Y-142443900D02*
X183370500Y-142443900D01*
X133221800Y-147982600D02*
X151368800Y-147982600D01*
X132655000Y-148549400D02*
X133221800Y-147982600D01*
X183370500Y-142443900D02*
X189665500Y-136148900D01*
X189665500Y-136148900D02*
X204867100Y-136148900D01*
X210963100Y-142244900D02*
X214629300Y-142244900D01*
X132655000Y-150727000D02*
X132655000Y-148549400D01*
X160743400Y-146783000D02*
X165082500Y-142443900D01*
X151368800Y-147982600D02*
X152568400Y-146783000D01*
%TO.N,GP3*%
X152099200Y-138228400D02*
X148695000Y-141632600D01*
X148695000Y-141632600D02*
X133720600Y-141632600D01*
X184288300Y-135377500D02*
X181437400Y-138228400D01*
X208113800Y-124343800D02*
X197080100Y-135377500D01*
X197080100Y-135377500D02*
X184288300Y-135377500D01*
X181437400Y-138228400D02*
X152099200Y-138228400D01*
%TO.N,GP6*%
X152755600Y-147234700D02*
X161010000Y-147234700D01*
X165101700Y-143143000D02*
X186823000Y-143143000D01*
X150737700Y-149252600D02*
X152755600Y-147234700D01*
X133720600Y-149252600D02*
X150737700Y-149252600D01*
X186823000Y-143143000D02*
X192257500Y-137708500D01*
X161010000Y-147234700D02*
X165101700Y-143143000D01*
%TO.N,GP2*%
X158796100Y-136297700D02*
X175048100Y-120045700D01*
X148420400Y-136297700D02*
X158796100Y-136297700D01*
X175048100Y-120045700D02*
X185121200Y-120045700D01*
X133720600Y-139092600D02*
X145625500Y-139092600D01*
X145625500Y-139092600D02*
X148420400Y-136297700D01*
%TO.N,GP5*%
X151982000Y-146712600D02*
X133720600Y-146712600D01*
X172455800Y-140408500D02*
X158286100Y-140408500D01*
X158286100Y-140408500D02*
X151982000Y-146712600D01*
%TO.N,GP1*%
X137754900Y-136552600D02*
X133720600Y-136552600D01*
X164707500Y-123005400D02*
X158098500Y-123005400D01*
X151158700Y-129945200D02*
X144362300Y-129945200D01*
X158098500Y-123005400D02*
X151158700Y-129945200D01*
X144362300Y-129945200D02*
X137754900Y-136552600D01*
%TO.N,GP8*%
X159943200Y-183470700D02*
X160952000Y-183470700D01*
X157962200Y-181489700D02*
X159943200Y-183470700D01*
%TD*%
M02*
