%TF.GenerationSoftware,KiCad,Pcbnew,9.0.0*%
%TF.CreationDate,2025-02-21T22:11:59+01:00*%
%TF.ProjectId,chouchou_mx,63686f75-6368-46f7-955f-6d782e6b6963,v1.0.0*%
%TF.SameCoordinates,Original*%
%TF.FileFunction,AssemblyDrawing,Top*%
%FSLAX46Y46*%
G04 Gerber Fmt 4.6, Leading zero omitted, Abs format (unit mm)*
G04 Created by KiCad (PCBNEW 9.0.0) date 2025-02-21 22:11:59*
%MOMM*%
%LPD*%
G01*
G04 APERTURE LIST*
%ADD10C,0.150000*%
%ADD11C,0.100000*%
G04 APERTURE END LIST*
D10*
X121862504Y-141877419D02*
X121529171Y-141401228D01*
X121291076Y-141877419D02*
X121291076Y-140877419D01*
X121291076Y-140877419D02*
X121672028Y-140877419D01*
X121672028Y-140877419D02*
X121767266Y-140925038D01*
X121767266Y-140925038D02*
X121814885Y-140972657D01*
X121814885Y-140972657D02*
X121862504Y-141067895D01*
X121862504Y-141067895D02*
X121862504Y-141210752D01*
X121862504Y-141210752D02*
X121814885Y-141305990D01*
X121814885Y-141305990D02*
X121767266Y-141353609D01*
X121767266Y-141353609D02*
X121672028Y-141401228D01*
X121672028Y-141401228D02*
X121291076Y-141401228D01*
X122291076Y-141877419D02*
X122291076Y-140877419D01*
X122291076Y-140877419D02*
X122672028Y-140877419D01*
X122672028Y-140877419D02*
X122767266Y-140925038D01*
X122767266Y-140925038D02*
X122814885Y-140972657D01*
X122814885Y-140972657D02*
X122862504Y-141067895D01*
X122862504Y-141067895D02*
X122862504Y-141210752D01*
X122862504Y-141210752D02*
X122814885Y-141305990D01*
X122814885Y-141305990D02*
X122767266Y-141353609D01*
X122767266Y-141353609D02*
X122672028Y-141401228D01*
X122672028Y-141401228D02*
X122291076Y-141401228D01*
X123243457Y-140972657D02*
X123291076Y-140925038D01*
X123291076Y-140925038D02*
X123386314Y-140877419D01*
X123386314Y-140877419D02*
X123624409Y-140877419D01*
X123624409Y-140877419D02*
X123719647Y-140925038D01*
X123719647Y-140925038D02*
X123767266Y-140972657D01*
X123767266Y-140972657D02*
X123814885Y-141067895D01*
X123814885Y-141067895D02*
X123814885Y-141163133D01*
X123814885Y-141163133D02*
X123767266Y-141305990D01*
X123767266Y-141305990D02*
X123195838Y-141877419D01*
X123195838Y-141877419D02*
X123814885Y-141877419D01*
X124433933Y-140877419D02*
X124529171Y-140877419D01*
X124529171Y-140877419D02*
X124624409Y-140925038D01*
X124624409Y-140925038D02*
X124672028Y-140972657D01*
X124672028Y-140972657D02*
X124719647Y-141067895D01*
X124719647Y-141067895D02*
X124767266Y-141258371D01*
X124767266Y-141258371D02*
X124767266Y-141496466D01*
X124767266Y-141496466D02*
X124719647Y-141686942D01*
X124719647Y-141686942D02*
X124672028Y-141782180D01*
X124672028Y-141782180D02*
X124624409Y-141829800D01*
X124624409Y-141829800D02*
X124529171Y-141877419D01*
X124529171Y-141877419D02*
X124433933Y-141877419D01*
X124433933Y-141877419D02*
X124338695Y-141829800D01*
X124338695Y-141829800D02*
X124291076Y-141782180D01*
X124291076Y-141782180D02*
X124243457Y-141686942D01*
X124243457Y-141686942D02*
X124195838Y-141496466D01*
X124195838Y-141496466D02*
X124195838Y-141258371D01*
X124195838Y-141258371D02*
X124243457Y-141067895D01*
X124243457Y-141067895D02*
X124291076Y-140972657D01*
X124291076Y-140972657D02*
X124338695Y-140925038D01*
X124338695Y-140925038D02*
X124433933Y-140877419D01*
X125624409Y-141210752D02*
X125624409Y-141877419D01*
X125386314Y-140829800D02*
X125148219Y-141544085D01*
X125148219Y-141544085D02*
X125767266Y-141544085D01*
X126338695Y-140877419D02*
X126433933Y-140877419D01*
X126433933Y-140877419D02*
X126529171Y-140925038D01*
X126529171Y-140925038D02*
X126576790Y-140972657D01*
X126576790Y-140972657D02*
X126624409Y-141067895D01*
X126624409Y-141067895D02*
X126672028Y-141258371D01*
X126672028Y-141258371D02*
X126672028Y-141496466D01*
X126672028Y-141496466D02*
X126624409Y-141686942D01*
X126624409Y-141686942D02*
X126576790Y-141782180D01*
X126576790Y-141782180D02*
X126529171Y-141829800D01*
X126529171Y-141829800D02*
X126433933Y-141877419D01*
X126433933Y-141877419D02*
X126338695Y-141877419D01*
X126338695Y-141877419D02*
X126243457Y-141829800D01*
X126243457Y-141829800D02*
X126195838Y-141782180D01*
X126195838Y-141782180D02*
X126148219Y-141686942D01*
X126148219Y-141686942D02*
X126100600Y-141496466D01*
X126100600Y-141496466D02*
X126100600Y-141258371D01*
X126100600Y-141258371D02*
X126148219Y-141067895D01*
X126148219Y-141067895D02*
X126195838Y-140972657D01*
X126195838Y-140972657D02*
X126243457Y-140925038D01*
X126243457Y-140925038D02*
X126338695Y-140877419D01*
X127005362Y-140877419D02*
X127672028Y-140877419D01*
X127672028Y-140877419D02*
X127005362Y-141877419D01*
X127005362Y-141877419D02*
X127672028Y-141877419D01*
X128433933Y-141829800D02*
X128338695Y-141877419D01*
X128338695Y-141877419D02*
X128148219Y-141877419D01*
X128148219Y-141877419D02*
X128052981Y-141829800D01*
X128052981Y-141829800D02*
X128005362Y-141734561D01*
X128005362Y-141734561D02*
X128005362Y-141353609D01*
X128005362Y-141353609D02*
X128052981Y-141258371D01*
X128052981Y-141258371D02*
X128148219Y-141210752D01*
X128148219Y-141210752D02*
X128338695Y-141210752D01*
X128338695Y-141210752D02*
X128433933Y-141258371D01*
X128433933Y-141258371D02*
X128481552Y-141353609D01*
X128481552Y-141353609D02*
X128481552Y-141448847D01*
X128481552Y-141448847D02*
X128005362Y-141544085D01*
X128910124Y-141877419D02*
X128910124Y-141210752D01*
X128910124Y-141401228D02*
X128957743Y-141305990D01*
X128957743Y-141305990D02*
X129005362Y-141258371D01*
X129005362Y-141258371D02*
X129100600Y-141210752D01*
X129100600Y-141210752D02*
X129195838Y-141210752D01*
X129672029Y-141877419D02*
X129576791Y-141829800D01*
X129576791Y-141829800D02*
X129529172Y-141782180D01*
X129529172Y-141782180D02*
X129481553Y-141686942D01*
X129481553Y-141686942D02*
X129481553Y-141401228D01*
X129481553Y-141401228D02*
X129529172Y-141305990D01*
X129529172Y-141305990D02*
X129576791Y-141258371D01*
X129576791Y-141258371D02*
X129672029Y-141210752D01*
X129672029Y-141210752D02*
X129814886Y-141210752D01*
X129814886Y-141210752D02*
X129910124Y-141258371D01*
X129910124Y-141258371D02*
X129957743Y-141305990D01*
X129957743Y-141305990D02*
X130005362Y-141401228D01*
X130005362Y-141401228D02*
X130005362Y-141686942D01*
X130005362Y-141686942D02*
X129957743Y-141782180D01*
X129957743Y-141782180D02*
X129910124Y-141829800D01*
X129910124Y-141829800D02*
X129814886Y-141877419D01*
X129814886Y-141877419D02*
X129672029Y-141877419D01*
X130957743Y-141877419D02*
X130386315Y-141877419D01*
X130672029Y-141877419D02*
X130672029Y-140877419D01*
X130672029Y-140877419D02*
X130576791Y-141020276D01*
X130576791Y-141020276D02*
X130481553Y-141115514D01*
X130481553Y-141115514D02*
X130386315Y-141163133D01*
D11*
%TO.C,RP2040Zero1*%
X121770600Y-131422600D02*
X121770600Y-132422600D01*
X121770600Y-131422600D02*
X130400600Y-131422600D01*
X130400600Y-131422600D02*
X130400600Y-132422600D01*
%TD*%
M02*
