%TF.GenerationSoftware,KiCad,Pcbnew,9.0.0*%
%TF.CreationDate,2025-02-20T21:39:48+01:00*%
%TF.ProjectId,chouchou_mx,63686f75-6368-46f7-955f-6d782e6b6963,v1.0.0*%
%TF.SameCoordinates,Original*%
%TF.FileFunction,Paste,Bot*%
%TF.FilePolarity,Positive*%
%FSLAX46Y46*%
G04 Gerber Fmt 4.6, Leading zero omitted, Abs format (unit mm)*
G04 Created by KiCad (PCBNEW 9.0.0) date 2025-02-20 21:39:48*
%MOMM*%
%LPD*%
G01*
G04 APERTURE LIST*
G04 Aperture macros list*
%AMRotRect*
0 Rectangle, with rotation*
0 The origin of the aperture is its center*
0 $1 length*
0 $2 width*
0 $3 Rotation angle, in degrees counterclockwise*
0 Add horizontal line*
21,1,$1,$2,0,0,$3*%
G04 Aperture macros list end*
%ADD10RotRect,2.550000X2.500000X293.000000*%
%ADD11RotRect,2.550000X2.500000X334.000000*%
%ADD12RotRect,2.550000X2.500000X22.000000*%
%ADD13RotRect,2.550000X2.500000X20.000000*%
%ADD14RotRect,2.550000X2.500000X336.000000*%
%ADD15RotRect,2.550000X2.500000X67.000000*%
%ADD16RotRect,2.550000X2.500000X338.000000*%
%ADD17RotRect,2.550000X2.500000X340.000000*%
%ADD18RotRect,2.550000X2.500000X26.000000*%
%ADD19RotRect,2.550000X2.500000X24.000000*%
G04 APERTURE END LIST*
D10*
%TO.C,S20*%
X148733552Y-188063666D03*
X156122616Y-198970575D03*
%TD*%
D11*
%TO.C,S7*%
X88522607Y-144605804D03*
X101254780Y-147989690D03*
%TD*%
D12*
%TO.C,S14*%
X178052602Y-114683141D03*
X189086807Y-107485554D03*
%TD*%
%TO.C,S13*%
X185188902Y-132345941D03*
X196223107Y-125148354D03*
%TD*%
D13*
%TO.C,S12*%
X201236748Y-118737793D03*
X212515422Y-111929680D03*
%TD*%
D14*
%TO.C,S5*%
X73731842Y-129532465D03*
X86574355Y-132469945D03*
%TD*%
D15*
%TO.C,S10*%
X97611088Y-201107220D03*
X100323988Y-188215397D03*
%TD*%
D10*
%TO.C,S19*%
X166269152Y-180620266D03*
X173658216Y-191527175D03*
%TD*%
D16*
%TO.C,S4*%
X60690403Y-109374965D03*
X73627610Y-111862458D03*
%TD*%
D13*
%TO.C,S11*%
X207752248Y-136638893D03*
X219030922Y-129830780D03*
%TD*%
D17*
%TO.C,S1*%
X30813509Y-131792468D03*
X43829647Y-133826943D03*
%TD*%
D18*
%TO.C,S18*%
X142271681Y-133695523D03*
X152776929Y-125745762D03*
%TD*%
D17*
%TO.C,S2*%
X37329009Y-113891368D03*
X50345147Y-115925843D03*
%TD*%
D19*
%TO.C,S15*%
X165204419Y-135295924D03*
X175980710Y-127717634D03*
%TD*%
%TO.C,S16*%
X157456119Y-117892824D03*
X168232410Y-110314534D03*
%TD*%
D18*
%TO.C,S17*%
X150622681Y-150817523D03*
X161127929Y-142867762D03*
%TD*%
D16*
%TO.C,S3*%
X53554103Y-127037765D03*
X66491310Y-129525258D03*
%TD*%
D11*
%TO.C,S8*%
X96873607Y-127483804D03*
X109605780Y-130867690D03*
%TD*%
D14*
%TO.C,S6*%
X81480242Y-112129365D03*
X94322755Y-115066845D03*
%TD*%
D15*
%TO.C,S9*%
X80075388Y-193663820D03*
X82788288Y-180771997D03*
%TD*%
M02*
