M48
; DRILL file {KiCad 9.0.0} date 2025-02-20T21:13:35+0100
; FORMAT={-:-/ absolute / metric / decimal}
; #@! TF.CreationDate,2025-02-20T21:13:35+01:00
; #@! TF.GenerationSoftware,Kicad,Pcbnew,9.0.0
; #@! TF.FileFunction,Plated,1,2,PTH
FMAT,2
METRIC
; #@! TA.AperFunction,Plated,PTH,ViaDrill
T1C0.400
; #@! TA.AperFunction,Plated,PTH,ComponentDrill
T2C0.400
; #@! TA.AperFunction,Plated,PTH,ComponentDrill
T3C1.092
; #@! TA.AperFunction,Plated,PTH,ComponentDrill
T4C1.499
; #@! TA.AperFunction,Plated,PTH,ComponentDrill
T5C2.200
%
G90
G05
T1
X61.746Y-134.06
X96.355Y-157.533
X107.672Y-122.693
X109.399Y-138.326
X115.208Y-142.894
X163.382Y-187.781
X201.296Y-139.178
T2
X52.218Y-108.685
X52.273Y-109.946
X53.071Y-107.753
X53.204Y-110.799
X54.333Y-107.698
X54.466Y-110.744
X55.264Y-108.552
X55.319Y-109.813
X72.536Y-146.768
X72.569Y-145.506
X73.406Y-147.684
X73.485Y-144.636
X74.668Y-147.717
X74.748Y-144.669
X75.584Y-146.848
X75.617Y-145.585
X87.526Y-204.004
X87.537Y-202.741
X88.411Y-204.904
X88.438Y-201.856
X89.674Y-204.915
X89.7Y-201.867
X90.575Y-204.03
X90.586Y-202.767
X97.672Y-118.646
X97.749Y-117.386
X98.509Y-119.592
X98.695Y-116.549
X99.769Y-119.669
X99.955Y-116.626
X100.715Y-118.832
X100.792Y-117.572
X151.089Y-117.572
X151.166Y-118.832
X151.926Y-116.626
X152.112Y-119.669
X153.186Y-116.549
X153.373Y-119.592
X154.132Y-117.386
X154.209Y-118.646
X161.296Y-202.767
X161.307Y-204.03
X162.181Y-201.867
X162.207Y-204.915
X163.444Y-201.856
X163.47Y-204.904
X164.344Y-202.741
X164.355Y-204.004
X176.264Y-145.585
X176.297Y-146.848
X177.133Y-144.669
X177.213Y-147.717
X178.396Y-144.636
X178.476Y-147.684
X179.312Y-145.506
X179.345Y-146.768
X196.563Y-109.813
X196.618Y-108.552
X197.416Y-110.744
X197.549Y-107.698
X198.677Y-110.799
X198.81Y-107.753
X199.608Y-109.946
X199.663Y-108.685
T3
X118.481Y-134.013
X118.481Y-134.013
X118.481Y-136.553
X118.481Y-136.553
X118.481Y-139.093
X118.481Y-139.093
X118.481Y-141.633
X118.481Y-141.633
X118.481Y-144.173
X118.481Y-144.173
X118.481Y-146.713
X118.481Y-146.713
X118.481Y-149.253
X118.481Y-149.253
X118.481Y-151.793
X118.481Y-151.793
X118.481Y-154.333
X118.481Y-154.333
X121.021Y-154.543
X121.021Y-154.543
X123.561Y-154.543
X123.561Y-154.543
X126.101Y-154.543
X126.101Y-154.543
X128.641Y-154.543
X128.641Y-154.543
X131.181Y-154.543
X131.181Y-154.543
X133.721Y-134.013
X133.721Y-134.013
X133.721Y-136.553
X133.721Y-136.553
X133.721Y-139.093
X133.721Y-139.093
X133.721Y-141.633
X133.721Y-141.633
X133.721Y-144.173
X133.721Y-144.173
X133.721Y-146.713
X133.721Y-146.713
X133.721Y-149.253
X133.721Y-149.253
X133.721Y-151.793
X133.721Y-151.793
X133.721Y-154.333
X133.721Y-154.333
T4
X32.478Y-140.507
X38.994Y-122.606
X39.314Y-140.292
X45.829Y-122.391
X54.914Y-135.805
X61.753Y-135.829
X62.05Y-118.143
X68.889Y-118.166
X74.785Y-138.342
X81.619Y-138.605
X82.533Y-120.939
X88.866Y-192.457
X89.009Y-185.62
X89.267Y-153.447
X89.367Y-121.202
X96.088Y-153.948
X97.618Y-136.325
X104.439Y-136.826
X106.401Y-199.901
X106.544Y-193.063
X143.495Y-195.225
X148.314Y-200.077
X149.697Y-138.552
X154.291Y-133.485
X158.048Y-155.674
X161.031Y-187.781
X162.642Y-150.607
X164.708Y-123.005
X165.85Y-192.634
X169.475Y-118.102
X172.456Y-140.409
X177.224Y-135.505
X185.121Y-120.046
X190.057Y-115.312
X192.257Y-137.708
X197.194Y-132.975
X208.114Y-124.344
X213.212Y-119.785
X214.629Y-142.245
X219.728Y-137.686
T5
X53.768Y-109.249
X74.077Y-146.177
X89.056Y-203.385
X99.232Y-118.109
X152.649Y-118.109
X162.826Y-203.385
X177.804Y-146.177
X198.113Y-109.249
M30
