M48
; DRILL file {KiCad 9.0.0} date 2025-02-20T21:13:35+0100
; FORMAT={-:-/ absolute / metric / decimal}
; #@! TF.CreationDate,2025-02-20T21:13:35+01:00
; #@! TF.GenerationSoftware,Kicad,Pcbnew,9.0.0
; #@! TF.FileFunction,NonPlated,1,2,NPTH
FMAT,2
METRIC
; #@! TA.AperFunction,NonPlated,NPTH,ComponentDrill
T1C1.702
; #@! TA.AperFunction,NonPlated,NPTH,ComponentDrill
T2C3.000
; #@! TA.AperFunction,NonPlated,NPTH,ComponentDrill
T3C3.988
%
G90
G05
T1
X31.829Y-134.865
X31.829Y-134.865
X38.344Y-116.964
X38.344Y-116.964
X41.376Y-138.34
X41.376Y-138.34
X47.892Y-120.439
X47.892Y-120.439
X54.462Y-130.144
X54.462Y-130.144
X61.598Y-112.481
X61.598Y-112.481
X63.882Y-133.95
X63.882Y-133.95
X71.018Y-116.287
X71.018Y-116.287
X74.53Y-132.668
X74.53Y-132.668
X82.279Y-115.265
X82.279Y-115.265
X83.197Y-192.811
X83.197Y-192.811
X83.812Y-136.801
X83.812Y-136.801
X87.167Y-183.458
X87.167Y-183.458
X89.211Y-147.768
X89.211Y-147.768
X91.56Y-119.398
X91.56Y-119.398
X97.562Y-130.646
X97.562Y-130.646
X98.343Y-152.222
X98.343Y-152.222
X100.733Y-200.254
X100.733Y-200.254
X104.702Y-190.902
X104.702Y-190.902
X106.694Y-135.1
X106.694Y-135.1
X145.187Y-135.1
X145.187Y-135.1
X147.179Y-190.902
X147.179Y-190.902
X151.149Y-200.254
X151.149Y-200.254
X153.538Y-152.222
X153.538Y-152.222
X154.319Y-130.646
X154.319Y-130.646
X160.321Y-119.398
X160.321Y-119.398
X162.67Y-147.768
X162.67Y-147.768
X164.714Y-183.458
X164.714Y-183.458
X168.069Y-136.801
X168.069Y-136.801
X168.684Y-192.811
X168.684Y-192.811
X169.603Y-115.265
X169.603Y-115.265
X177.351Y-132.668
X177.351Y-132.668
X180.863Y-116.287
X180.863Y-116.287
X187.999Y-133.95
X187.999Y-133.95
X190.283Y-112.481
X190.283Y-112.481
X197.42Y-130.144
X197.42Y-130.144
X203.99Y-120.439
X203.99Y-120.439
X210.505Y-138.34
X210.505Y-138.34
X213.537Y-116.964
X213.537Y-116.964
X220.052Y-134.865
X220.052Y-134.865
T2
X33.891Y-132.913
X40.407Y-115.011
X40.727Y-132.698
X47.242Y-114.796
X56.591Y-128.265
X63.43Y-128.288
X63.727Y-110.602
X70.566Y-110.626
X76.724Y-130.865
X81.355Y-190.649
X81.498Y-183.812
X83.558Y-131.127
X84.472Y-113.461
X91.306Y-113.724
X91.466Y-146.041
X98.287Y-146.542
X98.891Y-198.093
X99.034Y-191.255
X99.817Y-128.919
X106.638Y-129.42
X145.215Y-132.26
X149.809Y-127.193
X150.013Y-191.078
X153.566Y-149.382
X154.832Y-195.931
X158.16Y-144.315
X160.448Y-116.561
X165.216Y-111.658
X167.549Y-183.635
X168.196Y-133.964
X172.368Y-188.488
X172.964Y-129.061
X181.089Y-113.456
X186.025Y-108.723
X188.225Y-131.119
X193.162Y-126.385
X204.314Y-117.618
X209.413Y-113.059
X210.83Y-135.519
X215.928Y-130.96
T3
X36.602Y-136.602
X36.602Y-136.602
X43.118Y-118.701
X43.118Y-118.701
X59.172Y-132.047
X59.172Y-132.047
X66.308Y-114.384
X66.308Y-114.384
X79.171Y-134.735
X79.171Y-134.735
X85.182Y-188.135
X85.182Y-188.135
X86.92Y-117.331
X86.92Y-117.331
X93.777Y-149.995
X93.777Y-149.995
X102.128Y-132.873
X102.128Y-132.873
X102.718Y-195.578
X102.718Y-195.578
X149.164Y-195.578
X149.164Y-195.578
X149.753Y-132.873
X149.753Y-132.873
X158.104Y-149.995
X158.104Y-149.995
X164.962Y-117.331
X164.962Y-117.331
X166.699Y-188.135
X166.699Y-188.135
X172.71Y-134.735
X172.71Y-134.735
X185.573Y-114.384
X185.573Y-114.384
X192.709Y-132.047
X192.709Y-132.047
X208.763Y-118.701
X208.763Y-118.701
X215.279Y-136.602
X215.279Y-136.602
M30
