M48
; DRILL file {KiCad 9.0.0} date 2025-03-22T22:46:13+0100
; FORMAT={-:-/ absolute / metric / decimal}
; #@! TF.CreationDate,2025-03-22T22:46:13+01:00
; #@! TF.GenerationSoftware,Kicad,Pcbnew,9.0.0
; #@! TF.FileFunction,Plated,1,2,PTH
FMAT,2
METRIC
; #@! TA.AperFunction,Plated,PTH,ViaDrill
T1C0.400
; #@! TA.AperFunction,Plated,PTH,ComponentDrill
T2C0.400
; #@! TA.AperFunction,Plated,PTH,ComponentDrill
T3C1.092
; #@! TA.AperFunction,Plated,PTH,ComponentDrill
T4C1.499
; #@! TA.AperFunction,Plated,PTH,ComponentDrill
T5C2.200
%
G90
G05
T1
X148.026Y-132.348
X182.634Y-156.632
X187.625Y-177.616
X193.836Y-124.337
X197.095Y-122.133
X200.254Y-140.263
X247.231Y-181.758
T2
X138.497Y-106.972
X138.552Y-108.234
X139.35Y-106.041
X139.483Y-109.087
X140.612Y-105.986
X140.745Y-109.032
X141.543Y-106.839
X141.598Y-108.101
X158.816Y-145.055
X158.849Y-143.793
X159.685Y-145.971
X159.765Y-142.924
X160.948Y-146.005
X161.027Y-142.957
X161.864Y-145.135
X161.897Y-143.873
X176.874Y-195.999
X176.885Y-194.737
X177.759Y-196.9
X177.786Y-193.851
X179.022Y-196.911
X179.048Y-193.862
X179.923Y-196.026
X179.934Y-194.763
X183.951Y-116.933
X184.028Y-115.673
X184.788Y-117.879
X184.974Y-114.836
X186.049Y-117.956
X186.235Y-114.913
X186.994Y-117.12
X187.072Y-115.859
X237.368Y-115.859
X237.446Y-117.12
X238.205Y-114.913
X238.391Y-117.956
X239.466Y-114.836
X239.652Y-117.879
X240.412Y-115.673
X240.489Y-116.933
X244.506Y-194.763
X244.517Y-196.026
X245.392Y-193.862
X245.418Y-196.911
X246.654Y-193.851
X246.681Y-196.9
X247.555Y-194.737
X247.566Y-195.999
X262.543Y-143.873
X262.576Y-145.135
X263.413Y-142.957
X263.492Y-146.005
X264.675Y-142.924
X264.755Y-145.971
X265.591Y-143.793
X265.624Y-145.055
X282.842Y-108.101
X282.897Y-106.839
X283.695Y-109.032
X283.828Y-105.986
X284.957Y-109.087
X285.09Y-106.041
X285.888Y-108.234
X285.943Y-106.972
T3
X204.76Y-132.3
X204.76Y-132.3
X204.76Y-134.84
X204.76Y-134.84
X204.76Y-137.38
X204.76Y-137.38
X204.76Y-139.92
X204.76Y-139.92
X204.76Y-142.46
X204.76Y-142.46
X204.76Y-145.0
X204.76Y-145.0
X204.76Y-147.54
X204.76Y-147.54
X204.76Y-150.08
X204.76Y-150.08
X204.76Y-152.62
X204.76Y-152.62
X207.3Y-152.83
X207.3Y-152.83
X209.84Y-152.83
X209.84Y-152.83
X212.38Y-152.83
X212.38Y-152.83
X214.92Y-152.83
X214.92Y-152.83
X217.46Y-152.83
X217.46Y-152.83
X220.0Y-132.3
X220.0Y-132.3
X220.0Y-134.84
X220.0Y-134.84
X220.0Y-137.38
X220.0Y-137.38
X220.0Y-139.92
X220.0Y-139.92
X220.0Y-142.46
X220.0Y-142.46
X220.0Y-145.0
X220.0Y-145.0
X220.0Y-147.54
X220.0Y-147.54
X220.0Y-150.08
X220.0Y-150.08
X220.0Y-152.62
X220.0Y-152.62
T4
X118.758Y-138.795
X125.273Y-120.894
X125.593Y-138.58
X132.109Y-120.679
X141.193Y-134.093
X148.032Y-134.117
X148.329Y-116.43
X155.168Y-116.454
X161.064Y-136.63
X167.898Y-136.892
X168.812Y-119.227
X175.547Y-151.734
X175.646Y-119.489
X178.214Y-184.453
X178.357Y-177.616
X182.367Y-152.235
X183.898Y-134.612
X190.718Y-135.113
X195.749Y-191.897
X195.892Y-185.059
X226.706Y-187.221
X231.525Y-192.073
X235.976Y-136.839
X240.57Y-131.773
X244.242Y-179.777
X244.327Y-153.961
X248.921Y-148.895
X249.061Y-184.63
X250.987Y-121.293
X255.755Y-116.39
X258.735Y-138.696
X263.503Y-133.793
X271.401Y-118.333
X276.337Y-113.599
X278.537Y-135.996
X283.473Y-131.262
X294.393Y-122.631
X299.492Y-118.073
X300.909Y-140.532
X306.007Y-135.974
T5
X140.048Y-107.536
X160.356Y-144.464
X178.404Y-195.381
X185.511Y-116.396
X238.929Y-116.396
X246.036Y-195.381
X264.084Y-144.464
X284.392Y-107.536
M30
