%TF.GenerationSoftware,KiCad,Pcbnew,9.0.0*%
%TF.CreationDate,2025-02-20T21:39:48+01:00*%
%TF.ProjectId,chouchou_mx,63686f75-6368-46f7-955f-6d782e6b6963,v1.0.0*%
%TF.SameCoordinates,Original*%
%TF.FileFunction,Profile,NP*%
%FSLAX46Y46*%
G04 Gerber Fmt 4.6, Leading zero omitted, Abs format (unit mm)*
G04 Created by KiCad (PCBNEW 9.0.0) date 2025-02-20 21:39:48*
%MOMM*%
%LPD*%
G01*
G04 APERTURE LIST*
%TA.AperFunction,Profile*%
%ADD10C,0.150000*%
%TD*%
%TA.AperFunction,Profile*%
%ADD11C,0.120000*%
%TD*%
G04 APERTURE END LIST*
D10*
X36209315Y-106244714D02*
G75*
G02*
X37712170Y-104964548I1879385J-684086D01*
G01*
X136086218Y-127553530D02*
G75*
G02*
X134642861Y-128169053I-1443318J1384430D01*
G01*
X59947625Y-100702078D02*
G75*
G02*
X60582227Y-100683020I376575J-1964222D01*
G01*
X202716230Y-139568612D02*
G75*
G02*
X205548222Y-140690546I938570J-1766088D01*
G01*
X69825740Y-197496057D02*
X82918195Y-166652166D01*
X170256662Y-103504989D02*
G75*
G02*
X170812071Y-103348810I813438J-1827111D01*
G01*
X151235537Y-111973739D02*
X170256662Y-103504989D01*
X118796040Y-184514242D02*
G75*
G02*
X118934193Y-184246755I1840860J-781358D01*
G01*
X46333040Y-140690560D02*
G75*
G02*
X49165023Y-139568551I1893460J-644140D01*
G01*
X136086218Y-127553530D02*
X150605653Y-112416374D01*
X81624559Y-103504989D02*
X100645684Y-111973739D01*
X100645684Y-111973740D02*
G75*
G02*
X101275560Y-112416381I-813484J-1827060D01*
G01*
X60582225Y-100683033D02*
X81069151Y-103348799D01*
X83021749Y-165403079D02*
X81070027Y-157287071D01*
X124237757Y-175637001D02*
X118934197Y-184246757D01*
X106650537Y-213127255D02*
G75*
G02*
X104028050Y-214186839I-1841037J781455D01*
G01*
X182055481Y-197496057D02*
G75*
G02*
X180995917Y-200118492I-1840981J-781443D01*
G01*
X132947024Y-184246757D02*
X127643464Y-175637001D01*
X81069151Y-103348799D02*
G75*
G02*
X81624561Y-103504984I-258051J-1983301D01*
G01*
X168963026Y-166652166D02*
G75*
G02*
X168859468Y-165403078I1840974J781466D01*
G01*
X101275568Y-112416374D02*
X115795003Y-127553530D01*
X41203535Y-149427088D02*
X24794365Y-143454638D01*
X46333041Y-140690560D02*
X43780998Y-148191870D01*
X214169057Y-104964517D02*
G75*
G02*
X215671920Y-106244708I-376557J-1964283D01*
G01*
X80063991Y-155988580D02*
X49164991Y-139568611D01*
X117238360Y-128169073D02*
G75*
G02*
X115795030Y-127553504I40J1999973D01*
G01*
X43780997Y-148191870D02*
G75*
G02*
X41203547Y-149427056I-1893397J644170D01*
G01*
X37712164Y-104964518D02*
X59947624Y-100702078D01*
X70885288Y-200118529D02*
G75*
G02*
X69825693Y-197496037I781412J1841029D01*
G01*
X150605653Y-112416374D02*
G75*
G02*
X151235536Y-111973736I1443347J-1384426D01*
G01*
X210677686Y-149427089D02*
G75*
G02*
X208100165Y-148191890I-684086J1879389D01*
G01*
X170812070Y-103348799D02*
X191298996Y-100683033D01*
X147853155Y-214186802D02*
G75*
G02*
X145230696Y-213127250I-781455J1841002D01*
G01*
X117238360Y-128169074D02*
X134642861Y-128169074D01*
X227086856Y-143454638D02*
X210677686Y-149427088D01*
X132947023Y-184246758D02*
G75*
G02*
X133085180Y-184514243I-1703023J-1049042D01*
G01*
X228282202Y-140891213D02*
G75*
G02*
X227086880Y-143454705I-1879402J-684087D01*
G01*
X24794365Y-143454638D02*
G75*
G02*
X23599074Y-140891233I684035J1879338D01*
G01*
X191298997Y-100683033D02*
G75*
G02*
X191933599Y-100702066I258103J-1983267D01*
G01*
X118796040Y-184514243D02*
X106650537Y-213127255D01*
X80063991Y-155988580D02*
G75*
G02*
X81070047Y-157287066I-938491J-1766120D01*
G01*
X145230684Y-213127255D02*
X133085180Y-184514243D01*
X170811194Y-157287071D02*
G75*
G02*
X171817221Y-155988563I1944606J-467629D01*
G01*
X168963026Y-166652166D02*
X182055480Y-197496057D01*
X83021749Y-165403079D02*
G75*
G02*
X82918192Y-166652165I-1944549J-467621D01*
G01*
X202716230Y-139568611D02*
X171817230Y-155988580D01*
X70885288Y-200118529D02*
X104028065Y-214186803D01*
X170811194Y-157287071D02*
X168859472Y-165403079D01*
X147853156Y-214186803D02*
X180995933Y-200118529D01*
X208100223Y-148191870D02*
X205548180Y-140690560D01*
X124237757Y-175636999D02*
G75*
G02*
X127643450Y-175637010I1702843J-1048901D01*
G01*
X215671906Y-106244713D02*
X228282201Y-140891213D01*
X191933597Y-100702078D02*
X214169057Y-104964518D01*
X23599020Y-140891213D02*
X36209314Y-106244713D01*
D11*
%TO.C,RP2040Zero1*%
X120940600Y-151742600D02*
X120940600Y-146372600D01*
X120940600Y-151742600D02*
X131440600Y-151742600D01*
X131440600Y-146372600D02*
X120940600Y-146372600D01*
X131440600Y-146372600D02*
X131440600Y-151742600D01*
%TD*%
M02*
