G04 #@! TF.GenerationSoftware,KiCad,Pcbnew,9.0.0*
G04 #@! TF.CreationDate,2025-03-22T22:46:10+01:00*
G04 #@! TF.ProjectId,chouchou_mx,63686f75-6368-46f7-955f-6d782e6b6963,v1.0.0*
G04 #@! TF.SameCoordinates,Original*
G04 #@! TF.FileFunction,Profile,NP*
%FSLAX46Y46*%
G04 Gerber Fmt 4.6, Leading zero omitted, Abs format (unit mm)*
G04 Created by KiCad (PCBNEW 9.0.0) date 2025-03-22 22:46:10*
%MOMM*%
%LPD*%
G01*
G04 APERTURE LIST*
G04 #@! TA.AperFunction,Profile*
%ADD10C,0.150000*%
G04 #@! TD*
G04 #@! TA.AperFunction,Profile*
%ADD11C,0.120000*%
G04 #@! TD*
G04 APERTURE END LIST*
D10*
X210636002Y-173214893D02*
X208359730Y-176167836D01*
X296957086Y-147714489D02*
G75*
G02*
X294379565Y-146479290I-684086J1879389D01*
G01*
X288995630Y-137856011D02*
X257360342Y-154667248D01*
X216080291Y-176167836D02*
X213804019Y-173214893D01*
X167348551Y-101636199D02*
G75*
G02*
X167903961Y-101792384I-258051J-1983301D01*
G01*
X132612440Y-138977960D02*
G75*
G02*
X135444423Y-137855951I1893460J-644140D01*
G01*
X187554968Y-110703774D02*
X202074403Y-125840930D01*
X130060397Y-146479270D02*
G75*
G02*
X127482947Y-147714456I-1893397J644170D01*
G01*
X167079678Y-154667249D02*
G75*
G02*
X167195720Y-154733989I-939078J-1767051D01*
G01*
X228441486Y-205123097D02*
X216337292Y-176607404D01*
X146861625Y-98970433D02*
X167348551Y-101636199D01*
X222365618Y-125840930D02*
G75*
G02*
X220922261Y-126456453I-1443318J1384430D01*
G01*
X237514937Y-110261139D02*
X256536062Y-101792389D01*
X277578397Y-98970433D02*
G75*
G02*
X278212999Y-98989466I258103J-1983267D01*
G01*
X278212997Y-98989478D02*
X300448457Y-103251918D01*
X122488715Y-104532114D02*
G75*
G02*
X123991570Y-103251948I1879385J-684086D01*
G01*
X127482935Y-147714488D02*
X111073765Y-141742038D01*
X160233285Y-192114370D02*
G75*
G02*
X159173763Y-189491908I781415J1840970D01*
G01*
X236885053Y-110703774D02*
G75*
G02*
X237514936Y-110261136I1443347J-1384426D01*
G01*
X294379623Y-146479270D02*
X291827580Y-138977960D01*
X256536062Y-101792389D02*
G75*
G02*
X257091471Y-101636210I813438J-1827111D01*
G01*
X171068074Y-157137027D02*
X167195721Y-154733988D01*
X146227025Y-98989478D02*
G75*
G02*
X146861627Y-98970420I376575J-1964222D01*
G01*
X301951306Y-104532113D02*
X314561601Y-139178613D01*
X203517760Y-126456473D02*
G75*
G02*
X202074430Y-125840904I40J1999973D01*
G01*
X203517760Y-126456474D02*
X220922261Y-126456474D01*
X159173739Y-189491898D02*
X171854513Y-159617866D01*
X300448457Y-103251917D02*
G75*
G02*
X301951320Y-104532108I-376557J-1964283D01*
G01*
X288995630Y-137856012D02*
G75*
G02*
X291827622Y-138977946I938570J-1766088D01*
G01*
X222365618Y-125840930D02*
X236885053Y-110703774D01*
X210636001Y-173214892D02*
G75*
G02*
X213804019Y-173214892I1584009J-1221032D01*
G01*
X252585508Y-159617867D02*
G75*
G02*
X253371948Y-157137029I1840992J781467D01*
G01*
X186925084Y-110261140D02*
G75*
G02*
X187554960Y-110703781I-813484J-1827060D01*
G01*
X167903959Y-101792389D02*
X186925084Y-110261139D01*
X123991564Y-103251918D02*
X146227024Y-98989478D01*
X195998536Y-205123098D02*
G75*
G02*
X193376057Y-206182659I-1841036J781498D01*
G01*
X132612441Y-138977960D02*
X130060398Y-146479270D01*
X257091470Y-101636199D02*
X277578396Y-98970433D01*
X257244299Y-154733988D02*
X253371947Y-157137027D01*
X109878420Y-139178613D02*
X122488714Y-104532113D01*
X208102729Y-176607404D02*
G75*
G02*
X208359722Y-176167830I1840971J-781396D01*
G01*
X314561602Y-139178613D02*
G75*
G02*
X313366280Y-141742105I-1879402J-684087D01*
G01*
X313366256Y-141742038D02*
X296957086Y-147714488D01*
X111073765Y-141742038D02*
G75*
G02*
X109878474Y-139178633I684035J1879338D01*
G01*
X160233286Y-192114370D02*
X193376063Y-206182645D01*
X216080291Y-176167835D02*
G75*
G02*
X216337281Y-176607409I-1583991J-1220965D01*
G01*
X231063957Y-206182645D02*
X264206735Y-192114370D01*
X208102729Y-176607404D02*
X195998535Y-205123097D01*
X231063957Y-206182644D02*
G75*
G02*
X228441475Y-205123102I-781457J1841044D01*
G01*
X257244299Y-154733987D02*
G75*
G02*
X257360342Y-154667248I1054301J-1698913D01*
G01*
X171068073Y-157137027D02*
G75*
G02*
X171854507Y-159617864I-1054573J-1699373D01*
G01*
X167079679Y-154667248D02*
X135444391Y-137856011D01*
X252585508Y-159617866D02*
X265266282Y-189491898D01*
X265266282Y-189491899D02*
G75*
G02*
X264206749Y-192114404I-1840982J-781501D01*
G01*
D11*
X207220000Y-150030000D02*
X207220000Y-144660000D01*
X207220000Y-150030000D02*
X217720000Y-150030000D01*
X217720000Y-144660000D02*
X207220000Y-144660000D01*
X217720000Y-144660000D02*
X217720000Y-150030000D01*
M02*
